<svg width="58" height="47" viewBox="0 0 58 47" fill="none" xmlns="http://www.w3.org/2000/svg">
<path d="M20.3 1.61552C24.8312 3.45146 28.8187 6.31552 31.5375 10.0608C32.9875 12.0436 33.8937 14.1733 34.4375 16.303C35.1625 19.1671 34.5281 23.2796 28.275 21.8843C24.9219 21.1499 21.6594 26.0702 27.9125 27.4655C29.725 27.8327 23.6531 29.0077 28.275 31.064C28.275 31.064 23.2906 32.0186 26.3719 33.928C27.7313 34.8093 26.1906 36.2046 25.375 36.7921C24.1063 37.6733 22.6562 38.4077 21.1156 39.1421C16.7656 41.0515 11.9625 41.9327 7.25 41.8593C15.6781 46.339 27.0062 46.9265 36.5219 42.6671C49.9344 36.6452 54.7375 23.2061 47.2156 12.6311C41.6875 4.77333 30.9031 0.734268 20.3 1.61552Z" fill="#FFE8A6"/>
<path d="M38.878 34.8829C37.5186 34.5892 36.1592 35.1767 35.7967 36.2782C35.4342 37.3064 36.2499 38.4079 37.5186 38.7017C38.7874 38.9954 40.2374 38.4079 40.5999 37.3064C40.9624 36.2782 40.2374 35.1767 38.878 34.8829ZM42.503 11.0157C41.1436 10.722 39.7842 11.3095 39.4217 12.4111C39.0592 13.4392 39.8749 14.5407 41.1436 14.8345C42.503 15.1282 43.8624 14.5407 44.2249 13.4392C44.5874 12.4111 43.8624 11.3095 42.503 11.0157ZM30.903 35.6173C28.728 35.1032 26.3717 36.1314 25.828 37.8939C25.1936 39.6564 26.4624 41.4923 28.728 41.9329C30.9936 42.3736 33.2592 41.4189 33.803 39.6564C34.4374 37.9673 33.1686 36.1314 30.903 35.6173M46.3092 22.8392C43.953 22.3251 41.5967 23.4267 40.9624 25.2626C40.328 27.0986 41.6874 29.0079 43.953 29.522C46.3092 30.0361 48.6655 28.9345 49.2999 27.0986C50.0249 25.2626 48.6655 23.3532 46.3092 22.8392M22.0217 40.4642C20.9342 40.2439 19.8467 40.7579 19.5749 41.5657C19.303 42.3736 19.9374 43.2548 20.9342 43.4751C22.0217 43.6954 23.1092 43.1814 23.3811 42.3736C23.653 41.6392 23.0186 40.7579 22.0217 40.4642ZM34.8905 5.43449C34.0749 5.28762 33.1686 5.6548 32.9874 6.31574C32.7155 6.97668 33.2592 7.63762 34.0749 7.85793C34.8905 8.0048 35.7967 7.63762 35.978 6.97668C36.2499 6.31574 35.7061 5.58137 34.8905 5.43449Z" fill="#F4DC9F"/>
<path d="M41.2343 30.6235C40.9624 30.9907 40.4187 31.2845 39.9655 31.5048C39.4218 31.7251 38.878 31.872 38.3343 31.9454C37.2468 32.1657 36.0687 32.1657 34.8905 32.1657C33.7124 32.0923 32.6249 32.0188 31.5374 31.7985C30.4499 31.5782 29.3624 31.3579 28.2749 30.9907C30.5405 31.1376 32.7155 31.3579 34.8905 31.4313C35.978 31.5048 37.0655 31.5048 38.153 31.4313C38.6968 31.3579 39.2405 31.3579 39.7843 31.211C40.328 31.1376 40.7812 30.9173 41.2343 30.6235" fill="#7F5629"/>
<path d="M33.8938 34.3688C32.7157 34.4422 31.7188 34.2954 30.6313 34.2219C30.0876 34.1485 29.5438 34.1485 29.0907 34.1485C28.547 34.1485 28.0938 34.1485 27.4595 34.2219C27.822 33.8547 28.4563 33.6344 29.0001 33.561C29.5438 33.4876 30.1782 33.4875 30.722 33.4875C31.9001 33.6344 32.9876 33.8547 33.8938 34.3688" fill="#B79918"/>
<path d="M31.2654 27.539C30.9936 27.3921 30.7217 27.3186 30.5404 27.2452L29.9061 27.1718C29.4529 27.0249 28.9092 26.878 28.4561 26.5108C29.0904 26.364 29.5436 26.364 30.1779 26.4374C30.4498 26.5108 30.7217 26.5843 30.9936 26.8046C31.1748 27.0249 31.3561 27.3186 31.2654 27.539" fill="#7F5629"/>
<path d="M39.9654 16.8906C42.4123 17.4046 44.2248 19.5343 43.5904 21.5171C42.8654 23.4999 39.9654 24.5281 37.5186 24.014C35.0717 23.4999 35.5248 21.8843 36.2498 19.9015C36.8842 17.9187 37.4279 16.3765 39.9654 16.8906Z" fill="white"/>
<path d="M38.7874 18.0656C40.328 18.4328 41.5968 19.7547 41.2343 21.0031C40.8718 22.2516 38.7874 22.8391 37.2468 22.5453C35.7062 22.1781 36.0687 21.2234 36.4312 19.975C36.8843 18.7266 37.2468 17.6984 38.7874 18.0656" fill="#7F5629"/>
<path d="M33.6221 25.8501C34.2564 26.5845 35.1627 26.9517 36.0689 27.3188L38.8783 28.4204C39.7846 28.7876 40.7814 29.2282 41.5971 29.8157C42.0502 30.1095 42.4127 30.4767 42.6846 30.8438C42.9564 31.2845 43.0471 31.7251 42.8658 32.1657C42.7752 31.2845 41.9596 30.697 41.1439 30.2563C40.3283 29.8157 39.3314 29.4485 38.4252 29.0079C37.5189 28.6407 36.5221 28.2001 35.6158 27.686C34.8908 27.3923 33.9846 26.7313 33.6221 25.8501" fill="#B79918"/>
</svg>
