<svg width="172" height="67" viewBox="0 0 172 67" fill="none" xmlns="http://www.w3.org/2000/svg">
<rect width="172" height="67" rx="10" fill="#1B2127" fill-opacity="0.54"/>
<path d="M30.9375 12H14.0625L9 17.4545L22.5 32L36 17.4545L30.9375 12ZM25.3687 24.5455L22.5 22.9091L19.6313 24.5455L20.1375 21.0909L17.775 18.5455L20.9813 18L22.5 14.9091L24.0187 18.1818L27.225 18.7273L24.8625 21.0909L25.3687 24.5455V24.5455Z" fill="white"/>
<path d="M39.5511 26L41.483 14.3636H45.7443C46.5701 14.3636 47.2311 14.5 47.7273 14.7727C48.2273 15.0417 48.572 15.4072 48.7614 15.8693C48.9508 16.3277 48.9962 16.8447 48.8977 17.4205C48.8182 17.9053 48.661 18.3125 48.4261 18.642C48.1951 18.9716 47.9148 19.2367 47.5852 19.4375C47.2557 19.6383 46.9091 19.7841 46.5455 19.875L46.5227 19.9886C46.9015 20.0076 47.2557 20.1326 47.5852 20.3636C47.9186 20.5909 48.1723 20.9148 48.3466 21.3352C48.5208 21.7557 48.5606 22.267 48.4659 22.8693C48.3636 23.464 48.1326 23.9981 47.7727 24.4716C47.4167 24.9413 46.9261 25.3144 46.3011 25.5909C45.6761 25.8636 44.9129 26 44.0114 26H39.5511ZM41.5568 24.4943H44.0909C44.9318 24.4943 45.5606 24.3314 45.9773 24.0057C46.3977 23.6799 46.6515 23.2727 46.7386 22.7841C46.7955 22.4167 46.7557 22.0795 46.6193 21.7727C46.4867 21.4659 46.2633 21.2216 45.9489 21.0398C45.6383 20.858 45.2481 20.767 44.7784 20.767H42.1818L41.5568 24.4943ZM42.4148 19.3977H44.7614C45.1553 19.3977 45.5227 19.322 45.8636 19.1705C46.2083 19.0189 46.4943 18.8049 46.7216 18.5284C46.9527 18.2519 47.0966 17.928 47.1534 17.5568C47.2367 17.072 47.1364 16.6686 46.8523 16.3466C46.572 16.0208 46.0852 15.858 45.392 15.858H42.9943L42.4148 19.3977ZM49.8835 26L51.3381 17.2727H52.9801L52.7472 18.6591H52.8381C53.0729 18.1894 53.4157 17.8201 53.8665 17.5511C54.3172 17.2784 54.7983 17.142 55.3097 17.142C55.4195 17.142 55.5445 17.1458 55.6847 17.1534C55.8248 17.1572 55.9384 17.1667 56.0256 17.1818L55.7528 18.8068C55.6884 18.7879 55.571 18.767 55.4006 18.7443C55.2301 18.7178 55.054 18.7045 54.8722 18.7045C54.4744 18.7045 54.1051 18.7898 53.7642 18.9602C53.4233 19.1269 53.1373 19.3598 52.9062 19.6591C52.6752 19.9545 52.5256 20.2917 52.4574 20.6705L51.5824 26H49.8835ZM58.4943 26.1932C57.9413 26.1932 57.4583 26.0909 57.0455 25.8864C56.6326 25.678 56.3277 25.3769 56.1307 24.983C55.9337 24.589 55.8826 24.1061 55.9773 23.5341C56.0606 23.0417 56.2235 22.6364 56.4659 22.3182C56.7121 22 57.0114 21.7481 57.3636 21.5625C57.7159 21.3731 58.0985 21.2311 58.5114 21.1364C58.9242 21.0417 59.3409 20.9716 59.7614 20.9261C60.2917 20.8655 60.7216 20.8144 61.0511 20.7727C61.3845 20.7311 61.6345 20.6667 61.8011 20.5795C61.9678 20.4886 62.0682 20.3409 62.1023 20.1364V20.0966C62.1818 19.6042 62.1098 19.2216 61.8864 18.9489C61.6667 18.6723 61.2841 18.5341 60.7386 18.5341C60.1705 18.5341 59.6932 18.6591 59.3068 18.9091C58.9242 19.1591 58.642 19.4394 58.4602 19.75L56.9375 19.3864C57.2102 18.8561 57.5568 18.428 57.9773 18.1023C58.4015 17.7727 58.8655 17.5341 59.3693 17.3864C59.8731 17.2348 60.3883 17.1591 60.9148 17.1591C61.2633 17.1591 61.625 17.2008 62 17.2841C62.375 17.3636 62.7159 17.5114 63.0227 17.7273C63.3333 17.9432 63.5644 18.2519 63.7159 18.6534C63.8674 19.0511 63.8902 19.5682 63.7841 20.2045L62.8239 26H61.1648L61.3693 24.8068H61.3011C61.1572 25.0265 60.9564 25.2424 60.6989 25.4545C60.4451 25.6667 60.1345 25.8428 59.767 25.983C59.3996 26.1231 58.9754 26.1932 58.4943 26.1932ZM59.0739 24.8295C59.5473 24.8295 59.9659 24.7367 60.3295 24.5511C60.697 24.3655 60.9943 24.1231 61.2216 23.8239C61.4489 23.5208 61.5909 23.197 61.6477 22.8523L61.8352 21.7273C61.7633 21.7879 61.6364 21.8428 61.4545 21.892C61.2765 21.9413 61.0758 21.9848 60.8523 22.0227C60.6288 22.0606 60.4091 22.0928 60.1932 22.1193C59.9811 22.1458 59.8049 22.1705 59.6648 22.1932C59.3314 22.2348 59.0189 22.3049 58.7273 22.4034C58.4394 22.5019 58.1989 22.6439 58.0057 22.8295C57.8125 23.0114 57.6913 23.2538 57.642 23.5568C57.5739 23.9773 57.6742 24.2955 57.9432 24.5114C58.2159 24.7235 58.5928 24.8295 59.0739 24.8295ZM67.6435 20.8182L66.7912 26H65.0923L66.5469 17.2727H68.1776L67.9389 18.6932H68.0469C68.3234 18.2273 68.7003 17.8561 69.1776 17.5795C69.6586 17.2992 70.2268 17.1591 70.8821 17.1591C71.473 17.1591 71.9692 17.2841 72.3707 17.5341C72.776 17.7803 73.062 18.1477 73.2287 18.6364C73.3991 19.125 73.4257 19.7292 73.3082 20.4489L72.3764 26H70.6776L71.5696 20.6534C71.6719 20.0208 71.5885 19.5265 71.3196 19.1705C71.0545 18.8106 70.6321 18.6307 70.0526 18.6307C69.6586 18.6307 69.2931 18.7159 68.956 18.8864C68.6226 19.0568 68.3404 19.3068 68.1094 19.6364C67.8821 19.9621 67.7268 20.3561 67.6435 20.8182ZM77.9048 26.1705C77.1965 26.1705 76.5961 25.9905 76.1037 25.6307C75.6151 25.267 75.2685 24.75 75.0639 24.0795C74.8632 23.4053 74.8404 22.5966 74.9957 21.6534C75.1548 20.7102 75.4484 19.9034 75.8764 19.233C76.3045 18.5625 76.8234 18.0492 77.4332 17.6932C78.0431 17.3371 78.7003 17.1591 79.4048 17.1591C79.9465 17.1591 80.367 17.25 80.6662 17.4318C80.9692 17.6098 81.1927 17.8182 81.3366 18.0568C81.4806 18.2955 81.5885 18.5057 81.6605 18.6875H81.7571L82.4787 14.3636H84.1776L82.2457 26H80.5866L80.8196 24.642H80.6776C80.545 24.8277 80.3613 25.0398 80.1264 25.2784C79.8954 25.517 79.5999 25.7254 79.2401 25.9034C78.8802 26.0814 78.4351 26.1705 77.9048 26.1705ZM78.4787 24.7216C78.9673 24.7216 79.4048 24.5928 79.7912 24.3352C80.1813 24.0739 80.5052 23.7121 80.7628 23.25C81.0241 22.7879 81.206 22.25 81.3082 21.6364C81.4105 21.0303 81.4086 20.5 81.3026 20.0455C81.1965 19.5909 80.992 19.2367 80.6889 18.983C80.3859 18.7292 79.9863 18.6023 79.4901 18.6023C78.9787 18.6023 78.5336 18.7348 78.1548 19C77.776 19.2652 77.4654 19.6269 77.223 20.0852C76.9844 20.5436 76.8177 21.0606 76.723 21.6364C76.6245 22.2197 76.6207 22.7443 76.7116 23.2102C76.8026 23.6761 76.9938 24.0455 77.2855 24.3182C77.5772 24.5871 77.9749 24.7216 78.4787 24.7216ZM85.9261 26.108C85.608 26.108 85.3428 25.9981 85.1307 25.7784C84.9223 25.5587 84.8201 25.2898 84.8239 24.9716C84.8277 24.6572 84.9451 24.3939 85.1761 24.1818C85.411 23.9659 85.6837 23.858 85.9943 23.858C86.3049 23.858 86.5701 23.9678 86.7898 24.1875C87.0095 24.4072 87.1117 24.6686 87.0966 24.9716C87.0852 25.1837 87.0246 25.3769 86.9148 25.5511C86.8087 25.7216 86.6686 25.858 86.4943 25.9602C86.3201 26.0587 86.1307 26.108 85.9261 26.108ZM86.9773 19.7557C86.6591 19.7557 86.3939 19.6458 86.1818 19.4261C85.9735 19.2027 85.8712 18.9337 85.875 18.6193C85.8788 18.3049 85.9962 18.0417 86.2273 17.8295C86.4621 17.6136 86.7348 17.5057 87.0455 17.5057C87.3523 17.5057 87.6155 17.6155 87.8352 17.8352C88.0587 18.0511 88.1629 18.3125 88.1477 18.6193C88.1364 18.8277 88.0758 19.0189 87.9659 19.1932C87.8561 19.3636 87.714 19.5 87.5398 19.6023C87.3693 19.7045 87.1818 19.7557 86.9773 19.7557Z" fill="#FFF2F2" fill-opacity="0.96"/>
</svg>
