<svg width="45" height="48" viewBox="0 0 45 48" fill="none" xmlns="http://www.w3.org/2000/svg">
<g clip-path="url(#clip0_10_64)">
<path d="M-3 0H37C41.4183 0 45 3.58172 45 8V40C45 44.4183 41.4183 48 37 48H-3V0Z" fill="#09FBEC"/>
<path d="M5.352 33.742C5.604 33.3033 5.97733 32.9393 6.472 32.65C6.976 32.3513 7.5593 32.202 8.222 32.202C8.9033 32.202 9.5193 32.3653 10.07 32.692C10.63 33.0187 11.0687 33.4807 11.386 34.078C11.7033 34.666 11.862 35.352 11.862 36.136C11.862 36.9107 11.7033 37.6013 11.386 38.208C11.0687 38.8147 10.63 39.286 10.07 39.622C9.5193 39.958 8.9033 40.126 8.222 40.126C7.5687 40.126 6.99 39.9813 6.486 39.692C5.99133 39.3933 5.61333 39.0247 5.352 38.586V43.64H4.078V32.328H5.352V33.742ZM10.56 36.136C10.56 35.5573 10.4433 35.0533 10.21 34.624C9.9767 34.1947 9.6593 33.868 9.258 33.644C8.866 33.42 8.432 33.308 7.956 33.308C7.4893 33.308 7.0553 33.4247 6.654 33.658C6.262 33.882 5.94467 34.2133 5.702 34.652C5.46867 35.0813 5.352 35.5807 5.352 36.15C5.352 36.7287 5.46867 37.2373 5.702 37.676C5.94467 38.1053 6.262 38.4367 6.654 38.67C7.0553 38.894 7.4893 39.006 7.956 39.006C8.432 39.006 8.866 38.894 9.258 38.67C9.6593 38.4367 9.9767 38.1053 10.21 37.676C10.4433 37.2373 10.56 36.724 10.56 36.136ZM14.8129 33.574C15.0369 33.1353 15.3543 32.7947 15.7649 32.552C16.1849 32.3093 16.6936 32.188 17.2909 32.188V33.504H16.9549C15.5269 33.504 14.8129 34.2787 14.8129 35.828V40H13.5389V32.328H14.8129V33.574ZM25.7616 35.87C25.7616 36.1127 25.7476 36.3693 25.7196 36.64H19.5876C19.6343 37.396 19.8909 37.9887 20.3576 38.418C20.8336 38.838 21.4076 39.048 22.0796 39.048C22.6303 39.048 23.0876 38.922 23.4516 38.67C23.8249 38.4087 24.0863 38.0633 24.2356 37.634H25.6076C25.4023 38.3713 24.9916 38.9733 24.3756 39.44C23.7596 39.8973 22.9943 40.126 22.0796 40.126C21.3516 40.126 20.6983 39.9627 20.1196 39.636C19.5503 39.3093 19.1023 38.8473 18.7756 38.25C18.4489 37.6433 18.2856 36.9433 18.2856 36.15C18.2856 35.3567 18.4443 34.6613 18.7616 34.064C19.0789 33.4667 19.5223 33.0093 20.0916 32.692C20.6703 32.3653 21.3329 32.202 22.0796 32.202C22.8076 32.202 23.4516 32.3607 24.0116 32.678C24.5716 32.9953 25.0009 33.434 25.2996 33.994C25.6076 34.5447 25.7616 35.17 25.7616 35.87ZM24.4456 35.604C24.4456 35.1187 24.3383 34.7033 24.1236 34.358C23.9089 34.0033 23.6149 33.7373 23.2416 33.56C22.8776 33.3733 22.4716 33.28 22.0236 33.28C21.3796 33.28 20.8289 33.4853 20.3716 33.896C19.9236 34.3067 19.6669 34.876 19.6016 35.604H24.4456ZM30.2992 38.824L32.6792 32.328H34.0372L31.0272 40H29.5432L26.5332 32.328H27.9052L30.2992 38.824Z" fill="#4F6D7A"/>
<path d="M18 21L15 18M15 18L18 15M15 18H23M10 18C10 16.8181 10.2328 15.6478 10.6851 14.5558C11.1374 13.4639 11.8003 12.4718 12.636 11.636C13.4718 10.8003 14.4639 10.1374 15.5558 9.68508C16.6478 9.23279 17.8181 9 19 9C20.1819 9 21.3522 9.23279 22.4442 9.68508C23.5361 10.1374 24.5282 10.8003 25.364 11.636C26.1997 12.4718 26.8626 13.4639 27.3149 14.5558C27.7672 15.6478 28 16.8181 28 18C28 20.3869 27.0518 22.6761 25.364 24.364C23.6761 26.0518 21.3869 27 19 27C16.6131 27 14.3239 26.0518 12.636 24.364C10.9482 22.6761 10 20.3869 10 18Z" stroke="#4F6D7A" stroke-width="2" stroke-linecap="round" stroke-linejoin="round"/>
</g>
<defs>
<clipPath id="clip0_10_64">
<rect width="48" height="48" fill="white" transform="translate(-3)"/>
</clipPath>
</defs>
</svg>
