<svg width="61" height="66" viewBox="0 0 61 66" fill="none" xmlns="http://www.w3.org/2000/svg">
<rect width="61" height="66" rx="10" fill="#09FBEC"/>
<path d="M33.478 20.4L34.1724 19.1848C33.9595 19.0632 33.7184 18.9996 33.4733 19.0005C33.2281 19.0013 32.9875 19.0665 32.7754 19.1895C32.5633 19.3126 32.3873 19.4891 32.2649 19.7016C32.1425 19.914 32.0781 20.1548 32.078 20.4H33.478ZM33.478 31.6H32.078C32.0781 31.8452 32.1425 32.086 32.2649 32.2984C32.3873 32.5109 32.5633 32.6874 32.7754 32.8105C32.9875 32.9335 33.2281 32.9987 33.4733 32.9995C33.7184 33.0004 33.9595 32.9368 34.1724 32.8152L33.478 31.6ZM43.278 26L43.9724 27.2152C44.1865 27.0927 44.3645 26.9158 44.4883 26.7024C44.612 26.489 44.6772 26.2467 44.6772 26C44.6772 25.7533 44.612 25.511 44.4883 25.2976C44.3645 25.0842 44.1865 24.9073 43.9724 24.7848L43.278 26ZM22.278 20.4L22.9724 19.1848C22.7595 19.0632 22.5184 18.9996 22.2733 19.0005C22.0281 19.0013 21.7875 19.0665 21.5754 19.1895C21.3633 19.3126 21.1873 19.4891 21.0649 19.7016C20.9425 19.914 20.8781 20.1548 20.878 20.4H22.278ZM22.278 31.6H20.878C20.8781 31.8452 20.9425 32.086 21.0649 32.2984C21.1873 32.5109 21.3633 32.6874 21.5754 32.8105C21.7875 32.9335 22.0281 32.9987 22.2733 32.9995C22.5184 33.0004 22.7595 32.9368 22.9724 32.8152L22.278 31.6ZM32.078 26L32.7724 27.2152C32.9865 27.0927 33.1645 26.9158 33.2883 26.7024C33.412 26.489 33.4772 26.2467 33.4772 26C33.4772 25.7533 33.412 25.511 33.2883 25.2976C33.1645 25.0842 32.9865 24.9073 32.7724 24.7848L32.078 26ZM30.678 44.2C25.8511 44.2 21.2218 42.2825 17.8087 38.8693C14.3955 35.4562 12.478 30.8269 12.478 26H9.67801C9.67801 31.5695 11.8905 36.911 15.8288 40.8492C19.767 44.7875 25.1085 47 30.678 47V44.2ZM48.878 26C48.878 28.3901 48.4072 30.7567 47.4926 32.9648C46.578 35.173 45.2374 37.1793 43.5473 38.8693C41.8573 40.5594 39.851 41.9 37.6428 42.8146C35.4347 43.7292 33.0681 44.2 30.678 44.2V47C36.2475 47 41.589 44.7875 45.5272 40.8492C49.4655 36.911 51.678 31.5695 51.678 26H48.878ZM30.678 7.8C33.0681 7.8 35.4347 8.27076 37.6428 9.18539C39.851 10.1 41.8573 11.4406 43.5473 13.1307C45.2374 14.8207 46.578 16.827 47.4926 19.0352C48.4072 21.2433 48.878 23.6099 48.878 26H51.678C51.678 20.4305 49.4655 15.089 45.5272 11.1508C41.589 7.21249 36.2475 5 30.678 5V7.8ZM30.678 5C25.1085 5 19.767 7.21249 15.8288 11.1508C11.8905 15.089 9.67801 20.4305 9.67801 26H12.478C12.478 21.1731 14.3955 16.5438 17.8087 13.1307C21.2218 9.71749 25.8511 7.8 30.678 7.8V5ZM32.078 20.4V31.6H34.878V20.4H32.078ZM34.1724 32.8152L43.9724 27.2152L42.5836 24.7848L32.7836 30.3848L34.1724 32.8152ZM43.9724 24.7848L34.1724 19.1848L32.7836 21.6152L42.5836 27.2152L43.9724 24.7848ZM20.878 20.4V31.6H23.678V20.4H20.878ZM22.9724 32.8152L32.7724 27.2152L31.3836 24.7848L21.5836 30.3848L22.9724 32.8152ZM32.7724 24.7848L22.9724 19.1848L21.5836 21.6152L31.3836 27.2152L32.7724 24.7848Z" fill="#3396C0"/>
<path d="M6.878 53.378H5.268V60H3.994V53.378H3V52.328H3.994V51.782C3.994 50.9233 4.21333 50.298 4.652 49.906C5.1 49.5047 5.814 49.304 6.794 49.304V50.368C6.234 50.368 5.83733 50.48 5.604 50.704C5.38 50.9187 5.268 51.278 5.268 51.782V52.328H6.878V53.378ZM11.7094 60.126C10.9908 60.126 10.3374 59.9627 9.7494 59.636C9.1708 59.3093 8.7134 58.8473 8.37742 58.25C8.05076 57.6433 7.88742 56.9433 7.88742 56.15C7.88742 55.366 8.05542 54.6753 8.39142 54.078C8.7368 53.4713 9.2034 53.0093 9.7914 52.692C10.3794 52.3653 11.0374 52.202 11.7654 52.202C12.4934 52.202 13.1514 52.3653 13.7394 52.692C14.3274 53.0093 14.7894 53.4667 15.1254 54.064C15.4708 54.6613 15.6434 55.3567 15.6434 56.15C15.6434 56.9433 15.4661 57.6433 15.1114 58.25C14.7661 58.8473 14.2948 59.3093 13.6974 59.636C13.1001 59.9627 12.4374 60.126 11.7094 60.126ZM11.7094 59.006C12.1668 59.006 12.5961 58.8987 12.9974 58.684C13.3988 58.4693 13.7208 58.1473 13.9634 57.718C14.2154 57.2887 14.3414 56.766 14.3414 56.15C14.3414 55.534 14.2201 55.0113 13.9774 54.582C13.7348 54.1527 13.4174 53.8353 13.0254 53.63C12.6334 53.4153 12.2088 53.308 11.7514 53.308C11.2848 53.308 10.8554 53.4153 10.4634 53.63C10.0808 53.8353 9.7728 54.1527 9.5394 54.582C9.3061 55.0113 9.1894 55.534 9.1894 56.15C9.1894 56.7753 9.3014 57.3027 9.5254 57.732C9.7588 58.1613 10.0668 58.4833 10.4494 58.698C10.8321 58.9033 11.2521 59.006 11.7094 59.006ZM18.5925 53.574C18.8165 53.1353 19.1338 52.7947 19.5445 52.552C19.9645 52.3093 20.4732 52.188 21.0705 52.188V53.504H20.7345C19.3065 53.504 18.5925 54.2787 18.5925 55.828V60H17.3185V52.328H18.5925V53.574ZM32.7612 52.328L30.3672 60H29.0512L27.2032 53.91L25.3552 60H24.0392L21.6312 52.328H22.9332L24.6972 58.768L26.6012 52.328H27.9032L29.7652 58.782L31.5012 52.328H32.7612ZM33.5495 56.136C33.5495 55.352 33.7082 54.666 34.0255 54.078C34.3429 53.4807 34.7769 53.0187 35.3275 52.692C35.8875 52.3653 36.5082 52.202 37.1895 52.202C37.8615 52.202 38.4449 52.3467 38.9395 52.636C39.4342 52.9253 39.8029 53.2893 40.0455 53.728V52.328H41.3335V60H40.0455V58.572C39.7935 59.02 39.4155 59.3933 38.9115 59.692C38.4169 59.9813 37.8382 60.126 37.1755 60.126C36.4942 60.126 35.8782 59.958 35.3275 59.622C34.7769 59.286 34.3429 58.8147 34.0255 58.208C33.7082 57.6013 33.5495 56.9107 33.5495 56.136ZM40.0455 56.15C40.0455 55.5713 39.9289 55.0673 39.6955 54.638C39.4622 54.2087 39.1449 53.882 38.7435 53.658C38.3515 53.4247 37.9175 53.308 37.4415 53.308C36.9655 53.308 36.5315 53.42 36.1395 53.644C35.7475 53.868 35.4349 54.1947 35.2015 54.624C34.9682 55.0533 34.8515 55.5573 34.8515 56.136C34.8515 56.724 34.9682 57.2373 35.2015 57.676C35.4349 58.1053 35.7475 58.4367 36.1395 58.67C36.5315 58.894 36.9655 59.006 37.4415 59.006C37.9175 59.006 38.3515 58.894 38.7435 58.67C39.1449 58.4367 39.4622 58.1053 39.6955 57.676C39.9289 57.2373 40.0455 56.7287 40.0455 56.15ZM44.7605 53.574C44.9845 53.1353 45.3018 52.7947 45.7125 52.552C46.1325 52.3093 46.6411 52.188 47.2385 52.188V53.504H46.9025C45.4745 53.504 44.7605 54.2787 44.7605 55.828V60H43.4865V52.328H44.7605V53.574ZM48.2331 56.136C48.2331 55.352 48.3918 54.666 48.7091 54.078C49.0265 53.4807 49.4605 53.0187 50.0111 52.692C50.5711 52.3653 51.1965 52.202 51.8871 52.202C52.4845 52.202 53.0398 52.342 53.5531 52.622C54.0665 52.8927 54.4585 53.252 54.7291 53.7V49.64H56.0171V60H54.7291V58.558C54.4771 59.0153 54.1038 59.3933 53.6091 59.692C53.1145 59.9813 52.5358 60.126 51.8731 60.126C51.1918 60.126 50.5711 59.958 50.0111 59.622C49.4605 59.286 49.0265 58.8147 48.7091 58.208C48.3918 57.6013 48.2331 56.9107 48.2331 56.136ZM54.7291 56.15C54.7291 55.5713 54.6125 55.0673 54.3791 54.638C54.1458 54.2087 53.8285 53.882 53.4271 53.658C53.0351 53.4247 52.6011 53.308 52.1251 53.308C51.6491 53.308 51.2151 53.42 50.8231 53.644C50.4311 53.868 50.1185 54.1947 49.8851 54.624C49.6518 55.0533 49.5351 55.5573 49.5351 56.136C49.5351 56.724 49.6518 57.2373 49.8851 57.676C50.1185 58.1053 50.4311 58.4367 50.8231 58.67C51.2151 58.894 51.6491 59.006 52.1251 59.006C52.6011 59.006 53.0351 58.894 53.4271 58.67C53.8285 58.4367 54.1458 58.1053 54.3791 57.676C54.6125 57.2373 54.7291 56.7287 54.7291 56.15Z" fill="#3396C0"/>
</svg>
