<svg width="61" height="66" viewBox="0 0 61 66" fill="none" xmlns="http://www.w3.org/2000/svg">
<rect width="61" height="66" rx="10" fill="#353030" fill-opacity="0.54"/>
<path d="M26.424 61.126C25.7053 61.126 25.052 60.9627 24.464 60.636C23.8853 60.3093 23.428 59.8473 23.092 59.25C22.7653 58.6433 22.602 57.9433 22.602 57.15C22.602 56.366 22.77 55.6753 23.106 55.078C23.4513 54.4713 23.918 54.0093 24.506 53.692C25.094 53.3653 25.752 53.202 26.48 53.202C27.208 53.202 27.866 53.3653 28.454 53.692C29.042 54.0093 29.504 54.4667 29.84 55.064C30.1853 55.6613 30.358 56.3567 30.358 57.15C30.358 57.9433 30.1807 58.6433 29.826 59.25C29.4807 59.8473 29.0093 60.3093 28.412 60.636C27.8147 60.9627 27.152 61.126 26.424 61.126ZM26.424 60.006C26.8813 60.006 27.3107 59.8987 27.712 59.684C28.1133 59.4693 28.4353 59.1473 28.678 58.718C28.93 58.2887 29.056 57.766 29.056 57.15C29.056 56.534 28.9347 56.0113 28.692 55.582C28.4493 55.1527 28.132 54.8353 27.74 54.63C27.348 54.4153 26.9233 54.308 26.466 54.308C25.9993 54.308 25.57 54.4153 25.178 54.63C24.7953 54.8353 24.4873 55.1527 24.254 55.582C24.0207 56.0113 23.904 56.534 23.904 57.15C23.904 57.7753 24.016 58.3027 24.24 58.732C24.4733 59.1613 24.7813 59.4833 25.164 59.698C25.5467 59.9033 25.9667 60.006 26.424 60.006ZM35.1551 54.378H33.5451V61H32.2711V54.378H31.2771V53.328H32.2711V52.782C32.2711 51.9233 32.4904 51.298 32.9291 50.906C33.3771 50.5047 34.0911 50.304 35.0711 50.304V51.368C34.5111 51.368 34.1144 51.48 33.8811 51.704C33.6571 51.9187 33.5451 52.278 33.5451 52.782V53.328H35.1551V54.378ZM39.7625 54.378H38.1525V61H36.8785V54.378H35.8845V53.328H36.8785V52.782C36.8785 51.9233 37.0978 51.298 37.5365 50.906C37.9845 50.5047 38.6985 50.304 39.6785 50.304V51.368C39.1185 51.368 38.7218 51.48 38.4885 51.704C38.2645 51.9187 38.1525 52.278 38.1525 52.782V53.328H39.7625V54.378Z" fill="white"/>
<path d="M31 46C42.0457 46 51 37.0457 51 26C51 14.9543 42.0457 6 31 6C19.9543 6 11 14.9543 11 26C11 37.0457 19.9543 46 31 46Z" stroke="white" stroke-width="3" stroke-linecap="round" stroke-linejoin="round"/>
<path d="M25 20H37V32H25V20Z" stroke="white" stroke-width="3" stroke-linecap="round" stroke-linejoin="round"/>
</svg>
