<svg width="61" height="66" viewBox="0 0 61 66" fill="none" xmlns="http://www.w3.org/2000/svg">
<rect width="61" height="66" rx="10" fill="#353030" fill-opacity="0.54"/>
<path d="M7.274 53.574C7.498 53.1353 7.81533 52.7947 8.226 52.552C8.646 52.3093 9.15467 52.188 9.752 52.188V53.504H9.416C7.988 53.504 7.274 54.2787 7.274 55.828V60H6V52.328H7.274V53.574ZM18.2227 55.87C18.2227 56.1127 18.2087 56.3693 18.1807 56.64H12.0487C12.0953 57.396 12.352 57.9887 12.8187 58.418C13.2947 58.838 13.8687 59.048 14.5407 59.048C15.0913 59.048 15.5487 58.922 15.9127 58.67C16.286 58.4087 16.5473 58.0633 16.6967 57.634H18.0687C17.8633 58.3713 17.4527 58.9733 16.8367 59.44C16.2207 59.8973 15.4553 60.126 14.5407 60.126C13.8127 60.126 13.1593 59.9627 12.5807 59.636C12.0113 59.3093 11.5633 58.8473 11.2367 58.25C10.91 57.6433 10.7467 56.9433 10.7467 56.15C10.7467 55.3567 10.9053 54.6613 11.2227 54.064C11.54 53.4667 11.9833 53.0093 12.5527 52.692C13.1313 52.3653 13.794 52.202 14.5407 52.202C15.2687 52.202 15.9127 52.3607 16.4727 52.678C17.0327 52.9953 17.462 53.434 17.7607 53.994C18.0687 54.5447 18.2227 55.17 18.2227 55.87ZM16.9067 55.604C16.9067 55.1187 16.7993 54.7033 16.5847 54.358C16.37 54.0033 16.076 53.7373 15.7027 53.56C15.3387 53.3733 14.9327 53.28 14.4847 53.28C13.8407 53.28 13.29 53.4853 12.8327 53.896C12.3847 54.3067 12.128 54.876 12.0627 55.604H16.9067ZM22.7603 58.824L25.1403 52.328H26.4983L23.4883 60H22.0043L18.9943 52.328H20.3663L22.7603 58.824ZM34.752 55.87C34.752 56.1127 34.738 56.3693 34.71 56.64H28.578C28.6246 57.396 28.8813 57.9887 29.348 58.418C29.824 58.838 30.398 59.048 31.07 59.048C31.6206 59.048 32.078 58.922 32.442 58.67C32.8153 58.4087 33.0766 58.0633 33.226 57.634H34.598C34.3926 58.3713 33.982 58.9733 33.366 59.44C32.75 59.8973 31.9846 60.126 31.07 60.126C30.342 60.126 29.6886 59.9627 29.11 59.636C28.5406 59.3093 28.0926 58.8473 27.766 58.25C27.4393 57.6433 27.276 56.9433 27.276 56.15C27.276 55.3567 27.4346 54.6613 27.752 54.064C28.0693 53.4667 28.5126 53.0093 29.082 52.692C29.6606 52.3653 30.3233 52.202 31.07 52.202C31.798 52.202 32.442 52.3607 33.002 52.678C33.562 52.9953 33.9913 53.434 34.29 53.994C34.598 54.5447 34.752 55.17 34.752 55.87ZM33.436 55.604C33.436 55.1187 33.3286 54.7033 33.114 54.358C32.8993 54.0033 32.6053 53.7373 32.232 53.56C31.868 53.3733 31.462 53.28 31.014 53.28C30.37 53.28 29.8193 53.4853 29.362 53.896C28.914 54.3067 28.6573 54.876 28.592 55.604H33.436ZM37.7076 53.574C37.9316 53.1353 38.2489 52.7947 38.6596 52.552C39.0796 52.3093 39.5883 52.188 40.1856 52.188V53.504H39.8496C38.4216 53.504 37.7076 54.2787 37.7076 55.828V60H36.4336V52.328H37.7076V53.574ZM44.3723 60.126C43.7843 60.126 43.2569 60.028 42.7903 59.832C42.3236 59.6267 41.9549 59.3467 41.6843 58.992C41.4136 58.628 41.2643 58.2127 41.2363 57.746H42.5523C42.5896 58.1287 42.7669 58.4413 43.0843 58.684C43.4109 58.9267 43.8356 59.048 44.3583 59.048C44.8436 59.048 45.2263 58.9407 45.5063 58.726C45.7863 58.5113 45.9263 58.2407 45.9263 57.914C45.9263 57.578 45.7769 57.3307 45.4783 57.172C45.1796 57.004 44.7176 56.8407 44.0923 56.682C43.5229 56.5327 43.0563 56.3833 42.6923 56.234C42.3376 56.0753 42.0296 55.8467 41.7683 55.548C41.5163 55.24 41.3903 54.8387 41.3903 54.344C41.3903 53.952 41.5069 53.5927 41.7403 53.266C41.9736 52.9393 42.3049 52.6827 42.7343 52.496C43.1636 52.3 43.6536 52.202 44.2043 52.202C45.0536 52.202 45.7396 52.4167 46.2623 52.846C46.7849 53.2753 47.0649 53.8633 47.1023 54.61H45.8283C45.8003 54.2087 45.6369 53.8867 45.3383 53.644C45.0489 53.4013 44.6569 53.28 44.1623 53.28C43.7049 53.28 43.3409 53.378 43.0703 53.574C42.7996 53.77 42.6643 54.0267 42.6643 54.344C42.6643 54.596 42.7436 54.806 42.9023 54.974C43.0703 55.1327 43.2756 55.2633 43.5183 55.366C43.7703 55.4593 44.1156 55.5667 44.5543 55.688C45.1049 55.8373 45.5529 55.9867 45.8983 56.136C46.2436 56.276 46.5376 56.4907 46.7803 56.78C47.0323 57.0693 47.1629 57.4473 47.1723 57.914C47.1723 58.334 47.0556 58.712 46.8223 59.048C46.5889 59.384 46.2576 59.65 45.8283 59.846C45.4083 60.0327 44.9229 60.126 44.3723 60.126ZM55.9707 55.87C55.9707 56.1127 55.9567 56.3693 55.9287 56.64H49.7967C49.8434 57.396 50.1 57.9887 50.5667 58.418C51.0427 58.838 51.6167 59.048 52.2887 59.048C52.8394 59.048 53.2967 58.922 53.6607 58.67C54.034 58.4087 54.2954 58.0633 54.4447 57.634H55.8167C55.6114 58.3713 55.2007 58.9733 54.5847 59.44C53.9687 59.8973 53.2034 60.126 52.2887 60.126C51.5607 60.126 50.9074 59.9627 50.3287 59.636C49.7594 59.3093 49.3114 58.8473 48.9847 58.25C48.658 57.6433 48.4947 56.9433 48.4947 56.15C48.4947 55.3567 48.6534 54.6613 48.9707 54.064C49.288 53.4667 49.7314 53.0093 50.3007 52.692C50.8794 52.3653 51.542 52.202 52.2887 52.202C53.0167 52.202 53.6607 52.3607 54.2207 52.678C54.7807 52.9953 55.21 53.434 55.5087 53.994C55.8167 54.5447 55.9707 55.17 55.9707 55.87ZM54.6547 55.604C54.6547 55.1187 54.5474 54.7033 54.3327 54.358C54.118 54.0033 53.824 53.7373 53.4507 53.56C53.0867 53.3733 52.6807 53.28 52.2327 53.28C51.5887 53.28 51.038 53.4853 50.5807 53.896C50.1327 54.3067 49.876 54.876 49.8107 55.604H54.6547Z" fill="white"/>
<path d="M28.122 20.4L27.4276 19.1848C27.6405 19.0632 27.8816 18.9996 28.1267 19.0005C28.3719 19.0013 28.6125 19.0665 28.8246 19.1895C29.0367 19.3126 29.2127 19.4891 29.3351 19.7016C29.4575 19.914 29.5219 20.1548 29.522 20.4H28.122ZM28.122 31.6H29.522C29.5219 31.8452 29.4575 32.086 29.3351 32.2984C29.2127 32.5109 29.0367 32.6874 28.8246 32.8105C28.6125 32.9335 28.3719 32.9987 28.1267 32.9995C27.8816 33.0004 27.6405 32.9368 27.4276 32.8152L28.122 31.6ZM18.322 26L17.6276 27.2152C17.4135 27.0927 17.2355 26.9158 17.1117 26.7024C16.988 26.489 16.9228 26.2467 16.9228 26C16.9228 25.7533 16.988 25.511 17.1117 25.2976C17.2355 25.0842 17.4135 24.9073 17.6276 24.7848L18.322 26ZM39.322 20.4L38.6276 19.1848C38.8405 19.0632 39.0816 18.9996 39.3267 19.0005C39.5719 19.0013 39.8125 19.0665 40.0246 19.1895C40.2367 19.3126 40.4127 19.4891 40.5351 19.7016C40.6575 19.914 40.7219 20.1548 40.722 20.4H39.322ZM39.322 31.6H40.722C40.7219 31.8452 40.6575 32.086 40.5351 32.2984C40.4127 32.5109 40.2367 32.6874 40.0246 32.8105C39.8125 32.9335 39.5719 32.9987 39.3267 32.9995C39.0816 33.0004 38.8405 32.9368 38.6276 32.8152L39.322 31.6ZM29.522 26L28.8276 27.2152C28.6135 27.0927 28.4355 26.9158 28.3117 26.7024C28.188 26.489 28.1228 26.2467 28.1228 26C28.1228 25.7533 28.188 25.511 28.3117 25.2976C28.4355 25.0842 28.6135 24.9073 28.8276 24.7848L29.522 26ZM30.922 44.2C35.7489 44.2 40.3782 42.2825 43.7913 38.8693C47.2045 35.4562 49.122 30.8269 49.122 26H51.922C51.922 31.5695 49.7095 36.911 45.7712 40.8492C41.833 44.7875 36.4915 47 30.922 47V44.2ZM12.722 26C12.722 28.3901 13.1928 30.7567 14.1074 32.9648C15.022 35.173 16.3626 37.1793 18.0527 38.8693C19.7427 40.5594 21.749 41.9 23.9572 42.8146C26.1653 43.7292 28.5319 44.2 30.922 44.2V47C25.3525 47 20.011 44.7875 16.0728 40.8492C12.1345 36.911 9.922 31.5695 9.922 26H12.722ZM30.922 7.8C28.5319 7.8 26.1653 8.27076 23.9572 9.18539C21.749 10.1 19.7427 11.4406 18.0527 13.1307C16.3626 14.8207 15.022 16.827 14.1074 19.0352C13.1928 21.2433 12.722 23.6099 12.722 26H9.922C9.922 20.4305 12.1345 15.089 16.0728 11.1508C20.011 7.21249 25.3525 5 30.922 5V7.8ZM30.922 5C36.4915 5 41.833 7.21249 45.7712 11.1508C49.7095 15.089 51.922 20.4305 51.922 26H49.122C49.122 21.1731 47.2045 16.5438 43.7913 13.1307C40.3782 9.71749 35.7489 7.8 30.922 7.8V5ZM29.522 20.4V31.6H26.722V20.4H29.522ZM27.4276 32.8152L17.6276 27.2152L19.0164 24.7848L28.8164 30.3848L27.4276 32.8152ZM17.6276 24.7848L27.4276 19.1848L28.8164 21.6152L19.0164 27.2152L17.6276 24.7848ZM40.722 20.4V31.6H37.922V20.4H40.722ZM38.6276 32.8152L28.8276 27.2152L30.2164 24.7848L40.0164 30.3848L38.6276 32.8152ZM28.8276 24.7848L38.6276 19.1848L40.0164 21.6152L30.2164 27.2152L28.8276 24.7848Z" fill="white"/>
</svg>
