<svg width="61" height="66" viewBox="0 0 61 66" fill="none" xmlns="http://www.w3.org/2000/svg">
<rect width="61" height="66" rx="10" fill="#353030" fill-opacity="0.54"/>
<path d="M19.794 62.126C19.206 62.126 18.6787 62.028 18.212 61.832C17.7453 61.6267 17.3767 61.3467 17.106 60.992C16.8353 60.628 16.686 60.2127 16.658 59.746H17.974C18.0113 60.1287 18.1887 60.4413 18.506 60.684C18.8327 60.9267 19.2573 61.048 19.78 61.048C20.2653 61.048 20.648 60.9407 20.928 60.726C21.208 60.5113 21.348 60.2407 21.348 59.914C21.348 59.578 21.1987 59.3307 20.9 59.172C20.6013 59.004 20.1393 58.8407 19.514 58.682C18.9447 58.5327 18.478 58.3833 18.114 58.234C17.7593 58.0753 17.4513 57.8467 17.19 57.548C16.938 57.24 16.812 56.8387 16.812 56.344C16.812 55.952 16.9287 55.5927 17.162 55.266C17.3953 54.9393 17.7267 54.6827 18.156 54.496C18.5853 54.3 19.0753 54.202 19.626 54.202C20.4753 54.202 21.1613 54.4167 21.684 54.846C22.2067 55.2753 22.4867 55.8633 22.524 56.61H21.25C21.222 56.2087 21.0587 55.8867 20.76 55.644C20.4707 55.4013 20.0787 55.28 19.584 55.28C19.1267 55.28 18.7627 55.378 18.492 55.574C18.2213 55.77 18.086 56.0267 18.086 56.344C18.086 56.596 18.1653 56.806 18.324 56.974C18.492 57.1327 18.6973 57.2633 18.94 57.366C19.192 57.4593 19.5373 57.5667 19.976 57.688C20.5267 57.8373 20.9747 57.9867 21.32 58.136C21.6653 58.276 21.9593 58.4907 22.202 58.78C22.454 59.0693 22.5847 59.4473 22.594 59.914C22.594 60.334 22.4773 60.712 22.244 61.048C22.0107 61.384 21.6793 61.65 21.25 61.846C20.83 62.0327 20.3447 62.126 19.794 62.126ZM25.9465 55.378V59.9C25.9465 60.2733 26.0258 60.5393 26.1845 60.698C26.3431 60.8473 26.6185 60.922 27.0105 60.922H27.9485V62H26.8005C26.0911 62 25.5591 61.8367 25.2045 61.51C24.8498 61.1833 24.6725 60.6467 24.6725 59.9V55.378H23.6785V54.328H24.6725V52.396H25.9465V54.328H27.9485V55.378H25.9465ZM32.8381 62.126C32.1194 62.126 31.4661 61.9627 30.8781 61.636C30.2994 61.3093 29.8421 60.8473 29.5061 60.25C29.1794 59.6433 29.0161 58.9433 29.0161 58.15C29.0161 57.366 29.1841 56.6753 29.5201 56.078C29.8654 55.4713 30.3321 55.0093 30.9201 54.692C31.5081 54.3653 32.1661 54.202 32.8941 54.202C33.6221 54.202 34.2801 54.3653 34.8681 54.692C35.4561 55.0093 35.9181 55.4667 36.2541 56.064C36.5994 56.6613 36.7721 57.3567 36.7721 58.15C36.7721 58.9433 36.5947 59.6433 36.2401 60.25C35.8947 60.8473 35.4234 61.3093 34.8261 61.636C34.2287 61.9627 33.5661 62.126 32.8381 62.126ZM32.8381 61.006C33.2954 61.006 33.7247 60.8987 34.1261 60.684C34.5274 60.4693 34.8494 60.1473 35.0921 59.718C35.3441 59.2887 35.4701 58.766 35.4701 58.15C35.4701 57.534 35.3487 57.0113 35.1061 56.582C34.8634 56.1527 34.5461 55.8353 34.1541 55.63C33.7621 55.4153 33.3374 55.308 32.8801 55.308C32.4134 55.308 31.9841 55.4153 31.5921 55.63C31.2094 55.8353 30.9014 56.1527 30.6681 56.582C30.4347 57.0113 30.3181 57.534 30.3181 58.15C30.3181 58.7753 30.4301 59.3027 30.6541 59.732C30.8874 60.1613 31.1954 60.4833 31.5781 60.698C31.9607 60.9033 32.3807 61.006 32.8381 61.006ZM39.7211 55.742C39.9731 55.3033 40.3465 54.9393 40.8411 54.65C41.3451 54.3513 41.9285 54.202 42.5911 54.202C43.2725 54.202 43.8885 54.3653 44.4391 54.692C44.9991 55.0187 45.4378 55.4807 45.7551 56.078C46.0725 56.666 46.2311 57.352 46.2311 58.136C46.2311 58.9107 46.0725 59.6013 45.7551 60.208C45.4378 60.8147 44.9991 61.286 44.4391 61.622C43.8885 61.958 43.2725 62.126 42.5911 62.126C41.9378 62.126 41.3591 61.9813 40.8551 61.692C40.3605 61.3933 39.9825 61.0247 39.7211 60.586V65.64H38.4471V54.328H39.7211V55.742ZM44.9291 58.136C44.9291 57.5573 44.8125 57.0533 44.5791 56.624C44.3458 56.1947 44.0285 55.868 43.6271 55.644C43.2351 55.42 42.8011 55.308 42.3251 55.308C41.8585 55.308 41.4245 55.4247 41.0231 55.658C40.6311 55.882 40.3138 56.2133 40.0711 56.652C39.8378 57.0813 39.7211 57.5807 39.7211 58.15C39.7211 58.7287 39.8378 59.2373 40.0711 59.676C40.3138 60.1053 40.6311 60.4367 41.0231 60.67C41.4245 60.894 41.8585 61.006 42.3251 61.006C42.8011 61.006 43.2351 60.894 43.6271 60.67C44.0285 60.4367 44.3458 60.1053 44.5791 59.676C44.8125 59.2373 44.9291 58.724 44.9291 58.136Z" fill="white"/>
<path d="M27 33V21M35 33V21" stroke="white" stroke-width="3" stroke-linecap="round" stroke-linejoin="round"/>
<path d="M31 47C42.0457 47 51 38.0457 51 27C51 15.9543 42.0457 7 31 7C19.9543 7 11 15.9543 11 27C11 38.0457 19.9543 47 31 47Z" stroke="white" stroke-width="3" stroke-linecap="round" stroke-linejoin="round"/>
</svg>
