<svg width="61" height="66" viewBox="0 0 61 66" fill="none" xmlns="http://www.w3.org/2000/svg">
<rect width="61" height="66" rx="10" fill="#353030" fill-opacity="0.54"/>
<path d="M25.424 62.001C24.7053 62.001 24.052 61.8377 23.464 61.511C22.8853 61.1843 22.428 60.7223 22.092 60.125C21.7653 59.5183 21.602 58.8183 21.602 58.025C21.602 57.241 21.77 56.5503 22.106 55.953C22.4513 55.3463 22.918 54.8843 23.506 54.567C24.094 54.2403 24.752 54.077 25.48 54.077C26.208 54.077 26.866 54.2403 27.454 54.567C28.042 54.8843 28.504 55.3417 28.84 55.939C29.1853 56.5363 29.358 57.2317 29.358 58.025C29.358 58.8183 29.1807 59.5183 28.826 60.125C28.4807 60.7223 28.0093 61.1843 27.412 61.511C26.8147 61.8377 26.152 62.001 25.424 62.001ZM25.424 60.881C25.8813 60.881 26.3107 60.7737 26.712 60.559C27.1133 60.3443 27.4353 60.0223 27.678 59.593C27.93 59.1637 28.056 58.641 28.056 58.025C28.056 57.409 27.9347 56.8863 27.692 56.457C27.4493 56.0277 27.132 55.7103 26.74 55.505C26.348 55.2903 25.9233 55.183 25.466 55.183C24.9993 55.183 24.57 55.2903 24.178 55.505C23.7953 55.7103 23.4873 56.0277 23.254 56.457C23.0207 56.8863 22.904 57.409 22.904 58.025C22.904 58.6503 23.016 59.1777 23.24 59.607C23.4733 60.0363 23.7813 60.3583 24.164 60.573C24.5467 60.7783 24.9667 60.881 25.424 60.881ZM34.7711 54.063C35.7044 54.063 36.4604 54.3477 37.0391 54.917C37.6177 55.477 37.9071 56.289 37.9071 57.353V61.875H36.6471V57.535C36.6471 56.7697 36.4557 56.1863 36.0731 55.785C35.6904 55.3743 35.1677 55.169 34.5051 55.169C33.8331 55.169 33.2964 55.379 32.8951 55.799C32.5031 56.219 32.3071 56.8303 32.3071 57.633V61.875H31.0331V54.203H32.3071V55.295C32.5591 54.903 32.8997 54.5997 33.3291 54.385C33.7677 54.1703 34.2484 54.063 34.7711 54.063Z" fill="white"/>
<path d="M30 7C35.5695 7 40.911 9.21249 44.8492 13.1508C48.7875 17.089 51 22.4305 51 28C51 33.5695 48.7875 38.911 44.8492 42.8492C40.911 46.7875 35.5695 49 30 49C24.4305 49 19.089 46.7875 15.1508 42.8492C11.2125 38.911 9 33.5695 9 28C9 22.4305 11.2125 17.089 15.1508 13.1508C19.089 9.21249 24.4305 7 30 7ZM30 46C34.7739 46 39.3523 44.1036 42.7279 40.7279C46.1036 37.3523 48 32.7739 48 28C48 23.2261 46.1036 18.6477 42.7279 15.2721C39.3523 11.8964 34.7739 10 30 10C25.2261 10 20.6477 11.8964 17.2721 15.2721C13.8964 18.6477 12 23.2261 12 28C12 32.7739 13.8964 37.3523 17.2721 40.7279C20.6477 44.1036 25.2261 46 30 46ZM27.75 34.393L37.341 28L27.75 21.607V34.393ZM28.248 18.331L39.942 26.128C40.2502 26.3335 40.5028 26.6118 40.6776 26.9384C40.8523 27.265 40.9438 27.6296 40.9438 28C40.9438 28.3704 40.8523 28.735 40.6776 29.0616C40.5028 29.3882 40.2502 29.6665 39.942 29.872L28.248 37.669C27.9092 37.8949 27.5154 38.0246 27.1086 38.0442C26.7019 38.0639 26.2974 37.9728 25.9384 37.7806C25.5793 37.5885 25.2791 37.3025 25.0699 36.9531C24.8606 36.6038 24.75 36.2042 24.75 35.797V20.2C24.75 19.7928 24.8606 19.3932 25.0699 19.0439C25.2791 18.6945 25.5793 18.4085 25.9384 18.2164C26.2974 18.0242 26.7019 17.9331 27.1086 17.9528C27.5154 17.9724 27.9092 18.1021 28.248 18.328V18.331Z" fill="white"/>
</svg>
