<svg width="68" height="64" viewBox="0 0 68 64" fill="none" xmlns="http://www.w3.org/2000/svg">
<rect width="60" height="64" rx="12" fill="#22E6DA"/>
<path d="M23.597 35.7688C20.298 32.8052 18.3513 28.7458 18.1153 24.3386C17.8792 19.9313 19.3816 15.6872 22.3452 12.3882C24.3892 10.112 27.024 8.44666 29.957 7.5771C32.8901 6.70754 36.0067 6.66775 38.9611 7.46213C39.2655 7.54328 39.5393 7.71231 39.7483 7.94812C39.9573 8.18393 40.0922 8.47607 40.1362 8.78807C40.1802 9.10008 40.1313 9.41813 39.9956 9.70252C39.86 9.9869 39.6435 10.225 39.3734 10.3872C37.1134 11.7377 35.2656 13.6801 34.0294 16.0046C32.7932 18.3291 32.2158 20.9471 32.3595 23.5759C32.454 25.4721 32.9237 27.3306 33.7413 29.044C34.5589 30.7574 35.7083 32.2916 37.1228 33.5578C38.2025 34.5292 39.4224 35.3323 40.7415 35.9401C41.0275 36.0724 41.2681 36.2861 41.4334 36.5543C41.5987 36.8226 41.6813 37.1337 41.6709 37.4486C41.6605 37.7636 41.5575 38.0685 41.3749 38.3253C41.1922 38.5821 40.938 38.7793 40.6439 38.8925C37.7913 39.9978 34.6882 40.291 31.679 39.7396C28.6698 39.1882 25.8723 37.8138 23.597 35.7688V35.7688ZM37.2911 9.23529C34.8568 8.77895 32.3458 8.95857 30.0012 9.75677C27.6566 10.555 25.5577 11.9447 23.9075 13.7916C18.5804 19.7214 19.0706 28.8795 25.0004 34.2066C26.8384 35.8668 29.0737 37.0245 31.4902 37.5678C33.9066 38.1111 36.4224 38.0216 38.7941 37.3079C37.6894 36.698 36.6578 35.964 35.7194 35.1203C34.0991 33.6703 32.7825 31.9133 31.8459 29.951C30.9092 27.9887 30.371 25.8601 30.2626 23.6885C30.1096 20.8807 30.6746 18.0803 31.9043 15.5515C33.134 13.0227 34.9879 10.849 37.2908 9.23558L37.2911 9.23529Z" fill="black"/>
<path d="M19.2401 56.1705C18.5582 56.1705 17.9563 55.9982 17.4343 55.6538C16.9123 55.3058 16.5039 54.8157 16.2092 54.1836C15.9144 53.5479 15.767 52.7969 15.767 51.9304C15.767 51.071 15.9144 50.3253 16.2092 49.6932C16.5039 49.0611 16.9141 48.5728 17.4396 48.2283C17.9652 47.8839 18.5724 47.7116 19.2614 47.7116C19.794 47.7116 20.2148 47.8004 20.5238 47.978C20.8363 48.152 21.0742 48.3509 21.2376 48.5746C21.4045 48.7947 21.5341 48.9759 21.6264 49.1179H21.733V45.0909H22.9901V56H21.7756V54.7429H21.6264C21.5341 54.892 21.4027 55.0803 21.2322 55.3075C21.0618 55.5312 20.8185 55.7319 20.5025 55.9094C20.1864 56.0835 19.7656 56.1705 19.2401 56.1705ZM19.4105 55.0412C19.9148 55.0412 20.3409 54.9098 20.6889 54.647C21.0369 54.3807 21.3015 54.0131 21.4826 53.5444C21.6637 53.0721 21.7543 52.527 21.7543 51.9091C21.7543 51.2983 21.6655 50.7638 21.4879 50.3058C21.3104 49.8441 21.0476 49.4854 20.6996 49.2298C20.3516 48.9705 19.9219 48.8409 19.4105 48.8409C18.8778 48.8409 18.4339 48.9776 18.0788 49.2511C17.7273 49.521 17.4627 49.8885 17.2852 50.3537C17.1112 50.8153 17.0241 51.3338 17.0241 51.9091C17.0241 52.4915 17.1129 53.0206 17.2905 53.4964C17.4716 53.9687 17.7379 54.3452 18.0895 54.6257C18.4446 54.9027 18.8849 55.0412 19.4105 55.0412ZM27.8746 56.1918C27.3562 56.1918 26.8857 56.0941 26.4631 55.8988C26.0405 55.6999 25.7049 55.4141 25.4563 55.0412C25.2077 54.6648 25.0835 54.2102 25.0835 53.6776C25.0835 53.2088 25.1758 52.8288 25.3604 52.5376C25.5451 52.2429 25.7919 52.0121 26.1009 51.8452C26.4098 51.6783 26.7507 51.554 27.1236 51.4723C27.5 51.3871 27.8782 51.3196 28.2582 51.2699C28.7553 51.206 29.1584 51.158 29.4673 51.1261C29.7798 51.0906 30.0071 51.032 30.1491 50.9503C30.2947 50.8686 30.3675 50.7266 30.3675 50.5241V50.4815C30.3675 49.956 30.2237 49.5476 29.9361 49.2564C29.652 48.9652 29.2205 48.8196 28.6417 48.8196C28.0415 48.8196 27.571 48.951 27.2301 49.2138C26.8892 49.4766 26.6495 49.7571 26.511 50.0554L25.3178 49.6293C25.5309 49.1321 25.815 48.745 26.1701 48.468C26.5288 48.1875 26.9194 47.9922 27.342 47.8821C27.7681 47.7685 28.1871 47.7116 28.5991 47.7116C28.8619 47.7116 29.1637 47.7436 29.5046 47.8075C29.8491 47.8679 30.1811 47.994 30.5007 48.1857C30.8239 48.3775 31.092 48.6669 31.305 49.054C31.5181 49.4411 31.6246 49.9595 31.6246 50.6094V56H30.3675V54.892H30.3036C30.2184 55.0696 30.0763 55.2596 29.8775 55.462C29.6786 55.6644 29.4141 55.8366 29.0838 55.9787C28.7536 56.1207 28.3505 56.1918 27.8746 56.1918ZM28.0664 55.0625C28.5636 55.0625 28.9826 54.9648 29.3235 54.7695C29.668 54.5742 29.9272 54.3221 30.1012 54.0131C30.2788 53.7042 30.3675 53.3793 30.3675 53.0384V51.8878C30.3143 51.9517 30.1971 52.0103 30.016 52.0636C29.8384 52.1133 29.6325 52.1577 29.3981 52.1967C29.1673 52.2322 28.9418 52.2642 28.7216 52.2926C28.505 52.3175 28.3292 52.3388 28.1942 52.3565C27.8675 52.3991 27.5621 52.4684 27.2781 52.5643C26.9975 52.6566 26.7702 52.7969 26.5962 52.9851C26.4258 53.1697 26.3406 53.4219 26.3406 53.7415C26.3406 54.1783 26.5021 54.5085 26.8253 54.7322C27.152 54.9524 27.5657 55.0625 28.0664 55.0625ZM33.9191 56V47.8182H35.1336V49.054H35.2188C35.368 48.6491 35.6379 48.3207 36.0285 48.0685C36.4191 47.8164 36.8595 47.6903 37.3495 47.6903C37.4419 47.6903 37.5573 47.6921 37.6958 47.6957C37.8343 47.6992 37.939 47.7045 38.01 47.7116V48.9901C37.9674 48.9794 37.8698 48.9634 37.7171 48.9421C37.5679 48.9173 37.4099 48.9048 37.243 48.9048C36.8453 48.9048 36.4901 48.9883 36.1776 49.1552C35.8687 49.3185 35.6237 49.5458 35.4426 49.837C35.265 50.1246 35.1762 50.4531 35.1762 50.8224V56H33.9191ZM40.6721 53.017L40.6507 51.4616H40.9064L44.486 47.8182H46.0414L42.2275 51.6747H42.1209L40.6721 53.017ZM39.5002 56V45.0909H40.7573V56H39.5002ZM44.699 56L41.503 51.9517L42.3979 51.0781L46.2971 56H44.699Z" fill="black"/>
</svg>
