<svg width="172" height="67" viewBox="0 0 172 67" fill="none" xmlns="http://www.w3.org/2000/svg">
<rect width="172" height="67" rx="10" fill="#2BE6DA"/>
<path d="M30.9375 12H14.0625L9 17.4545L22.5 32L36 17.4545L30.9375 12ZM25.3687 24.5455L22.5 22.9091L19.6313 24.5455L20.1375 21.0909L17.775 18.5455L20.9813 18L22.5 14.9091L24.0187 18.1818L27.225 18.7273L24.8625 21.0909L25.3687 24.5455Z" fill="black" fill-opacity="0.58"/>
<path d="M50.5057 18.1477H48.767C48.7595 17.7689 48.6894 17.4356 48.5568 17.1477C48.4242 16.8561 48.2424 16.6117 48.0114 16.4148C47.7841 16.214 47.517 16.0625 47.2102 15.9602C46.9034 15.858 46.572 15.8068 46.2159 15.8068C45.5303 15.8068 44.8864 15.9811 44.2841 16.3295C43.6818 16.678 43.1686 17.1856 42.7443 17.8523C42.3201 18.5189 42.0284 19.3314 41.8693 20.2898C41.714 21.2216 41.733 22.0038 41.9261 22.6364C42.1193 23.2689 42.4451 23.7481 42.9034 24.0739C43.3655 24.3958 43.9205 24.5568 44.5682 24.5568C44.947 24.5568 45.3163 24.5076 45.6761 24.4091C46.0398 24.3068 46.3769 24.1572 46.6875 23.9602C46.9981 23.7633 47.2727 23.5227 47.5114 23.2386C47.7538 22.9508 47.9432 22.6212 48.0795 22.25H49.8409C49.6515 22.8258 49.3845 23.3523 49.0398 23.8295C48.6951 24.3068 48.2879 24.7197 47.8182 25.0682C47.3485 25.4167 46.8333 25.6856 46.2727 25.875C45.7121 26.0644 45.1193 26.1591 44.4943 26.1591C43.4678 26.1591 42.5928 25.9148 41.8693 25.4261C41.1496 24.9337 40.6326 24.233 40.3182 23.3239C40.0076 22.4148 39.9545 21.3314 40.1591 20.0739C40.3674 18.8504 40.7652 17.8011 41.3523 16.9261C41.9432 16.0473 42.6629 15.375 43.5114 14.9091C44.3636 14.4394 45.2841 14.2045 46.2727 14.2045C46.8977 14.2045 47.4697 14.2936 47.9886 14.4716C48.5076 14.6458 48.9545 14.9034 49.3295 15.2443C49.7083 15.5814 50 15.9943 50.2045 16.483C50.4091 16.9678 50.5095 17.5227 50.5057 18.1477ZM54.8963 26.1761C54.0668 26.1761 53.3736 25.9867 52.8168 25.608C52.2599 25.2254 51.8679 24.6913 51.6406 24.0057C51.4171 23.3163 51.3793 22.5152 51.527 21.6023C51.6709 20.7083 51.9607 19.928 52.3963 19.2614C52.8357 18.5947 53.3849 18.0777 54.044 17.7102C54.7069 17.3428 55.4437 17.1591 56.2543 17.1591C57.0838 17.1591 57.7751 17.3504 58.3281 17.733C58.8849 18.1155 59.277 18.6515 59.5043 19.3409C59.7315 20.0303 59.7713 20.8333 59.6236 21.75C59.4796 22.6364 59.1861 23.4129 58.7429 24.0795C58.3035 24.7424 57.7543 25.2576 57.0952 25.625C56.4361 25.9924 55.7031 26.1761 54.8963 26.1761ZM54.9929 24.75C55.5384 24.75 56.0137 24.6061 56.419 24.3182C56.8281 24.0303 57.1615 23.6477 57.419 23.1705C57.6766 22.6932 57.8527 22.1705 57.9474 21.6023C58.0346 21.053 58.0327 20.5511 57.9418 20.0966C57.8546 19.6383 57.6652 19.2708 57.3736 18.9943C57.0819 18.7178 56.6766 18.5795 56.1577 18.5795C55.6122 18.5795 55.133 18.7254 54.7202 19.017C54.3111 19.3049 53.9777 19.6894 53.7202 20.1705C53.4664 20.6515 53.294 21.1761 53.2031 21.7443C53.116 22.2898 53.116 22.7917 53.2031 23.25C53.2902 23.7045 53.4796 24.0682 53.7713 24.3409C54.063 24.6136 54.4702 24.75 54.9929 24.75ZM64.4517 14.3636L62.5199 26H60.821L62.7528 14.3636H64.4517ZM68.5213 26.1761C67.6918 26.1761 66.9986 25.9867 66.4418 25.608C65.8849 25.2254 65.4929 24.6913 65.2656 24.0057C65.0421 23.3163 65.0043 22.5152 65.152 21.6023C65.2959 20.7083 65.5857 19.928 66.0213 19.2614C66.4607 18.5947 67.0099 18.0777 67.669 17.7102C68.3319 17.3428 69.0687 17.1591 69.8793 17.1591C70.7088 17.1591 71.4001 17.3504 71.9531 17.733C72.5099 18.1155 72.902 18.6515 73.1293 19.3409C73.3565 20.0303 73.3963 20.8333 73.2486 21.75C73.1046 22.6364 72.8111 23.4129 72.3679 24.0795C71.9285 24.7424 71.3793 25.2576 70.7202 25.625C70.0611 25.9924 69.3281 26.1761 68.5213 26.1761ZM68.6179 24.75C69.1634 24.75 69.6387 24.6061 70.044 24.3182C70.4531 24.0303 70.7865 23.6477 71.044 23.1705C71.3016 22.6932 71.4777 22.1705 71.5724 21.6023C71.6596 21.053 71.6577 20.5511 71.5668 20.0966C71.4796 19.6383 71.2902 19.2708 70.9986 18.9943C70.7069 18.7178 70.3016 18.5795 69.7827 18.5795C69.2372 18.5795 68.758 18.7254 68.3452 19.017C67.9361 19.3049 67.6027 19.6894 67.3452 20.1705C67.0914 20.6515 66.919 21.1761 66.8281 21.7443C66.741 22.2898 66.741 22.7917 66.8281 23.25C66.9152 23.7045 67.1046 24.0682 67.3963 24.3409C67.688 24.6136 68.0952 24.75 68.6179 24.75ZM74.446 26L75.9006 17.2727H77.5426L77.3097 18.6591H77.4006C77.6354 18.1894 77.9782 17.8201 78.429 17.5511C78.8797 17.2784 79.3608 17.142 79.8722 17.142C79.982 17.142 80.107 17.1458 80.2472 17.1534C80.3873 17.1572 80.5009 17.1667 80.5881 17.1818L80.3153 18.8068C80.2509 18.7879 80.1335 18.767 79.9631 18.7443C79.7926 18.7178 79.6165 18.7045 79.4347 18.7045C79.0369 18.7045 78.6676 18.7898 78.3267 18.9602C77.9858 19.1269 77.6998 19.3598 77.4688 19.6591C77.2377 19.9545 77.0881 20.2917 77.0199 20.6705L76.1449 26H74.446ZM81.8793 26.108C81.5611 26.108 81.2959 25.9981 81.0838 25.7784C80.8755 25.5587 80.7732 25.2898 80.777 24.9716C80.7808 24.6572 80.8982 24.3939 81.1293 24.1818C81.3641 23.9659 81.6368 23.858 81.9474 23.858C82.258 23.858 82.5232 23.9678 82.7429 24.1875C82.9626 24.4072 83.0649 24.6686 83.0497 24.9716C83.0384 25.1837 82.9777 25.3769 82.8679 25.5511C82.7618 25.7216 82.6217 25.858 82.4474 25.9602C82.2732 26.0587 82.0838 26.108 81.8793 26.108ZM82.9304 19.7557C82.6122 19.7557 82.3471 19.6458 82.1349 19.4261C81.9266 19.2027 81.8243 18.9337 81.8281 18.6193C81.8319 18.3049 81.9493 18.0417 82.1804 17.8295C82.4152 17.6136 82.688 17.5057 82.9986 17.5057C83.3054 17.5057 83.5687 17.6155 83.7884 17.8352C84.0118 18.0511 84.116 18.3125 84.1009 18.6193C84.0895 18.8277 84.0289 19.0189 83.919 19.1932C83.8092 19.3636 83.6671 19.5 83.4929 19.6023C83.3224 19.7045 83.1349 19.7557 82.9304 19.7557Z" fill="black" fill-opacity="0.49"/>
</svg>
