<svg width="720" height="260" viewBox="0 0 720 260" fill="none" xmlns="http://www.w3.org/2000/svg">
<g clip-path="url(#clip0_14_33)">
<path d="M720 0H0V260H720V0Z" fill="url(#paint0_linear_14_33)"/>
<g opacity="0.4">
<path fill-rule="evenodd" clip-rule="evenodd" d="M110.194 36.9431C110.194 26.4811 118.675 18 129.137 18H224.174C234.636 18 243.117 26.4811 243.117 36.9431C243.117 38.8406 242.838 40.673 242.319 42.4013H262.702C273.164 42.4013 281.646 50.8825 281.646 61.3445C281.646 71.8065 273.164 80.2876 262.702 80.2876H257.391C258.533 82.7248 259.171 85.4451 259.171 88.3144C259.171 98.7764 250.689 107.258 240.227 107.258H233.482C233.311 117.571 224.897 125.88 214.542 125.88H188.342C192.018 129.335 194.314 134.242 194.314 139.686C194.314 140.446 194.27 141.196 194.182 141.933H259.492C269.954 141.933 278.435 150.414 278.435 160.876C278.435 171.338 269.954 179.819 259.492 179.819H236.215C238.535 182.963 239.906 186.85 239.906 191.057C239.906 201.519 231.425 210 220.963 210H131.706C121.244 210 112.763 201.519 112.763 191.057C112.763 186.85 114.134 182.963 116.454 179.819H46.9432C36.4812 179.819 28 171.338 28 160.876C28 150.414 36.4811 141.933 46.9431 141.933H67.3025C67.2154 141.196 67.1706 140.446 67.1706 139.686C67.1706 134.242 69.4666 129.335 73.1431 125.88H61.7124C51.2504 125.88 42.7693 117.398 42.7693 106.936C42.7693 96.4744 51.2504 87.9933 61.7124 87.9933H97.3538C97.3996 85.2422 98.0318 82.6337 99.1308 80.2876H98.3144C87.8524 80.2876 79.3713 71.8065 79.3713 61.3445C79.3713 50.8825 87.8524 42.4013 98.3144 42.4013H110.992C110.473 40.673 110.194 38.8406 110.194 36.9431Z" fill="#E3E0E0"/>
<path fill-rule="evenodd" clip-rule="evenodd" d="M110.194 36.9431C110.194 26.4811 118.675 18 129.137 18H224.174C234.636 18 243.117 26.4811 243.117 36.9431C243.117 38.8406 242.838 40.673 242.319 42.4013H262.702C273.164 42.4013 281.646 50.8825 281.646 61.3445C281.646 71.8065 273.164 80.2876 262.702 80.2876H257.391C258.533 82.7248 259.171 85.4451 259.171 88.3144C259.171 98.7764 250.689 107.258 240.227 107.258H233.482C233.311 117.571 224.897 125.88 214.542 125.88H188.342C192.018 129.335 194.314 134.242 194.314 139.686C194.314 140.446 194.27 141.196 194.182 141.933H259.492C269.954 141.933 278.435 150.414 278.435 160.876C278.435 171.338 269.954 179.819 259.492 179.819H236.215C238.535 182.963 239.906 186.85 239.906 191.057C239.906 201.519 231.425 210 220.963 210H131.706C121.244 210 112.763 201.519 112.763 191.057C112.763 186.85 114.134 182.963 116.454 179.819H46.9432C36.4812 179.819 28 171.338 28 160.876C28 150.414 36.4811 141.933 46.9431 141.933H67.3025C67.2154 141.196 67.1706 140.446 67.1706 139.686C67.1706 134.242 69.4666 129.335 73.1431 125.88H61.7124C51.2504 125.88 42.7693 117.398 42.7693 106.936C42.7693 96.4744 51.2504 87.9933 61.7124 87.9933H97.3538C97.3996 85.2422 98.0318 82.6337 99.1308 80.2876H98.3144C87.8524 80.2876 79.3713 71.8065 79.3713 61.3445C79.3713 50.8825 87.8524 42.4013 98.3144 42.4013H110.992C110.473 40.673 110.194 38.8406 110.194 36.9431Z" fill="#E3E0E0"/>
<path fill-rule="evenodd" clip-rule="evenodd" d="M110.194 36.9431C110.194 26.4811 118.675 18 129.137 18H224.174C234.636 18 243.117 26.4811 243.117 36.9431C243.117 38.8406 242.838 40.673 242.319 42.4013H262.702C273.164 42.4013 281.646 50.8825 281.646 61.3445C281.646 71.8065 273.164 80.2876 262.702 80.2876H257.391C258.533 82.7248 259.171 85.4451 259.171 88.3144C259.171 98.7764 250.689 107.258 240.227 107.258H233.482C233.311 117.571 224.897 125.88 214.542 125.88H188.342C192.018 129.335 194.314 134.242 194.314 139.686C194.314 140.446 194.27 141.196 194.182 141.933H259.492C269.954 141.933 278.435 150.414 278.435 160.876C278.435 171.338 269.954 179.819 259.492 179.819H236.215C238.535 182.963 239.906 186.85 239.906 191.057C239.906 201.519 231.425 210 220.963 210H131.706C121.244 210 112.763 201.519 112.763 191.057C112.763 186.85 114.134 182.963 116.454 179.819H46.9432C36.4812 179.819 28 171.338 28 160.876C28 150.414 36.4811 141.933 46.9431 141.933H67.3025C67.2154 141.196 67.1706 140.446 67.1706 139.686C67.1706 134.242 69.4666 129.335 73.1431 125.88H61.7124C51.2504 125.88 42.7693 117.398 42.7693 106.936C42.7693 96.4744 51.2504 87.9933 61.7124 87.9933H97.3538C97.3996 85.2422 98.0318 82.6337 99.1308 80.2876H98.3144C87.8524 80.2876 79.3713 71.8065 79.3713 61.3445C79.3713 50.8825 87.8524 42.4013 98.3144 42.4013H110.992C110.473 40.673 110.194 38.8406 110.194 36.9431Z" fill="#E3E0E0"/>
<path d="M66.6462 68.5088L81.75 67L66.6462 65.4894L76.2588 53.7413L64.51 63.3544L63 48.25L61.4894 63.3544L49.7413 53.7413L59.3538 65.4894L44.25 67L59.3538 68.5088L49.7413 80.2581L61.4894 70.6462L63 85.75L64.51 70.6462L76.2588 80.2581L66.6462 68.5088Z" fill="black"/>
<g clip-path="url(#clip1_14_33)">
<path d="M155.848 105.992C144.079 98.0339 141.118 81.8443 149.238 69.836C157.359 57.826 173.487 54.5434 185.256 62.5015C187.088 63.7406 188.706 65.1796 190.103 66.7705C187.923 61.6895 184.327 57.3427 179.745 54.2484C166.292 45.1515 147.862 48.904 138.581 62.6296C129.301 76.3544 132.683 94.8549 146.136 103.952C150.883 107.161 156.25 108.765 161.615 108.902C159.618 108.197 157.68 107.231 155.848 105.992Z" fill="black"/>
<path d="M174.844 94.3585L178.128 102.95L180.578 94.2461L189.772 94.0385L182.091 88.8118L184.491 80.0928L177.292 85.5668L169.58 80.3848L172.814 88.9958L165.647 94.5105L174.844 94.3585Z" fill="black"/>
</g>
</g>
<g opacity="0.4">
<path fill-rule="evenodd" clip-rule="evenodd" d="M488.452 75.9431C488.452 65.4811 479.97 57 469.508 57H374.472C364.01 57 355.528 65.4811 355.528 75.9431C355.528 77.8406 355.807 79.673 356.327 81.4013H335.943C325.481 81.4013 317 89.8825 317 100.344C317 110.806 325.481 119.288 335.943 119.288H341.255C340.113 121.725 339.475 124.445 339.475 127.314C339.475 137.776 347.956 146.258 358.418 146.258H365.163C365.335 156.571 373.749 164.88 384.104 164.88H410.304C406.627 168.335 404.331 173.242 404.331 178.686C404.331 179.446 404.376 180.196 404.463 180.933H339.154C328.692 180.933 320.211 189.414 320.211 199.876C320.211 210.338 328.692 218.819 339.154 218.819H362.431C360.111 221.963 358.739 225.85 358.739 230.057C358.739 240.519 367.22 249 377.682 249H466.94C477.402 249 485.883 240.519 485.883 230.057C485.883 225.85 484.512 221.963 482.191 218.819H551.702C562.164 218.819 570.646 210.338 570.646 199.876C570.646 189.414 562.164 180.933 551.702 180.933H531.343C531.43 180.196 531.475 179.446 531.475 178.686C531.475 173.242 529.179 168.335 525.502 164.88H536.933C547.395 164.88 555.876 156.398 555.876 145.936C555.876 135.474 547.395 126.993 536.933 126.993H501.292C501.246 124.242 500.614 121.634 499.515 119.288H500.331C510.793 119.288 519.274 110.806 519.274 100.344C519.274 89.8825 510.793 81.4013 500.331 81.4013H487.653C488.173 79.673 488.452 77.8406 488.452 75.9431Z" fill="#E3E0E0"/>
<path fill-rule="evenodd" clip-rule="evenodd" d="M488.452 75.9431C488.452 65.4811 479.97 57 469.508 57H374.472C364.01 57 355.528 65.4811 355.528 75.9431C355.528 77.8406 355.807 79.673 356.327 81.4013H335.943C325.481 81.4013 317 89.8825 317 100.344C317 110.806 325.481 119.288 335.943 119.288H341.255C340.113 121.725 339.475 124.445 339.475 127.314C339.475 137.776 347.956 146.258 358.418 146.258H365.163C365.335 156.571 373.749 164.88 384.104 164.88H410.304C406.627 168.335 404.331 173.242 404.331 178.686C404.331 179.446 404.376 180.196 404.463 180.933H339.154C328.692 180.933 320.211 189.414 320.211 199.876C320.211 210.338 328.692 218.819 339.154 218.819H362.431C360.111 221.963 358.739 225.85 358.739 230.057C358.739 240.519 367.22 249 377.682 249H466.94C477.402 249 485.883 240.519 485.883 230.057C485.883 225.85 484.512 221.963 482.191 218.819H551.702C562.164 218.819 570.646 210.338 570.646 199.876C570.646 189.414 562.164 180.933 551.702 180.933H531.343C531.43 180.196 531.475 179.446 531.475 178.686C531.475 173.242 529.179 168.335 525.502 164.88H536.933C547.395 164.88 555.876 156.398 555.876 145.936C555.876 135.474 547.395 126.993 536.933 126.993H501.292C501.246 124.242 500.614 121.634 499.515 119.288H500.331C510.793 119.288 519.274 110.806 519.274 100.344C519.274 89.8825 510.793 81.4013 500.331 81.4013H487.653C488.173 79.673 488.452 77.8406 488.452 75.9431Z" fill="#E3E0E0"/>
<path fill-rule="evenodd" clip-rule="evenodd" d="M488.452 75.9431C488.452 65.4811 479.97 57 469.508 57H374.472C364.01 57 355.528 65.4811 355.528 75.9431C355.528 77.8406 355.807 79.673 356.327 81.4013H335.943C325.481 81.4013 317 89.8825 317 100.344C317 110.806 325.481 119.288 335.943 119.288H341.255C340.113 121.725 339.475 124.445 339.475 127.314C339.475 137.776 347.956 146.258 358.418 146.258H365.163C365.335 156.571 373.749 164.88 384.104 164.88H410.304C406.627 168.335 404.331 173.242 404.331 178.686C404.331 179.446 404.376 180.196 404.463 180.933H339.154C328.692 180.933 320.211 189.414 320.211 199.876C320.211 210.338 328.692 218.819 339.154 218.819H362.431C360.111 221.963 358.739 225.85 358.739 230.057C358.739 240.519 367.22 249 377.682 249H466.94C477.402 249 485.883 240.519 485.883 230.057C485.883 225.85 484.512 221.963 482.191 218.819H551.702C562.164 218.819 570.646 210.338 570.646 199.876C570.646 189.414 562.164 180.933 551.702 180.933H531.343C531.43 180.196 531.475 179.446 531.475 178.686C531.475 173.242 529.179 168.335 525.502 164.88H536.933C547.395 164.88 555.876 156.398 555.876 145.936C555.876 135.474 547.395 126.993 536.933 126.993H501.292C501.246 124.242 500.614 121.634 499.515 119.288H500.331C510.793 119.288 519.274 110.806 519.274 100.344C519.274 89.8825 510.793 81.4013 500.331 81.4013H487.653C488.173 79.673 488.452 77.8406 488.452 75.9431Z" fill="#E3E0E0"/>
<path d="M361.475 141.844C360.145 141.844 358.976 142.266 358.472 142.909L352.546 150.714L337.207 148.267C335.937 148.066 334.566 148.288 333.74 148.826C332.914 149.364 332.813 150.113 333.458 150.714L341.42 158.002L328.197 162.769C327.109 163.159 326.585 163.855 326.887 164.53C327.189 165.205 328.237 165.711 329.527 165.817L345.39 167.104L344.262 175.488C344.161 176.174 344.886 176.828 346.076 177.123C347.265 177.418 348.676 177.313 349.663 176.849L356.779 173.421L358.693 169.688L360.79 165.616C362.402 162.463 366.937 160.121 372.46 159.193L380.724 152.95C383.002 151.23 386.045 149.902 389.492 149.026C389.412 148.963 389.331 148.9 389.23 148.836C388.404 148.298 387.033 148.077 385.763 148.277L370.404 150.714L364.478 142.909C363.974 142.266 362.805 141.844 361.475 141.844ZM400.115 158.033L427.446 161.862C428.757 162.052 429.724 162.642 429.825 163.359L430.752 169.318L390.137 163.623L396.628 158.708C397.393 158.118 398.804 157.854 400.115 158.033V158.033ZM386.025 154.869L376.37 162.178C372.017 162.495 368.248 164.14 367.038 166.502L364.942 170.573L361.596 177.091L359.923 180.35C358.996 182.154 361.052 184 364.478 184.485L367.603 184.917C371.049 185.402 374.577 184.327 375.504 182.534L377.177 179.275L427.023 186.267L425.35 189.526C424.423 191.33 426.479 193.175 429.905 193.661L433.03 194.093C436.476 194.578 440.004 193.502 440.931 191.709L442.604 188.45L445.93 181.922L448.026 177.851C449.235 175.488 447.522 173.084 444.075 171.66L442.705 162.8C442.16 159.246 437.383 156.261 430.813 155.333L403.44 151.515C396.849 150.587 389.875 151.937 386.005 154.869H386.025ZM380.079 173.569C377.499 173.21 375.967 171.818 376.653 170.468C377.338 169.118 379.999 168.316 382.579 168.675C385.159 169.034 386.69 170.426 386.005 171.776C385.32 173.126 382.659 173.927 380.079 173.569ZM435.852 178.768C435.166 180.118 432.506 180.92 429.926 180.561C427.346 180.203 425.814 178.811 426.499 177.461C427.184 176.111 429.845 175.309 432.425 175.668C435.005 176.026 436.537 177.418 435.852 178.768Z" fill="black"/>
<g clip-path="url(#clip2_14_33)">
<g filter="url(#filter0_d_14_33)">
<path d="M521.8 134.688C521.8 132.095 523.431 130 525.45 130C527.469 130 529.1 132.095 529.1 134.688V136.123C529.1 141.836 531.803 146.963 535.932 149.072C542.833 152.632 547.35 161.201 547.35 170.752V181.562C547.35 184.155 545.719 186.25 543.7 186.25C541.681 186.25 540.05 184.155 540.05 181.562V170.752C540.05 169.287 539.867 167.852 539.537 166.504L521.218 202.861C520.123 205.029 517.865 205.659 516.165 204.253C514.466 202.847 513.987 199.946 515.082 197.764L525.61 176.875H516.325L511.945 184.375C510.736 186.44 508.443 186.865 506.835 185.313C505.227 183.76 504.896 180.815 506.105 178.75L511.032 170.313C512.07 168.54 513.69 167.5 515.412 167.5H523.568L530.047 155.752L530.07 155.708C524.971 151.46 521.8 144.136 521.8 136.138V134.702V134.688ZM540.05 141.719C540.05 137.837 542.502 134.688 545.525 134.688C548.548 134.688 551 137.837 551 141.719C551 145.601 548.548 148.75 545.525 148.75C542.502 148.75 540.05 145.601 540.05 141.719ZM498.075 171.909L491.391 179.805C490.843 180.449 490.034 180.61 489.361 180.186C488.688 179.761 488.277 178.867 488.334 177.915L488.973 166.284L479.996 164.497C479.255 164.351 478.662 163.633 478.502 162.71C478.342 161.787 478.627 160.806 479.243 160.264L486.726 153.657L482.22 143.506C481.844 142.671 481.912 141.631 482.38 140.884C482.848 140.137 483.623 139.829 484.342 140.107L493.022 143.491L496.375 132.651C496.661 131.758 497.322 131.172 498.075 131.172C498.828 131.172 499.489 131.758 499.775 132.651L503.128 143.491L511.808 140.093C512.527 139.814 513.302 140.122 513.77 140.869C514.238 141.616 514.295 142.656 513.93 143.491L509.424 153.613L516.907 160.22C517.523 160.762 517.819 161.729 517.648 162.666C517.637 162.71 517.637 162.754 517.625 162.783H515.412C513.12 162.783 510.941 163.882 509.276 165.83L507.177 166.255L507.314 168.862L503.185 175.938C502.945 176.348 502.74 176.772 502.558 177.197L498.075 171.909Z" fill="black"/>
<path d="M521.8 134.688C521.8 132.095 523.431 130 525.45 130C527.469 130 529.1 132.095 529.1 134.688V136.123C529.1 141.836 531.803 146.963 535.932 149.072C542.833 152.632 547.35 161.201 547.35 170.752V181.562C547.35 184.155 545.719 186.25 543.7 186.25C541.681 186.25 540.05 184.155 540.05 181.562V170.752C540.05 169.287 539.867 167.852 539.537 166.504L521.218 202.861C520.123 205.029 517.865 205.659 516.165 204.253C514.466 202.847 513.987 199.946 515.082 197.764L525.61 176.875H516.325L511.945 184.375C510.736 186.44 508.443 186.865 506.835 185.313C505.227 183.76 504.896 180.815 506.105 178.75L511.032 170.313C512.07 168.54 513.69 167.5 515.412 167.5H523.568L530.047 155.752L530.07 155.708C524.971 151.46 521.8 144.136 521.8 136.138V134.702V134.688ZM540.05 141.719C540.05 137.837 542.502 134.688 545.525 134.688C548.548 134.688 551 137.837 551 141.719C551 145.601 548.548 148.75 545.525 148.75C542.502 148.75 540.05 145.601 540.05 141.719ZM498.075 171.909L491.391 179.805C490.843 180.449 490.034 180.61 489.361 180.186C488.688 179.761 488.277 178.867 488.334 177.915L488.973 166.284L479.996 164.497C479.255 164.351 478.662 163.633 478.502 162.71C478.342 161.787 478.627 160.806 479.243 160.264L486.726 153.657L482.22 143.506C481.844 142.671 481.912 141.631 482.38 140.884C482.848 140.137 483.623 139.829 484.342 140.107L493.022 143.491L496.375 132.651C496.661 131.758 497.322 131.172 498.075 131.172C498.828 131.172 499.489 131.758 499.775 132.651L503.128 143.491L511.808 140.093C512.527 139.814 513.302 140.122 513.77 140.869C514.238 141.616 514.295 142.656 513.93 143.491L509.424 153.613L516.907 160.22C517.523 160.762 517.819 161.729 517.648 162.666C517.637 162.71 517.637 162.754 517.625 162.783H515.412C513.12 162.783 510.941 163.882 509.276 165.83L507.177 166.255L507.314 168.862L503.185 175.938C502.945 176.348 502.74 176.772 502.558 177.197L498.075 171.909Z" stroke="black"/>
</g>
</g>
</g>
<path d="M291.637 194.5C294.117 191.762 295.667 188.145 295.667 184.167C295.667 175.59 288.743 168.667 280.167 168.667H207.833C199.257 168.667 192.333 175.59 192.333 184.167C192.333 188.145 193.883 191.762 196.363 194.5H187.167V204.833H192.333C192.333 207.574 193.422 210.202 195.36 212.14C197.298 214.078 199.926 215.167 202.667 215.167C205.407 215.167 208.036 214.078 209.973 212.14C211.911 210.202 213 207.574 213 204.833H275C275 207.574 276.089 210.202 278.027 212.14C279.964 214.078 282.593 215.167 285.333 215.167C288.074 215.167 290.702 214.078 292.64 212.14C294.578 210.202 295.667 207.574 295.667 204.833H300.833V194.5H291.637ZM280.167 179C283.008 179 285.333 181.325 285.333 184.167C285.333 187.008 283.008 189.333 280.167 189.333C277.325 189.333 275 187.008 275 184.167C275 181.325 277.325 179 280.167 179ZM244 179C246.842 179 249.167 181.325 249.167 184.167C249.167 187.008 246.842 189.333 244 189.333C241.158 189.333 238.833 187.008 238.833 184.167C238.833 181.325 241.158 179 244 179ZM207.833 179C210.675 179 213 181.325 213 184.167C213 187.008 210.675 189.333 207.833 189.333C204.992 189.333 202.667 187.008 202.667 184.167C202.667 181.325 204.992 179 207.833 179ZM252.37 148L250.303 137.667H295.667V148H252.37ZM285.333 163.5H202.667V158.333H213L218.167 132.5H244L249.167 158.333H285.333V163.5Z" fill="black"/>
<path d="M608.834 52.414L633 50L608.834 47.583L624.214 28.786L605.416 44.167L603 20L600.583 44.167L581.786 28.786L597.166 47.583L573 50L597.166 52.414L581.786 71.213L600.583 55.834L603 80L605.416 55.834L624.214 71.213L608.834 52.414Z" fill="black"/>
<path d="M239.834 94.414L264 92L239.834 89.583L255.214 70.786L236.416 86.167L234 62L231.583 86.167L212.786 70.786L228.166 89.583L204 92L228.166 94.414L212.786 113.213L231.583 97.834L234 122L236.416 97.834L255.214 113.213L239.834 94.414Z" fill="black"/>
<g clip-path="url(#clip3_14_33)">
<path d="M315 86C349.794 86 378 57.7939 378 23C378 -11.7939 349.794 -40 315 -40C280.206 -40 252 -11.7939 252 23C252 57.7939 280.206 86 315 86Z" fill="#3D474E"/>
<path d="M288.75 2C295.515 2 301 -3.48451 301 -10.25C301 -17.0155 295.515 -22.5 288.75 -22.5C281.985 -22.5 276.5 -17.0155 276.5 -10.25C276.5 -3.48451 281.985 2 288.75 2Z" fill="#E1F0FF"/>
<path d="M322 26.5C327.799 26.5 332.5 21.799 332.5 16C332.5 10.201 327.799 5.5 322 5.5C316.201 5.5 311.5 10.201 311.5 16C311.5 21.799 316.201 26.5 322 26.5Z" fill="#E1F0FF"/>
<path d="M327.25 68.5C334.015 68.5 339.5 63.0155 339.5 56.25C339.5 49.4845 334.015 44 327.25 44C320.485 44 315 49.4845 315 56.25C315 63.0155 320.485 68.5 327.25 68.5Z" fill="#E1F0FF"/>
<path d="M262.5 26.5C264.433 26.5 266 24.933 266 23C266 21.067 264.433 19.5 262.5 19.5C260.567 19.5 259 21.067 259 23C259 24.933 260.567 26.5 262.5 26.5Z" fill="#E1F0FF"/>
<path d="M304.5 72C306.433 72 308 70.433 308 68.5C308 66.567 306.433 65 304.5 65C302.567 65 301 66.567 301 68.5C301 70.433 302.567 72 304.5 72Z" fill="#E1F0FF"/>
<path d="M364 33.5C367.866 33.5 371 30.366 371 26.5C371 22.634 367.866 19.5 364 19.5C360.134 19.5 357 22.634 357 26.5C357 30.366 360.134 33.5 364 33.5Z" fill="#E1F0FF"/>
<path d="M287 47.5C290.866 47.5 294 44.366 294 40.5C294 36.634 290.866 33.5 287 33.5C283.134 33.5 280 36.634 280 40.5C280 44.366 283.134 47.5 287 47.5Z" fill="#E1F0FF"/>
</g>
</g>
<defs>
<filter id="filter0_d_14_33" x="473.958" y="129.5" width="81.5415" height="84.0033" filterUnits="userSpaceOnUse" color-interpolation-filters="sRGB">
<feFlood flood-opacity="0" result="BackgroundImageFix"/>
<feColorMatrix in="SourceAlpha" type="matrix" values="0 0 0 0 0 0 0 0 0 0 0 0 0 0 0 0 0 0 127 0" result="hardAlpha"/>
<feOffset dy="4"/>
<feGaussianBlur stdDeviation="2"/>
<feComposite in2="hardAlpha" operator="out"/>
<feColorMatrix type="matrix" values="0 0 0 0 0 0 0 0 0 0 0 0 0 0 0 0 0 0 0.25 0"/>
<feBlend mode="normal" in2="BackgroundImageFix" result="effect1_dropShadow_14_33"/>
<feBlend mode="normal" in="SourceGraphic" in2="effect1_dropShadow_14_33" result="shape"/>
</filter>
<linearGradient id="paint0_linear_14_33" x1="360" y1="0" x2="360" y2="260" gradientUnits="userSpaceOnUse">
<stop stop-color="#2E6379"/>
<stop offset="1" stop-color="white"/>
</linearGradient>
<clipPath id="clip0_14_33">
<rect width="720" height="260" fill="white"/>
</clipPath>
<clipPath id="clip1_14_33">
<rect width="64" height="64" fill="white" transform="translate(154.85 35) rotate(34.0663)"/>
</clipPath>
<clipPath id="clip2_14_33">
<rect width="73" height="75" fill="white" transform="matrix(-1 0 0 1 551 130)"/>
</clipPath>
<clipPath id="clip3_14_33">
<rect width="126" height="126" fill="white" transform="translate(252 -40)"/>
</clipPath>
</defs>
</svg>
