<svg width="172" height="67" viewBox="0 0 172 67" fill="none" xmlns="http://www.w3.org/2000/svg">
<rect width="172" height="67" rx="10" fill="#1B2127" fill-opacity="0.54"/>
<path d="M30.9375 12H14.0625L9 17.4545L22.5 32L36 17.4545L30.9375 12ZM25.3687 24.5455L22.5 22.9091L19.6313 24.5455L20.1375 21.0909L17.775 18.5455L20.9813 18L22.5 14.9091L24.0187 18.1818L27.225 18.7273L24.8625 21.0909L25.3687 24.5455V24.5455Z" fill="white"/>
<path d="M41.483 14.3636H43.6136L45.8295 23.4091H45.9659L51.1591 14.3636H53.2898L51.358 26H49.6875L51.0909 17.5795H50.983L46.1534 25.983H44.7614L42.7386 17.5739H42.6307L41.2216 26H39.5511L41.483 14.3636ZM57.4901 26.1761C56.6605 26.1761 55.9673 25.9867 55.4105 25.608C54.8537 25.2254 54.4616 24.6913 54.2344 24.0057C54.0109 23.3163 53.973 22.5152 54.1207 21.6023C54.2647 20.7083 54.5545 19.928 54.9901 19.2614C55.4295 18.5947 55.9787 18.0777 56.6378 17.7102C57.3007 17.3428 58.0374 17.1591 58.848 17.1591C59.6776 17.1591 60.3688 17.3504 60.9219 17.733C61.4787 18.1155 61.8707 18.6515 62.098 19.3409C62.3253 20.0303 62.3651 20.8333 62.2173 21.75C62.0734 22.6364 61.7798 23.4129 61.3366 24.0795C60.8973 24.7424 60.348 25.2576 59.6889 25.625C59.0298 25.9924 58.2969 26.1761 57.4901 26.1761ZM57.5866 24.75C58.1321 24.75 58.6075 24.6061 59.0128 24.3182C59.4219 24.0303 59.7552 23.6477 60.0128 23.1705C60.2704 22.6932 60.4465 22.1705 60.5412 21.6023C60.6283 21.053 60.6264 20.5511 60.5355 20.0966C60.4484 19.6383 60.259 19.2708 59.9673 18.9943C59.6757 18.7178 59.2704 18.5795 58.7514 18.5795C58.206 18.5795 57.7268 18.7254 57.3139 19.017C56.9048 19.3049 56.5715 19.6894 56.3139 20.1705C56.0601 20.6515 55.8878 21.1761 55.7969 21.7443C55.7098 22.2898 55.7098 22.7917 55.7969 23.25C55.884 23.7045 56.0734 24.0682 56.3651 24.3409C56.6567 24.6136 57.0639 24.75 57.5866 24.75ZM66.6705 26.1705C65.9621 26.1705 65.3617 25.9905 64.8693 25.6307C64.3807 25.267 64.0341 24.75 63.8295 24.0795C63.6288 23.4053 63.6061 22.5966 63.7614 21.6534C63.9205 20.7102 64.214 19.9034 64.642 19.233C65.0701 18.5625 65.589 18.0492 66.1989 17.6932C66.8087 17.3371 67.4659 17.1591 68.1705 17.1591C68.7121 17.1591 69.1326 17.25 69.4318 17.4318C69.7348 17.6098 69.9583 17.8182 70.1023 18.0568C70.2462 18.2955 70.3542 18.5057 70.4261 18.6875H70.5227L71.2443 14.3636H72.9432L71.0114 26H69.3523L69.5852 24.642H69.4432C69.3106 24.8277 69.1269 25.0398 68.892 25.2784C68.661 25.517 68.3655 25.7254 68.0057 25.9034C67.6458 26.0814 67.2008 26.1705 66.6705 26.1705ZM67.2443 24.7216C67.733 24.7216 68.1705 24.5928 68.5568 24.3352C68.947 24.0739 69.2708 23.7121 69.5284 23.25C69.7898 22.7879 69.9716 22.25 70.0739 21.6364C70.1761 21.0303 70.1742 20.5 70.0682 20.0455C69.9621 19.5909 69.7576 19.2367 69.4545 18.983C69.1515 18.7292 68.7519 18.6023 68.2557 18.6023C67.7443 18.6023 67.2992 18.7348 66.9205 19C66.5417 19.2652 66.2311 19.6269 65.9886 20.0852C65.75 20.5436 65.5833 21.0606 65.4886 21.6364C65.3902 22.2197 65.3864 22.7443 65.4773 23.2102C65.5682 23.6761 65.7595 24.0455 66.0511 24.3182C66.3428 24.5871 66.7405 24.7216 67.2443 24.7216ZM77.169 26.1761C76.313 26.1761 75.6046 25.9924 75.044 25.625C74.4872 25.2538 74.0971 24.733 73.8736 24.0625C73.6501 23.3883 73.6141 22.5985 73.7656 21.6932C73.9134 20.7992 74.2107 20.0114 74.6577 19.3295C75.1046 18.6477 75.6615 18.1155 76.3281 17.733C76.9986 17.3504 77.7391 17.1591 78.5497 17.1591C79.0421 17.1591 79.5062 17.2405 79.9418 17.4034C80.3812 17.5663 80.7543 17.822 81.0611 18.1705C81.3679 18.5189 81.58 18.9716 81.6974 19.5284C81.8187 20.0814 81.8149 20.7538 81.6861 21.5455L81.5895 22.1477H74.6463L74.8452 20.875H80.1179C80.1974 20.428 80.1766 20.0322 80.0554 19.6875C79.9342 19.339 79.7259 19.0644 79.4304 18.8636C79.1387 18.6629 78.7713 18.5625 78.3281 18.5625C77.8736 18.5625 77.4493 18.6818 77.0554 18.9205C76.6615 19.1591 76.3319 19.464 76.0668 19.8352C75.8054 20.2027 75.6406 20.5814 75.5724 20.9716L75.3736 22.1364C75.2751 22.7727 75.2921 23.2841 75.4247 23.6705C75.5611 24.0568 75.7997 24.3371 76.1406 24.5114C76.4815 24.6856 76.9077 24.7727 77.419 24.7727C77.7486 24.7727 78.0535 24.7273 78.3338 24.6364C78.6179 24.5417 78.8698 24.4034 79.0895 24.2216C79.3092 24.036 79.4929 23.8049 79.6406 23.5284L81.1974 23.8182C80.9891 24.2917 80.6899 24.7064 80.2997 25.0625C79.9096 25.4148 79.4493 25.6894 78.919 25.8864C78.3925 26.0795 77.8092 26.1761 77.169 26.1761ZM86.483 14.3636L84.5511 26H82.8523L84.7841 14.3636H86.483ZM88.517 26.1349C88.1193 26.1349 87.7879 25.9976 87.5227 25.723C87.2623 25.4484 87.1345 25.1122 87.1392 24.7145C87.1439 24.3215 87.2907 23.9924 87.5795 23.7273C87.8731 23.4574 88.214 23.3224 88.6023 23.3224C88.9905 23.3224 89.322 23.4598 89.5966 23.7344C89.8712 24.009 89.9991 24.3357 89.9801 24.7145C89.9659 24.9796 89.8902 25.2211 89.7528 25.4389C89.6203 25.652 89.4451 25.8224 89.2273 25.9503C89.0095 26.0734 88.7727 26.1349 88.517 26.1349ZM89.831 18.1946C89.4332 18.1946 89.1018 18.0573 88.8366 17.7827C88.5762 17.5033 88.4484 17.1671 88.4531 16.7741C88.4579 16.3812 88.6046 16.0521 88.8935 15.7869C89.187 15.517 89.5279 15.3821 89.9162 15.3821C90.2997 15.3821 90.6288 15.5194 90.9034 15.794C91.1828 16.0639 91.313 16.3906 91.294 16.7741C91.2798 17.0346 91.2041 17.2737 91.0668 17.4915C90.9295 17.7045 90.7519 17.875 90.5341 18.0028C90.321 18.1307 90.0866 18.1946 89.831 18.1946Z" fill="#FFF2F2" fill-opacity="0.96"/>
</svg>
