<svg width="172" height="67" viewBox="0 0 172 67" fill="none" xmlns="http://www.w3.org/2000/svg">
<rect width="172" height="67" rx="10" fill="#2BE6DA"/>
<path d="M30.9375 12H14.0625L9 17.4545L22.5 32L36 17.4545L30.9375 12ZM25.3687 24.5455L22.5 22.9091L19.6313 24.5455L20.1375 21.0909L17.775 18.5455L20.9813 18L22.5 14.9091L24.0187 18.1818L27.225 18.7273L24.8625 21.0909L25.3687 24.5455V24.5455Z" fill="black" fill-opacity="0.58"/>
<path d="M39.5511 26L41.483 14.3636H45.6307C46.5322 14.3636 47.2538 14.5189 47.7955 14.8295C48.3409 15.1364 48.7159 15.5644 48.9205 16.1136C49.1288 16.6591 49.1742 17.2917 49.0568 18.0114C48.9356 18.7235 48.6799 19.3485 48.2898 19.8864C47.9034 20.4242 47.3864 20.8447 46.7386 21.1477C46.0947 21.447 45.322 21.5966 44.4205 21.5966H41.2784L41.5398 20.0852H44.5227C45.0947 20.0852 45.572 20.0038 45.9545 19.8409C46.3371 19.678 46.6364 19.4413 46.8523 19.1307C47.072 18.8201 47.2159 18.447 47.2841 18.0114C47.3561 17.5682 47.3352 17.1875 47.2216 16.8693C47.108 16.5473 46.8864 16.3011 46.5568 16.1307C46.2273 15.9564 45.7746 15.8693 45.1989 15.8693H42.9943L41.3068 26H39.5511ZM46.1648 20.75L48.1705 26H46.1705L44.2159 20.75H46.1648ZM53.4034 26.1761C52.5473 26.1761 51.839 25.9924 51.2784 25.625C50.7216 25.2538 50.3314 24.733 50.108 24.0625C49.8845 23.3883 49.8485 22.5985 50 21.6932C50.1477 20.7992 50.4451 20.0114 50.892 19.3295C51.339 18.6477 51.8958 18.1155 52.5625 17.733C53.233 17.3504 53.9735 17.1591 54.7841 17.1591C55.2765 17.1591 55.7405 17.2405 56.1761 17.4034C56.6155 17.5663 56.9886 17.822 57.2955 18.1705C57.6023 18.5189 57.8144 18.9716 57.9318 19.5284C58.053 20.0814 58.0492 20.7538 57.9205 21.5455L57.8239 22.1477H50.8807L51.0795 20.875H56.3523C56.4318 20.428 56.411 20.0322 56.2898 19.6875C56.1686 19.339 55.9602 19.0644 55.6648 18.8636C55.3731 18.6629 55.0057 18.5625 54.5625 18.5625C54.108 18.5625 53.6837 18.6818 53.2898 18.9205C52.8958 19.1591 52.5663 19.464 52.3011 19.8352C52.0398 20.2027 51.875 20.5814 51.8068 20.9716L51.608 22.1364C51.5095 22.7727 51.5265 23.2841 51.6591 23.6705C51.7955 24.0568 52.0341 24.3371 52.375 24.5114C52.7159 24.6856 53.142 24.7727 53.6534 24.7727C53.983 24.7727 54.2879 24.7273 54.5682 24.6364C54.8523 24.5417 55.1042 24.4034 55.3239 24.2216C55.5436 24.036 55.7273 23.8049 55.875 23.5284L57.4318 23.8182C57.2235 24.2917 56.9242 24.7064 56.5341 25.0625C56.1439 25.4148 55.6837 25.6894 55.1534 25.8864C54.6269 26.0795 54.0436 26.1761 53.4034 26.1761ZM64.6946 17.2727L64.473 18.6364H59.5412L59.7628 17.2727H64.6946ZM59.6605 26L61.2855 16.2614C61.3688 15.7159 61.5601 15.2633 61.8594 14.9034C62.1586 14.5398 62.5204 14.2689 62.9446 14.0909C63.3688 13.9091 63.812 13.8182 64.2741 13.8182C64.6151 13.8182 64.901 13.8466 65.1321 13.9034C65.367 13.9564 65.5374 14.0057 65.6435 14.0511L65.0241 15.4261C64.9484 15.4034 64.8518 15.3769 64.7344 15.3466C64.617 15.3125 64.4692 15.2955 64.2912 15.2955C63.8783 15.2955 63.5658 15.3977 63.3537 15.6023C63.1454 15.8068 63.0052 16.1023 62.9332 16.4886L61.3594 26H59.6605ZM68.3878 26.1761C67.5317 26.1761 66.8234 25.9924 66.2628 25.625C65.706 25.2538 65.3158 24.733 65.0923 24.0625C64.8688 23.3883 64.8329 22.5985 64.9844 21.6932C65.1321 20.7992 65.4295 20.0114 65.8764 19.3295C66.3234 18.6477 66.8802 18.1155 67.5469 17.733C68.2173 17.3504 68.9579 17.1591 69.7685 17.1591C70.2609 17.1591 70.7249 17.2405 71.1605 17.4034C71.5999 17.5663 71.973 17.822 72.2798 18.1705C72.5866 18.5189 72.7988 18.9716 72.9162 19.5284C73.0374 20.0814 73.0336 20.7538 72.9048 21.5455L72.8082 22.1477H65.8651L66.0639 20.875H71.3366C71.4162 20.428 71.3954 20.0322 71.2741 19.6875C71.1529 19.339 70.9446 19.0644 70.6491 18.8636C70.3575 18.6629 69.9901 18.5625 69.5469 18.5625C69.0923 18.5625 68.6681 18.6818 68.2741 18.9205C67.8802 19.1591 67.5507 19.464 67.2855 19.8352C67.0241 20.2027 66.8594 20.5814 66.7912 20.9716L66.5923 22.1364C66.4938 22.7727 66.5109 23.2841 66.6435 23.6705C66.7798 24.0568 67.0185 24.3371 67.3594 24.5114C67.7003 24.6856 68.1264 24.7727 68.6378 24.7727C68.9673 24.7727 69.2723 24.7273 69.5526 24.6364C69.8366 24.5417 70.0885 24.4034 70.3082 24.2216C70.5279 24.036 70.7116 23.8049 70.8594 23.5284L72.4162 23.8182C72.2079 24.2917 71.9086 24.7064 71.5185 25.0625C71.1283 25.4148 70.6681 25.6894 70.1378 25.8864C69.6113 26.0795 69.0279 26.1761 68.3878 26.1761ZM74.071 26L75.5256 17.2727H77.1676L76.9347 18.6591H77.0256C77.2604 18.1894 77.6032 17.8201 78.054 17.5511C78.5047 17.2784 78.9858 17.142 79.4972 17.142C79.607 17.142 79.732 17.1458 79.8722 17.1534C80.0123 17.1572 80.1259 17.1667 80.2131 17.1818L79.9403 18.8068C79.8759 18.7879 79.7585 18.767 79.5881 18.7443C79.4176 18.7178 79.2415 18.7045 79.0597 18.7045C78.6619 18.7045 78.2926 18.7898 77.9517 18.9602C77.6108 19.1269 77.3248 19.3598 77.0938 19.6591C76.8627 19.9545 76.7131 20.2917 76.6449 20.6705L75.7699 26H74.071ZM83.669 26.1761C82.813 26.1761 82.1046 25.9924 81.544 25.625C80.9872 25.2538 80.5971 24.733 80.3736 24.0625C80.1501 23.3883 80.1141 22.5985 80.2656 21.6932C80.4134 20.7992 80.7107 20.0114 81.1577 19.3295C81.6046 18.6477 82.1615 18.1155 82.8281 17.733C83.4986 17.3504 84.2391 17.1591 85.0497 17.1591C85.5421 17.1591 86.0062 17.2405 86.4418 17.4034C86.8812 17.5663 87.2543 17.822 87.5611 18.1705C87.8679 18.5189 88.08 18.9716 88.1974 19.5284C88.3187 20.0814 88.3149 20.7538 88.1861 21.5455L88.0895 22.1477H81.1463L81.3452 20.875H86.6179C86.6974 20.428 86.6766 20.0322 86.5554 19.6875C86.4342 19.339 86.2259 19.0644 85.9304 18.8636C85.6387 18.6629 85.2713 18.5625 84.8281 18.5625C84.3736 18.5625 83.9493 18.6818 83.5554 18.9205C83.1615 19.1591 82.8319 19.464 82.5668 19.8352C82.3054 20.2027 82.1406 20.5814 82.0724 20.9716L81.8736 22.1364C81.7751 22.7727 81.7921 23.2841 81.9247 23.6705C82.0611 24.0568 82.2997 24.3371 82.6406 24.5114C82.9815 24.6856 83.4077 24.7727 83.919 24.7727C84.2486 24.7727 84.5535 24.7273 84.8338 24.6364C85.1179 24.5417 85.3698 24.4034 85.5895 24.2216C85.8092 24.036 85.9929 23.8049 86.1406 23.5284L87.6974 23.8182C87.4891 24.2917 87.1899 24.7064 86.7997 25.0625C86.4096 25.4148 85.9493 25.6894 85.419 25.8864C84.8925 26.0795 84.3092 26.1761 83.669 26.1761ZM91.9091 20.8182L91.0568 26H89.358L90.8125 17.2727H92.4432L92.2045 18.6932H92.3125C92.589 18.2273 92.9659 17.8561 93.4432 17.5795C93.9242 17.2992 94.4924 17.1591 95.1477 17.1591C95.7386 17.1591 96.2348 17.2841 96.6364 17.5341C97.0417 17.7803 97.3277 18.1477 97.4943 18.6364C97.6648 19.125 97.6913 19.7292 97.5739 20.4489L96.642 26H94.9432L95.8352 20.6534C95.9375 20.0208 95.8542 19.5265 95.5852 19.1705C95.3201 18.8106 94.8977 18.6307 94.3182 18.6307C93.9242 18.6307 93.5587 18.7159 93.2216 18.8864C92.8883 19.0568 92.6061 19.3068 92.375 19.6364C92.1477 19.9621 91.9924 20.3561 91.9091 20.8182ZM102.568 26.1761C101.72 26.1761 101.025 25.9848 100.483 25.6023C99.9413 25.2159 99.5644 24.6837 99.3523 24.0057C99.1402 23.3277 99.1061 22.5511 99.25 21.6761C99.3939 20.7898 99.6875 20.0076 100.131 19.3295C100.578 18.6477 101.136 18.1155 101.807 17.733C102.481 17.3504 103.229 17.1591 104.051 17.1591C104.714 17.1591 105.284 17.2822 105.761 17.5284C106.239 17.7708 106.6 18.1117 106.847 18.5511C107.093 18.9905 107.199 19.5038 107.165 20.0909H105.511C105.485 19.6818 105.333 19.3295 105.057 19.0341C104.78 18.7386 104.373 18.5909 103.835 18.5909C103.362 18.5909 102.926 18.7159 102.528 18.9659C102.131 19.2121 101.795 19.5644 101.523 20.0227C101.25 20.4773 101.064 21.0152 100.966 21.6364C100.86 22.2727 100.866 22.822 100.983 23.2841C101.1 23.7462 101.316 24.1042 101.631 24.358C101.945 24.6117 102.341 24.7386 102.818 24.7386C103.144 24.7386 103.447 24.6799 103.727 24.5625C104.011 24.4413 104.261 24.2689 104.477 24.0455C104.697 23.822 104.867 23.553 104.989 23.2386H106.648C106.485 23.803 106.212 24.3068 105.83 24.75C105.451 25.1932 104.985 25.5417 104.432 25.7955C103.879 26.0492 103.258 26.1761 102.568 26.1761ZM111.732 26.1761C110.875 26.1761 110.167 25.9924 109.607 25.625C109.05 25.2538 108.66 24.733 108.436 24.0625C108.213 23.3883 108.177 22.5985 108.328 21.6932C108.476 20.7992 108.773 20.0114 109.22 19.3295C109.667 18.6477 110.224 18.1155 110.891 17.733C111.561 17.3504 112.302 17.1591 113.112 17.1591C113.605 17.1591 114.069 17.2405 114.504 17.4034C114.944 17.5663 115.317 17.822 115.624 18.1705C115.93 18.5189 116.143 18.9716 116.26 19.5284C116.381 20.0814 116.377 20.7538 116.249 21.5455L116.152 22.1477H109.209L109.408 20.875H114.68C114.76 20.428 114.739 20.0322 114.618 19.6875C114.497 19.339 114.288 19.0644 113.993 18.8636C113.701 18.6629 113.334 18.5625 112.891 18.5625C112.436 18.5625 112.012 18.6818 111.618 18.9205C111.224 19.1591 110.894 19.464 110.629 19.8352C110.368 20.2027 110.203 20.5814 110.135 20.9716L109.936 22.1364C109.838 22.7727 109.855 23.2841 109.987 23.6705C110.124 24.0568 110.362 24.3371 110.703 24.5114C111.044 24.6856 111.47 24.7727 111.982 24.7727C112.311 24.7727 112.616 24.7273 112.896 24.6364C113.18 24.5417 113.432 24.4034 113.652 24.2216C113.872 24.036 114.055 23.8049 114.203 23.5284L115.76 23.8182C115.552 24.2917 115.252 24.7064 114.862 25.0625C114.472 25.4148 114.012 25.6894 113.482 25.8864C112.955 26.0795 112.372 26.1761 111.732 26.1761ZM119.095 26.1349C118.697 26.1349 118.366 25.9976 118.101 25.723C117.84 25.4484 117.713 25.1122 117.717 24.7145C117.722 24.3215 117.869 23.9924 118.158 23.7273C118.451 23.4574 118.792 23.3224 119.18 23.3224C119.569 23.3224 119.9 23.4598 120.175 23.7344C120.449 24.009 120.577 24.3357 120.558 24.7145C120.544 24.9796 120.468 25.2211 120.331 25.4389C120.198 25.652 120.023 25.8224 119.805 25.9503C119.588 26.0734 119.351 26.1349 119.095 26.1349ZM120.409 18.1946C120.011 18.1946 119.68 18.0573 119.415 17.7827C119.154 17.5033 119.027 17.1671 119.031 16.7741C119.036 16.3812 119.183 16.0521 119.472 15.7869C119.765 15.517 120.106 15.3821 120.494 15.3821C120.878 15.3821 121.207 15.5194 121.482 15.794C121.761 16.0639 121.891 16.3906 121.872 16.7741C121.858 17.0346 121.782 17.2737 121.645 17.4915C121.508 17.7045 121.33 17.875 121.112 18.0028C120.899 18.1307 120.665 18.1946 120.409 18.1946Z" fill="black" fill-opacity="0.49"/>
</svg>
