<svg width="140" height="58" viewBox="0 0 140 58" fill="none" xmlns="http://www.w3.org/2000/svg">
<rect width="140" height="58" rx="11" fill="#EEEFF2"/>
<path d="M69.5 35.179C68.5369 35.179 67.7166 34.9169 67.0391 34.3928C66.3615 33.8643 65.8438 33.0994 65.4858 32.098C65.1278 31.0923 64.9489 29.8778 64.9489 28.4545C64.9489 27.0398 65.1278 25.8317 65.4858 24.8303C65.848 23.8246 66.3679 23.0575 67.0455 22.5291C67.7273 21.9964 68.5455 21.7301 69.5 21.7301C70.4545 21.7301 71.2706 21.9964 71.9482 22.5291C72.63 23.0575 73.1499 23.8246 73.5078 24.8303C73.87 25.8317 74.0511 27.0398 74.0511 28.4545C74.0511 29.8778 73.8722 31.0923 73.5142 32.098C73.1562 33.0994 72.6385 33.8643 71.9609 34.3928C71.2834 34.9169 70.4631 35.179 69.5 35.179ZM69.5 33.7727C70.4545 33.7727 71.196 33.3125 71.7244 32.392C72.2528 31.4716 72.517 30.1591 72.517 28.4545C72.517 27.321 72.3956 26.3558 72.1527 25.5589C71.9141 24.7621 71.5689 24.1548 71.1172 23.7372C70.6697 23.3196 70.1307 23.1108 69.5 23.1108C68.554 23.1108 67.8146 23.5774 67.282 24.5107C66.7493 25.4396 66.483 26.7543 66.483 28.4545C66.483 29.5881 66.6023 30.5511 66.8409 31.3438C67.0795 32.1364 67.4226 32.7393 67.87 33.1527C68.3217 33.5661 68.8651 33.7727 69.5 33.7727Z" fill="black"/>
</svg>
