<svg width="58" height="58" viewBox="0 0 58 58" fill="none" xmlns="http://www.w3.org/2000/svg">
<rect y="-6.10352e-05" width="58" height="58" rx="11" fill="#283952"/>
<path d="M34.0715 27.9999H32.4862C32.3925 27.544 32.2284 27.1434 31.9941 26.7982C31.7639 26.4531 31.4827 26.1633 31.1503 25.9289C30.8222 25.6903 30.4578 25.5113 30.0573 25.392C29.6567 25.2727 29.2391 25.213 28.8044 25.213C28.0118 25.213 27.2938 25.4133 26.6503 25.8139C26.0111 26.2144 25.5019 26.8046 25.1226 27.5845C24.7476 28.3643 24.5601 29.321 24.5601 30.4545C24.5601 31.588 24.7476 32.5447 25.1226 33.3245C25.5019 34.1043 26.0111 34.6945 26.6503 35.0951C27.2938 35.4957 28.0118 35.696 28.8044 35.696C29.2391 35.696 29.6567 35.6363 30.0573 35.517C30.4578 35.3977 30.8222 35.2208 31.1503 34.9864C31.4827 34.7478 31.7639 34.4559 31.9941 34.1107C32.2284 33.7613 32.3925 33.3607 32.4862 32.909H34.0715C33.9521 33.5781 33.7348 34.1768 33.4195 34.7052C33.1041 35.2336 32.7121 35.6832 32.2433 36.0539C31.7746 36.4204 31.2483 36.6995 30.6645 36.8913C30.085 37.083 29.4649 37.1789 28.8044 37.1789C27.6879 37.1789 26.695 36.9062 25.8257 36.3607C24.9564 35.8153 24.2725 35.0397 23.7739 34.034C23.2753 33.0283 23.026 31.8352 23.026 30.4545C23.026 29.0738 23.2753 27.8806 23.7739 26.8749C24.2725 25.8693 24.9564 25.0937 25.8257 24.5482C26.695 24.0028 27.6879 23.7301 28.8044 23.7301C29.4649 23.7301 30.085 23.8259 30.6645 24.0177C31.2483 24.2095 31.7746 24.4907 32.2433 24.8614C32.7121 25.2279 33.1041 25.6754 33.4195 26.2038C33.7348 26.7279 33.9521 27.3266 34.0715 27.9999Z" fill="white"/>
</svg>
