<svg width="58" height="58" viewBox="0 0 58 58" fill="none" xmlns="http://www.w3.org/2000/svg">
<rect width="58" height="58" rx="11" fill="#EEEFF2"/>
<path d="M34.0715 28H32.4862C32.3925 27.544 32.2284 27.1435 31.9941 26.7983C31.7639 26.4531 31.4827 26.1634 31.1503 25.929C30.8222 25.6903 30.4578 25.5114 30.0573 25.392C29.6567 25.2727 29.2391 25.2131 28.8044 25.2131C28.0118 25.2131 27.2938 25.4134 26.6503 25.8139C26.0111 26.2145 25.5019 26.8047 25.1226 27.5845C24.7476 28.3643 24.5601 29.321 24.5601 30.4545C24.5601 31.5881 24.7476 32.5447 25.1226 33.3246C25.5019 34.1044 26.0111 34.6946 26.6503 35.0952C27.2938 35.4957 28.0118 35.696 28.8044 35.696C29.2391 35.696 29.6567 35.6364 30.0573 35.517C30.4578 35.3977 30.8222 35.2209 31.1503 34.9865C31.4827 34.7479 31.7639 34.456 31.9941 34.1108C32.2284 33.7614 32.3925 33.3608 32.4862 32.9091H34.0715C33.9521 33.5781 33.7348 34.1768 33.4195 34.7053C33.1041 35.2337 32.7121 35.6832 32.2433 36.054C31.7746 36.4205 31.2483 36.6996 30.6645 36.8913C30.085 37.0831 29.4649 37.179 28.8044 37.179C27.6879 37.179 26.695 36.9062 25.8257 36.3608C24.9564 35.8153 24.2725 35.0398 23.7739 34.0341C23.2753 33.0284 23.026 31.8352 23.026 30.4545C23.026 29.0739 23.2753 27.8807 23.7739 26.875C24.2725 25.8693 24.9564 25.0938 25.8257 24.5483C26.695 24.0028 27.6879 23.7301 28.8044 23.7301C29.4649 23.7301 30.085 23.826 30.6645 24.0178C31.2483 24.2095 31.7746 24.4908 32.2433 24.8615C32.7121 25.228 33.1041 25.6754 33.4195 26.2038C33.7348 26.728 33.9521 27.3267 34.0715 28Z" fill="black"/>
</svg>
