<svg width="82" height="32" viewBox="0 0 82 32" fill="none" xmlns="http://www.w3.org/2000/svg">
<rect x="35" width="47" height="32" rx="10" fill="#FFFDFD"/>
<path d="M72.5277 21.8819C72.4658 21.7538 72.366 21.6477 72.2418 21.5781C72.1175 21.5086 71.9749 21.4789 71.8333 21.4931H71.243C69.515 21.446 67.854 20.8142 66.5316 19.7009C65.2091 18.5876 64.3034 17.0587 63.9623 15.364C63.6213 13.6693 63.8652 11.9091 64.6541 10.3709C65.4429 8.83277 66.7302 7.60767 68.3055 6.89583C68.4402 6.83932 68.5536 6.7418 68.6296 6.61713C68.7057 6.49246 68.7405 6.34698 68.7291 6.20139C68.7243 6.06142 68.6773 5.92617 68.5943 5.8134C68.5113 5.70062 68.3961 5.61558 68.2638 5.56945C67.1502 5.16827 65.9753 4.96384 64.7916 4.96528C62.0069 4.96528 59.3361 6.07153 57.367 8.04066C55.3979 10.0098 54.2916 12.6805 54.2916 15.4653C54.2916 18.2501 55.3979 20.9208 57.367 22.8899C59.3361 24.859 62.0069 25.9653 64.7916 25.9653C66.2277 25.9739 67.6497 25.6811 68.9655 25.1057C70.2813 24.5303 71.4618 23.6852 72.4305 22.625C72.5161 22.5234 72.5707 22.3994 72.588 22.2677C72.6052 22.136 72.5843 22.0021 72.5277 21.8819ZM64.8125 24.6111C62.396 24.6111 60.0786 23.6512 58.3699 21.9425C56.6613 20.2339 55.7013 17.9164 55.7013 15.5C55.7013 13.0836 56.6613 10.7661 58.3699 9.05747C60.0786 7.34881 62.396 6.38889 64.8125 6.38889C65.2777 6.38646 65.7424 6.42363 66.2013 6.5C64.7138 7.54222 63.5752 9.00891 62.9343 10.7084C62.2935 12.4079 62.1802 14.2612 62.6092 16.0262C63.0383 17.7911 63.9897 19.3856 65.3392 20.6012C66.6887 21.8169 68.3736 22.5972 70.1736 22.8403C68.6277 23.9998 66.7449 24.6217 64.8125 24.6111Z" fill="black"/>
<rect width="47" height="32" rx="10" fill="#595555"/>
<path d="M24 6V5M24 25V24M33 15H34M14 15H15M30.5 8.5L32 7M16 23L17.5 21.5M16 7L17.5 8.5M30.5 21.5L32 23" stroke="white" stroke-width="2" stroke-linecap="round"/>
<path d="M24 19C26.2091 19 28 17.2091 28 15C28 12.7909 26.2091 11 24 11C21.7909 11 20 12.7909 20 15C20 17.2091 21.7909 19 24 19Z" stroke="white" stroke-width="2" stroke-linecap="round"/>
</svg>
