<svg width="82" height="32" viewBox="0 0 82 32" fill="none" xmlns="http://www.w3.org/2000/svg">
<rect x="35" y="-3.05176e-05" width="47" height="32" rx="10" fill="#FFFDFD"/>
<path d="M72.5277 21.8819C72.4658 21.7537 72.366 21.6477 72.2418 21.5781C72.1175 21.5086 71.9749 21.4788 71.8333 21.493H71.243C69.515 21.4459 67.854 20.8141 66.5316 19.7009C65.2091 18.5876 64.3034 17.0587 63.9623 15.364C63.6213 13.6693 63.8652 11.9091 64.6541 10.3709C65.4429 8.83274 66.7302 7.60764 68.3055 6.8958C68.4402 6.83929 68.5536 6.74177 68.6296 6.6171C68.7057 6.49243 68.7405 6.34695 68.7291 6.20136C68.7243 6.06139 68.6773 5.92614 68.5943 5.81336C68.5113 5.70059 68.3961 5.61555 68.2638 5.56941C67.1502 5.16824 65.9753 4.96381 64.7916 4.96525C62.0069 4.96525 59.3361 6.07149 57.367 8.04063C55.3979 10.0098 54.2916 12.6805 54.2916 15.4652C54.2916 18.25 55.3979 20.9207 57.367 22.8899C59.3361 24.859 62.0069 25.9652 64.7916 25.9652C66.2277 25.9739 67.6497 25.681 68.9655 25.1057C70.2813 24.5303 71.4618 23.6852 72.4305 22.625C72.5161 22.5234 72.5707 22.3994 72.588 22.2677C72.6052 22.136 72.5843 22.0021 72.5277 21.8819V21.8819ZM64.8125 24.6111C62.396 24.6111 60.0786 23.6512 58.3699 21.9425C56.6613 20.2338 55.7013 17.9164 55.7013 15.5C55.7013 13.0836 56.6613 10.7661 58.3699 9.05744C60.0786 7.34878 62.396 6.38886 64.8125 6.38886C65.2777 6.38643 65.7424 6.4236 66.2013 6.49997C64.7138 7.54219 63.5752 9.00888 62.9343 10.7084C62.2935 12.4079 62.1802 14.2612 62.6092 16.0261C63.0383 17.7911 63.9897 19.3855 65.3392 20.6012C66.6887 21.8169 68.3736 22.5972 70.1736 22.8402C68.6277 23.9997 66.7449 24.6217 64.8125 24.6111V24.6111Z" fill="black"/>
<rect y="-3.05176e-05" width="47" height="32" rx="10" fill="#595555"/>
<path d="M24 5.99997V4.99997M24 25V24M33 15H34M14 15H15M30.5 8.49997L32 6.99997M16 23L17.5 21.5M16 6.99997L17.5 8.49997M30.5 21.5L32 23" stroke="white" stroke-width="2" stroke-linecap="round"/>
<path d="M24 19C26.2091 19 28 17.2091 28 15C28 12.7908 26.2091 11 24 11C21.7909 11 20 12.7908 20 15C20 17.2091 21.7909 19 24 19Z" stroke="white" stroke-width="2" stroke-linecap="round"/>
</svg>
