<svg width="58" height="58" viewBox="0 0 58 58" fill="none" xmlns="http://www.w3.org/2000/svg">
<rect y="-3.05176e-05" width="58" height="58" rx="11" fill="#283952"/>
<path d="M24.4059 35V33.8494L28.7269 29.1193C29.234 28.5653 29.6516 28.0838 29.9798 27.6747C30.3079 27.2613 30.5508 26.8735 30.7085 26.5113C30.8704 26.1449 30.9513 25.7613 30.9513 25.3608C30.9513 24.9005 30.8406 24.5021 30.619 24.1655C30.4016 23.8288 30.1033 23.5689 29.7241 23.3856C29.3448 23.2024 28.9187 23.1108 28.4457 23.1108C27.9428 23.1108 27.5039 23.2152 27.1289 23.424C26.7582 23.6285 26.4705 23.9162 26.266 24.2869C26.0657 24.6576 25.9656 25.0923 25.9656 25.5909H24.457C24.457 24.8238 24.6339 24.1505 24.9876 23.571C25.3413 22.9914 25.8228 22.5397 26.4322 22.2159C27.0458 21.892 27.734 21.7301 28.4968 21.7301C29.2638 21.7301 29.9435 21.892 30.5359 22.2159C31.1282 22.5397 31.5927 22.9765 31.9293 23.5262C32.266 24.076 32.4343 24.6875 32.4343 25.3608C32.4343 25.8423 32.3469 26.3132 32.1722 26.7734C32.0018 27.2294 31.7035 27.7386 31.2773 28.3011C30.8555 28.8593 30.2695 29.5412 29.5195 30.3466L26.5792 33.4914V33.5937H32.6644V35H24.4059Z" fill="white"/>
</svg>
