<svg width="58" height="58" viewBox="0 0 58 58" fill="none" xmlns="http://www.w3.org/2000/svg">
<rect width="58" height="58" rx="11" fill="#EEEFF2"/>
<path d="M28.5479 35.179C27.7042 35.179 26.9521 35.0341 26.2915 34.7443C25.6353 34.4545 25.1133 34.0518 24.7255 33.5362C24.342 33.0163 24.1332 32.4134 24.0991 31.7273H25.7099C25.744 32.1491 25.8888 32.5135 26.1445 32.8203C26.4002 33.1229 26.7347 33.3572 27.1481 33.5234C27.5614 33.6896 28.0195 33.7727 28.5224 33.7727C29.0849 33.7727 29.5835 33.6747 30.0181 33.4787C30.4528 33.2827 30.7937 33.0099 31.0408 32.6605C31.288 32.3111 31.4116 31.9062 31.4116 31.446C31.4116 30.9645 31.2923 30.5405 31.0536 30.174C30.815 29.8033 30.4656 29.5135 30.0053 29.3047C29.5451 29.0959 28.9826 28.9915 28.3178 28.9915H27.2695V27.5852H28.3178C28.8377 27.5852 29.2937 27.4915 29.6857 27.304C30.082 27.1165 30.391 26.8523 30.6126 26.5114C30.8384 26.1705 30.9513 25.7699 30.9513 25.3097C30.9513 24.8665 30.8533 24.4808 30.6573 24.1527C30.4613 23.8246 30.1843 23.5689 29.8263 23.3857C29.4727 23.2024 29.055 23.1108 28.5735 23.1108C28.1218 23.1108 27.6957 23.1939 27.2951 23.3601C26.8988 23.522 26.5749 23.7585 26.3235 24.0696C26.0721 24.3764 25.9357 24.7472 25.9144 25.1818H24.3803C24.4059 24.4957 24.6126 23.8949 25.0004 23.3793C25.3881 22.8594 25.8952 22.4545 26.5217 22.1648C27.1523 21.875 27.8448 21.7301 28.5991 21.7301C29.4087 21.7301 30.1033 21.8942 30.6829 22.2223C31.2624 22.5462 31.7077 22.9744 32.0188 23.5071C32.3299 24.0398 32.4854 24.6151 32.4854 25.233C32.4854 25.9702 32.2915 26.5987 31.9038 27.1186C31.5202 27.6385 30.9982 27.9986 30.3377 28.1989V28.3011C31.1644 28.4375 31.81 28.7891 32.2745 29.3558C32.739 29.9183 32.9712 30.6151 32.9712 31.446C32.9712 32.1577 32.7773 32.7969 32.3896 33.3636C32.006 33.9261 31.4819 34.3693 30.8171 34.6932C30.1523 35.017 29.396 35.179 28.5479 35.179Z" fill="black"/>
</svg>
