<svg width="58" height="58" viewBox="0 0 58 58" fill="none" xmlns="http://www.w3.org/2000/svg">
<rect y="-3.05176e-05" width="58" height="58" rx="11" fill="#283952"/>
<path d="M28.5479 35.1789C27.7042 35.1789 26.9521 35.0341 26.2915 34.7443C25.6353 34.4545 25.1133 34.0518 24.7255 33.5362C24.342 33.0163 24.1332 32.4133 24.0991 31.7272H25.7099C25.744 32.1491 25.8888 32.5135 26.1445 32.8203C26.4002 33.1228 26.7347 33.3572 27.1481 33.5234C27.5614 33.6896 28.0195 33.7727 28.5224 33.7727C29.0849 33.7727 29.5835 33.6747 30.0181 33.4787C30.4528 33.2826 30.7937 33.0099 31.0408 32.6605C31.288 32.311 31.4116 31.9062 31.4116 31.446C31.4116 30.9645 31.2923 30.5405 31.0536 30.174C30.815 29.8032 30.4656 29.5135 30.0053 29.3047C29.5451 29.0958 28.9826 28.9914 28.3178 28.9914H27.2695V27.5852H28.3178C28.8377 27.5852 29.2937 27.4914 29.6857 27.3039C30.082 27.1164 30.391 26.8522 30.6126 26.5113C30.8384 26.1704 30.9513 25.7699 30.9513 25.3096C30.9513 24.8664 30.8533 24.4808 30.6573 24.1527C30.4613 23.8245 30.1843 23.5689 29.8263 23.3856C29.4727 23.2024 29.055 23.1108 28.5735 23.1108C28.1218 23.1108 27.6957 23.1939 27.2951 23.3601C26.8988 23.522 26.5749 23.7585 26.3235 24.0696C26.0721 24.3764 25.9357 24.7471 25.9144 25.1818H24.3803C24.4059 24.4957 24.6126 23.8949 25.0004 23.3792C25.3881 22.8593 25.8952 22.4545 26.5217 22.1647C27.1523 21.875 27.8448 21.7301 28.5991 21.7301C29.4087 21.7301 30.1033 21.8941 30.6829 22.2223C31.2624 22.5461 31.7077 22.9744 32.0188 23.5071C32.3299 24.0397 32.4854 24.615 32.4854 25.2329C32.4854 25.9701 32.2915 26.5987 31.9038 27.1186C31.5202 27.6385 30.9982 27.9985 30.3377 28.1988V28.3011C31.1644 28.4375 31.81 28.789 32.2745 29.3558C32.739 29.9183 32.9712 30.615 32.9712 31.446C32.9712 32.1576 32.7773 32.7968 32.3896 33.3636C32.006 33.9261 31.4819 34.3693 30.8171 34.6932C30.1523 35.017 29.396 35.1789 28.5479 35.1789Z" fill="white"/>
</svg>
