<svg width="58" height="58" viewBox="0 0 58 58" fill="none" xmlns="http://www.w3.org/2000/svg">
<rect y="-3.05176e-05" width="58" height="58" rx="11" fill="#283952"/>
<path d="M28.4704 35.1789C27.7204 35.1789 27.045 35.0298 26.4442 34.7315C25.8433 34.4332 25.3618 34.0241 24.9996 33.5042C24.6373 32.9843 24.4392 32.392 24.4051 31.7272H25.9392C25.9988 32.3196 26.2673 32.8096 26.7446 33.1974C27.2261 33.5809 27.8014 33.7727 28.4704 33.7727C29.0074 33.7727 29.4846 33.647 29.9023 33.3956C30.3241 33.1441 30.6544 32.799 30.893 32.3601C31.1359 31.9169 31.2574 31.4162 31.2574 30.8579C31.2574 30.2869 31.1317 29.7777 30.8802 29.3302C30.6331 28.8785 30.2922 28.5227 29.8575 28.2628C29.4229 28.0028 28.9264 27.8707 28.3682 27.8664C27.9676 27.8622 27.5564 27.924 27.1345 28.0518C26.7126 28.1754 26.3653 28.3352 26.0926 28.5312L24.6096 28.3522L25.4023 21.9091H32.2034V23.3153H26.7318L26.2716 27.1761H26.3483C26.6167 26.963 26.9534 26.7862 27.3582 26.6456C27.7631 26.5049 28.1849 26.4346 28.6238 26.4346C29.425 26.4346 30.1388 26.6264 30.7652 27.0099C31.3959 27.3892 31.8902 27.9091 32.2481 28.5696C32.6104 29.2301 32.7915 29.9843 32.7915 30.8324C32.7915 31.6676 32.604 32.4133 32.229 33.0696C31.8582 33.7216 31.3469 34.2372 30.6949 34.6164C30.0429 34.9914 29.3014 35.1789 28.4704 35.1789Z" fill="white"/>
</svg>
