<svg width="58" height="58" viewBox="0 0 58 58" fill="none" xmlns="http://www.w3.org/2000/svg">
<rect y="-3.05176e-05" width="58" height="58" rx="11" fill="#283952"/>
<path d="M28.5855 35.1789C28.0486 35.1704 27.5116 35.0682 26.9747 34.8721C26.4378 34.6761 25.9477 34.3459 25.5045 33.8814C25.0613 33.4126 24.7055 32.7798 24.4371 31.9829C24.1686 31.1818 24.0344 30.1761 24.0344 28.9659C24.0344 27.8068 24.143 26.7798 24.3604 25.8849C24.5777 24.9858 24.893 24.2294 25.3064 23.6157C25.7197 22.9978 26.2183 22.5291 26.8021 22.2095C27.3902 21.8899 28.0528 21.7301 28.79 21.7301C29.523 21.7301 30.175 21.8771 30.746 22.1711C31.3213 22.4609 31.79 22.8657 32.1523 23.3856C32.5145 23.9055 32.7488 24.5042 32.8554 25.1818H31.2957C31.1508 24.5937 30.8696 24.1058 30.452 23.718C30.0344 23.3302 29.4804 23.1363 28.79 23.1363C27.7758 23.1363 26.9768 23.5774 26.393 24.4595C25.8135 25.3416 25.5216 26.5795 25.5173 28.1733H25.6196C25.8582 27.811 26.1416 27.5021 26.4697 27.2464C26.8021 26.9865 27.1686 26.7862 27.5692 26.6456C27.9697 26.5049 28.3937 26.4346 28.8412 26.4346C29.5912 26.4346 30.2773 26.6221 30.8994 26.9971C31.5216 27.3679 32.0202 27.8814 32.3952 28.5376C32.7702 29.1896 32.9577 29.9375 32.9577 30.7812C32.9577 31.5909 32.7765 32.3324 32.4143 33.0057C32.0521 33.6747 31.5429 34.2074 30.8866 34.6037C30.2346 34.9957 29.4676 35.1875 28.5855 35.1789ZM28.5855 33.7727C29.1224 33.7727 29.604 33.6385 30.0301 33.37C30.4605 33.1015 30.7993 32.7414 31.0464 32.2897C31.2979 31.838 31.4236 31.3352 31.4236 30.7812C31.4236 30.24 31.3021 29.7478 31.0592 29.3047C30.8206 28.8572 30.4903 28.5014 30.0684 28.2372C29.6508 27.973 29.1736 27.8409 28.6366 27.8409C28.2318 27.8409 27.8547 27.9218 27.5052 28.0838C27.1558 28.2414 26.849 28.4588 26.5848 28.7358C26.3248 29.0128 26.1203 29.3302 25.9711 29.6882C25.822 30.0419 25.7474 30.4147 25.7474 30.8068C25.7474 31.3267 25.8689 31.8125 26.1118 32.2642C26.3589 32.7159 26.6956 33.0802 27.1217 33.3572C27.5521 33.6342 28.04 33.7727 28.5855 33.7727Z" fill="white"/>
</svg>
