<svg width="58" height="58" viewBox="0 0 58 58" fill="none" xmlns="http://www.w3.org/2000/svg">
<rect width="58" height="58" rx="11" fill="#EEEFF2"/>
<path d="M28.5024 37.179C27.6246 37.179 26.849 37.0234 26.1757 36.7124C25.5067 36.397 24.9846 35.9645 24.6096 35.4148C24.2346 34.8608 24.0493 34.2301 24.0535 33.5227C24.0493 32.9687 24.1579 32.4574 24.3795 31.9886C24.6011 31.5156 24.9037 31.1214 25.2872 30.8061C25.675 30.4865 26.1075 30.2841 26.5848 30.1989V30.1222C25.9584 29.9602 25.4598 29.6087 25.089 29.0675C24.7183 28.522 24.5351 27.902 24.5393 27.2074C24.5351 26.5426 24.7034 25.9482 25.0443 25.424C25.3852 24.8999 25.854 24.4865 26.4506 24.1839C27.0514 23.8814 27.7354 23.7301 28.5024 23.7301C29.2609 23.7301 29.9385 23.8814 30.5351 24.1839C31.1317 24.4865 31.6004 24.8999 31.9413 25.424C32.2865 25.9482 32.4612 26.5426 32.4655 27.2074C32.4612 27.902 32.2716 28.522 31.8966 29.0675C31.5258 29.6087 31.0336 29.9602 30.42 30.1222V30.1989C30.893 30.2841 31.3192 30.4865 31.6984 30.8061C32.0777 31.1214 32.3802 31.5156 32.6061 31.9886C32.8319 32.4574 32.947 32.9687 32.9513 33.5227C32.947 34.2301 32.7552 34.8608 32.376 35.4148C32.001 35.9645 31.479 36.397 30.8099 36.7124C30.1452 37.0234 29.376 37.179 28.5024 37.179ZM28.5024 35.7727C29.0947 35.7727 29.6061 35.6768 30.0365 35.4851C30.4669 35.2933 30.7993 35.0227 31.0336 34.6733C31.268 34.3239 31.3873 33.9148 31.3916 33.446C31.3873 32.9517 31.2595 32.5149 31.0081 32.1357C30.7567 31.7564 30.4136 31.4581 29.979 31.2408C29.5486 31.0234 29.0564 30.9148 28.5024 30.9148C27.9442 30.9148 27.4456 31.0234 27.0067 31.2408C26.572 31.4581 26.229 31.7564 25.9775 32.1357C25.7304 32.5149 25.6089 32.9517 25.6132 33.446C25.6089 33.9148 25.7219 34.3239 25.952 34.6733C26.1863 35.0227 26.5209 35.2933 26.9555 35.4851C27.3902 35.6768 27.9058 35.7727 28.5024 35.7727ZM28.5024 29.5597C28.9711 29.5597 29.3866 29.4659 29.7488 29.2784C30.1153 29.0909 30.403 28.8288 30.6118 28.4922C30.8206 28.1555 30.9271 27.7614 30.9314 27.3097C30.9271 26.8665 30.8227 26.4808 30.6182 26.1527C30.4136 25.8203 30.1302 25.5646 29.768 25.3857C29.4058 25.2024 28.9839 25.1108 28.5024 25.1108C28.0123 25.1108 27.5841 25.2024 27.2176 25.3857C26.8511 25.5646 26.5677 25.8203 26.3675 26.1527C26.1672 26.4808 26.0692 26.8665 26.0734 27.3097C26.0692 27.7614 26.1693 28.1555 26.3738 28.4922C26.5827 28.8288 26.8703 29.0909 27.2368 29.2784C27.6032 29.4659 28.0251 29.5597 28.5024 29.5597Z" fill="black"/>
</svg>
