<svg width="58" height="58" viewBox="0 0 58 58" fill="none" xmlns="http://www.w3.org/2000/svg">
<rect y="-6.10352e-05" width="58" height="58" rx="11" fill="#283952"/>
<path d="M28.5024 37.1789C27.6246 37.1789 26.849 37.0234 26.1757 36.7123C25.5067 36.397 24.9846 35.9644 24.6096 35.4147C24.2346 34.8607 24.0493 34.2301 24.0535 33.5227C24.0493 32.9687 24.1579 32.4573 24.3795 31.9886C24.6011 31.5156 24.9037 31.1214 25.2872 30.806C25.675 30.4864 26.1075 30.284 26.5848 30.1988V30.1221C25.9584 29.9602 25.4598 29.6086 25.089 29.0674C24.7183 28.522 24.5351 27.9019 24.5393 27.2073C24.5351 26.5426 24.7034 25.9481 25.0443 25.4239C25.3852 24.8998 25.854 24.4864 26.4506 24.1839C27.0514 23.8813 27.7354 23.7301 28.5024 23.7301C29.2609 23.7301 29.9385 23.8813 30.5351 24.1839C31.1317 24.4864 31.6004 24.8998 31.9413 25.4239C32.2865 25.9481 32.4612 26.5426 32.4655 27.2073C32.4612 27.9019 32.2716 28.522 31.8966 29.0674C31.5258 29.6086 31.0336 29.9602 30.42 30.1221V30.1988C30.893 30.284 31.3192 30.4864 31.6984 30.806C32.0777 31.1214 32.3802 31.5156 32.6061 31.9886C32.8319 32.4573 32.947 32.9687 32.9513 33.5227C32.947 34.2301 32.7552 34.8607 32.376 35.4147C32.001 35.9644 31.479 36.397 30.8099 36.7123C30.1452 37.0234 29.376 37.1789 28.5024 37.1789ZM28.5024 35.7727C29.0947 35.7727 29.6061 35.6768 30.0365 35.485C30.4669 35.2933 30.7993 35.0227 31.0336 34.6732C31.268 34.3238 31.3873 33.9147 31.3916 33.446C31.3873 32.9516 31.2595 32.5149 31.0081 32.1356C30.7567 31.7563 30.4136 31.458 29.979 31.2407C29.5486 31.0234 29.0564 30.9147 28.5024 30.9147C27.9442 30.9147 27.4456 31.0234 27.0067 31.2407C26.572 31.458 26.229 31.7563 25.9775 32.1356C25.7304 32.5149 25.6089 32.9516 25.6132 33.446C25.6089 33.9147 25.7219 34.3238 25.952 34.6732C26.1863 35.0227 26.5209 35.2933 26.9555 35.485C27.3902 35.6768 27.9058 35.7727 28.5024 35.7727ZM28.5024 29.5596C28.9711 29.5596 29.3866 29.4658 29.7488 29.2783C30.1153 29.0908 30.403 28.8288 30.6118 28.4921C30.8206 28.1555 30.9271 27.7613 30.9314 27.3096C30.9271 26.8664 30.8227 26.4808 30.6182 26.1526C30.4136 25.8203 30.1302 25.5646 29.768 25.3856C29.4058 25.2024 28.9839 25.1107 28.5024 25.1107C28.0123 25.1107 27.5841 25.2024 27.2176 25.3856C26.8511 25.5646 26.5677 25.8203 26.3675 26.1526C26.1672 26.4808 26.0692 26.8664 26.0734 27.3096C26.0692 27.7613 26.1693 28.1555 26.3738 28.4921C26.5827 28.8288 26.8703 29.0908 27.2368 29.2783C27.6032 29.4658 28.0251 29.5596 28.5024 29.5596Z" fill="white"/>
</svg>
