<svg width="58" height="58" viewBox="0 0 58 58" fill="none" xmlns="http://www.w3.org/2000/svg">
<rect width="58" height="58" rx="11" fill="#EEEFF2"/>
<path d="M28.4065 23.7301C28.9434 23.7344 29.4804 23.8366 30.0173 24.0369C30.5542 24.2372 31.0443 24.5696 31.4875 25.0341C31.9307 25.4943 32.2865 26.1229 32.555 26.9197C32.8234 27.7166 32.9577 28.7159 32.9577 29.9176C32.9577 31.081 32.8469 32.1143 32.6253 33.0178C32.4079 33.9169 32.0926 34.6754 31.6792 35.2933C31.2702 35.9112 30.7716 36.38 30.1835 36.6996C29.5997 37.0192 28.9392 37.179 28.202 37.179C27.469 37.179 26.8149 37.0341 26.2396 36.7443C25.6686 36.4503 25.1998 36.0433 24.8334 35.5234C24.4711 34.9993 24.2389 34.392 24.1366 33.7017H25.6963C25.8369 34.3026 26.116 34.799 26.5336 35.1911C26.9555 35.5788 27.5116 35.7727 28.202 35.7727C29.2119 35.7727 30.0088 35.3317 30.5926 34.4496C31.1807 33.5675 31.4747 32.321 31.4747 30.7102H31.3724C31.1338 31.0682 30.8504 31.3771 30.5223 31.6371C30.1942 31.897 29.8298 32.0973 29.4292 32.2379C29.0287 32.3786 28.6025 32.4489 28.1508 32.4489C27.4008 32.4489 26.7126 32.2635 26.0862 31.8928C25.464 31.5178 24.9655 31.0043 24.5905 30.3523C24.2197 29.696 24.0344 28.946 24.0344 28.1023C24.0344 27.3011 24.2133 26.5682 24.5713 25.9034C24.9335 25.2344 25.4406 24.7017 26.0926 24.3054C26.7488 23.9091 27.5202 23.7173 28.4065 23.7301ZM28.4065 25.1364C27.8696 25.1364 27.3859 25.2706 26.9555 25.5391C26.5294 25.8033 26.1906 26.1612 25.9392 26.6129C25.692 27.0604 25.5684 27.5568 25.5684 28.1023C25.5684 28.6477 25.6878 29.1442 25.9264 29.5916C26.1693 30.0348 26.4996 30.3885 26.9172 30.6527C27.339 30.9126 27.8184 31.0426 28.3554 31.0426C28.7602 31.0426 29.1373 30.9638 29.4868 30.8061C29.8362 30.6442 30.1409 30.4247 30.4008 30.1477C30.665 29.8665 30.8717 29.549 31.0209 29.1953C31.17 28.8374 31.2446 28.4645 31.2446 28.0767C31.2446 27.5653 31.121 27.0859 30.8738 26.6385C30.6309 26.1911 30.2943 25.8288 29.8639 25.5518C29.4378 25.2749 28.952 25.1364 28.4065 25.1364Z" fill="black"/>
</svg>
