<svg width="58" height="58" viewBox="0 0 58 58" fill="none" xmlns="http://www.w3.org/2000/svg">
<rect y="-3.05176e-05" width="58" height="58" rx="11" fill="#283952"/>
<path d="M28.5016 35.1022C28.1863 35.1022 27.9157 34.9893 27.6898 34.7635C27.464 34.5376 27.351 34.267 27.351 33.9517C27.351 33.6363 27.464 33.3657 27.6898 33.1399C27.9157 32.914 28.1863 32.8011 28.5016 32.8011C28.8169 32.8011 29.0875 32.914 29.3134 33.1399C29.5392 33.3657 29.6522 33.6363 29.6522 33.9517C29.6522 34.1605 29.5989 34.3522 29.4924 34.527C29.3901 34.7017 29.2516 34.8423 29.0769 34.9488C28.9064 35.0511 28.7147 35.1022 28.5016 35.1022Z" fill="white"/>
</svg>
