<svg width="173" height="68" viewBox="0 0 173 68" fill="none" xmlns="http://www.w3.org/2000/svg">
<rect width="173" height="68" rx="16" fill="white"/>
<path d="M32.39 17.615C32.77 17.675 33.115 17.83 33.425 18.08C33.745 18.33 33.995 18.64 34.175 19.01C34.365 19.38 34.46 19.775 34.46 20.195C34.46 20.725 34.325 21.205 34.055 21.635C33.785 22.055 33.39 22.39 32.87 22.64C32.36 22.88 31.755 23 31.055 23H27.155V12.545H30.905C31.615 12.545 32.22 12.665 32.72 12.905C33.22 13.135 33.595 13.45 33.845 13.85C34.095 14.25 34.22 14.7 34.22 15.2C34.22 15.82 34.05 16.335 33.71 16.745C33.38 17.145 32.94 17.435 32.39 17.615ZM28.52 17.06H30.815C31.455 17.06 31.95 16.91 32.3 16.61C32.65 16.31 32.825 15.895 32.825 15.365C32.825 14.835 32.65 14.42 32.3 14.12C31.95 13.82 31.445 13.67 30.785 13.67H28.52V17.06ZM30.935 21.875C31.615 21.875 32.145 21.715 32.525 21.395C32.905 21.075 33.095 20.63 33.095 20.06C33.095 19.48 32.895 19.025 32.495 18.695C32.095 18.355 31.56 18.185 30.89 18.185H28.52V21.875H30.935ZM37.7192 16.115C37.9592 15.645 38.2992 15.28 38.7392 15.02C39.1892 14.76 39.7342 14.63 40.3742 14.63V16.04H40.0142C38.4842 16.04 37.7192 16.87 37.7192 18.53V23H36.3542V14.78H37.7192V16.115ZM41.4399 18.86C41.4399 18.02 41.6099 17.285 41.9499 16.655C42.2899 16.015 42.7549 15.52 43.3449 15.17C43.9449 14.82 44.6099 14.645 45.3399 14.645C46.0599 14.645 46.6849 14.8 47.2149 15.11C47.7449 15.42 48.1399 15.81 48.3999 16.28V14.78H49.7799V23H48.3999V21.47C48.1299 21.95 47.7249 22.35 47.1849 22.67C46.6549 22.98 46.0349 23.135 45.3249 23.135C44.5949 23.135 43.9349 22.955 43.3449 22.595C42.7549 22.235 42.2899 21.73 41.9499 21.08C41.6099 20.43 41.4399 19.69 41.4399 18.86ZM48.3999 18.875C48.3999 18.255 48.2749 17.715 48.0249 17.255C47.7749 16.795 47.4349 16.445 47.0049 16.205C46.5849 15.955 46.1199 15.83 45.6099 15.83C45.0999 15.83 44.6349 15.95 44.2149 16.19C43.7949 16.43 43.4599 16.78 43.2099 17.24C42.9599 17.7 42.8349 18.24 42.8349 18.86C42.8349 19.49 42.9599 20.04 43.2099 20.51C43.4599 20.97 43.7949 21.325 44.2149 21.575C44.6349 21.815 45.0999 21.935 45.6099 21.935C46.1199 21.935 46.5849 21.815 47.0049 21.575C47.4349 21.325 47.7749 20.97 48.0249 20.51C48.2749 20.04 48.3999 19.495 48.3999 18.875ZM56.0916 14.63C57.0916 14.63 57.9016 14.935 58.5216 15.545C59.1416 16.145 59.4516 17.015 59.4516 18.155V23H58.1016V18.35C58.1016 17.53 57.8966 16.905 57.4866 16.475C57.0766 16.035 56.5166 15.815 55.8066 15.815C55.0866 15.815 54.5116 16.04 54.0816 16.49C53.6616 16.94 53.4516 17.595 53.4516 18.455V23H52.0866V14.78H53.4516V15.95C53.7216 15.53 54.0866 15.205 54.5466 14.975C55.0166 14.745 55.5316 14.63 56.0916 14.63ZM61.1714 18.86C61.1714 18.02 61.3414 17.285 61.6814 16.655C62.0214 16.015 62.4864 15.52 63.0764 15.17C63.6764 14.82 64.3464 14.645 65.0864 14.645C65.7264 14.645 66.3214 14.795 66.8714 15.095C67.4214 15.385 67.8414 15.77 68.1314 16.25V11.9H69.5114V23H68.1314V21.455C67.8614 21.945 67.4614 22.35 66.9314 22.67C66.4014 22.98 65.7814 23.135 65.0714 23.135C64.3414 23.135 63.6764 22.955 63.0764 22.595C62.4864 22.235 62.0214 21.73 61.6814 21.08C61.3414 20.43 61.1714 19.69 61.1714 18.86ZM68.1314 18.875C68.1314 18.255 68.0064 17.715 67.7564 17.255C67.5064 16.795 67.1664 16.445 66.7364 16.205C66.3164 15.955 65.8514 15.83 65.3414 15.83C64.8314 15.83 64.3664 15.95 63.9464 16.19C63.5264 16.43 63.1914 16.78 62.9414 17.24C62.6914 17.7 62.5664 18.24 62.5664 18.86C62.5664 19.49 62.6914 20.04 62.9414 20.51C63.1914 20.97 63.5264 21.325 63.9464 21.575C64.3664 21.815 64.8314 21.935 65.3414 21.935C65.8514 21.935 66.3164 21.815 66.7364 21.575C67.1664 21.325 67.5064 20.97 67.7564 20.51C68.0064 20.04 68.1314 19.495 68.1314 18.875ZM72.2531 23.09C71.9931 23.09 71.7731 23 71.5931 22.82C71.4131 22.64 71.3231 22.42 71.3231 22.16C71.3231 21.9 71.4131 21.68 71.5931 21.5C71.7731 21.32 71.9931 21.23 72.2531 21.23C72.5031 21.23 72.7131 21.32 72.8831 21.5C73.0631 21.68 73.1531 21.9 73.1531 22.16C73.1531 22.42 73.0631 22.64 72.8831 22.82C72.7131 23 72.5031 23.09 72.2531 23.09ZM72.2531 16.67C71.9931 16.67 71.7731 16.58 71.5931 16.4C71.4131 16.22 71.3231 16 71.3231 15.74C71.3231 15.48 71.4131 15.26 71.5931 15.08C71.7731 14.9 71.9931 14.81 72.2531 14.81C72.5031 14.81 72.7131 14.9 72.8831 15.08C73.0631 15.26 73.1531 15.48 73.1531 15.74C73.1531 16 73.0631 16.22 72.8831 16.4C72.7131 16.58 72.5031 16.67 72.2531 16.67Z" fill="black"/>
<path d="M20.1113 14.6347L16.3613 13.0722C16.2471 13.0248 16.1246 13.0004 16.001 13.0004C15.8773 13.0004 15.7549 13.0248 15.6406 13.0722L11.8906 14.6347C11.541 14.7792 11.3125 15.121 11.3125 15.4999C11.3125 19.3769 13.5488 22.0566 15.6387 22.9276C15.8691 23.0233 16.1289 23.0233 16.3594 22.9276C18.0332 22.2304 20.6875 19.8222 20.6875 15.4999C20.6875 15.121 20.459 14.7792 20.1113 14.6347ZM16.002 21.7167L16 14.2753L19.4355 15.7069C19.3711 18.664 17.832 20.8066 16.002 21.7167V21.7167Z" fill="black"/>
</svg>
