<svg width="86" height="78" viewBox="0 0 86 78" fill="none" xmlns="http://www.w3.org/2000/svg">
<g filter="url(#filter0_d_14_5)">
<rect x="4" width="78" height="70" rx="10" fill="#D1D2E9"/>
</g>
<path d="M20.3228 34.7527C20.3228 34.2807 20.4935 33.8677 20.8561 33.5334C21.2188 33.2187 21.6668 33.0614 22.1361 33.0614H26.4881C26.9788 33.0614 27.3841 33.2187 27.7255 33.553C28.0455 33.8874 28.2161 34.2807 28.2161 34.7527C28.2161 35.2247 28.0668 35.618 27.7468 35.9524C27.4268 36.2867 27.0001 36.444 26.5095 36.444H22.1575C21.6668 36.444 21.2401 36.2867 20.8775 35.9524C20.7007 35.7981 20.5603 35.6121 20.4649 35.4057C20.3695 35.1993 20.3211 34.977 20.3228 34.7527V34.7527ZM26.4241 48.3817C26.4241 47.9294 26.5948 47.536 26.9148 47.182L30.0508 44.3697C30.3708 44.055 30.7975 43.9174 31.3095 43.9174C31.8215 43.9174 32.2481 44.0747 32.5895 44.3697C32.9308 44.6647 33.1015 45.0384 33.1015 45.4907C33.1015 45.9627 32.9308 46.3954 32.5895 46.7494L29.5601 49.542C28.6855 50.1714 27.8108 50.1714 26.9361 49.542C26.7699 49.3908 26.6387 49.2099 26.5507 49.0104C26.4627 48.8109 26.4196 48.597 26.4241 48.3817V48.3817ZM26.4241 21.163C26.4241 20.7107 26.5948 20.3174 26.9148 19.9634C27.3415 19.629 27.7895 19.4717 28.2801 19.4717C28.7495 19.4717 29.1761 19.629 29.5388 19.9437L32.5895 22.8347C32.9308 23.1297 33.1015 23.523 33.1015 23.995C33.1015 24.467 32.9308 24.8604 32.5895 25.175C32.2481 25.4897 31.8215 25.647 31.3095 25.647C30.7975 25.647 30.3708 25.4897 30.0508 25.175L26.9361 22.3627C26.7676 22.2048 26.6354 22.0171 26.5474 21.811C26.4595 21.6049 26.4175 21.3845 26.4241 21.163V21.163ZM31.8641 34.7527C31.8641 32.9237 32.3548 31.2127 33.3575 29.6394C34.3601 28.066 35.7041 26.8074 37.4321 25.883C39.1601 24.9587 40.9948 24.5064 42.9788 24.5064C44.4721 24.5064 45.9015 24.7817 47.2881 25.3324C48.6535 25.883 49.8481 26.6107 50.8295 27.535C51.8321 28.4594 52.6215 29.541 53.1975 30.7997C53.7735 32.0584 54.0721 33.3957 54.0721 34.7724C54.0721 36.621 53.5815 38.332 52.5788 39.9054C51.5761 41.4787 50.2321 42.7177 48.5255 43.642C46.8188 44.5664 44.9628 45.0187 42.9575 45.0187C40.9521 45.0187 39.0961 44.5664 37.3895 43.642C35.6828 42.7177 34.3388 41.4787 33.3361 39.9054C32.3761 38.3124 31.8641 36.6014 31.8641 34.7527V34.7527ZM41.1655 50.0534C41.1655 49.5814 41.3361 49.188 41.6988 48.8734C42.0615 48.5587 42.4881 48.4014 42.9788 48.4014C43.4908 48.4014 43.9388 48.5587 44.2801 48.8734C44.6215 49.188 44.7921 49.5814 44.7921 50.0534V53.967C44.7921 54.439 44.6215 54.852 44.2588 55.1864C43.8961 55.5207 43.4695 55.678 42.9788 55.678C42.4881 55.678 42.0401 55.5207 41.6988 55.1864C41.5246 55.0272 41.3875 54.837 41.2958 54.6274C41.2041 54.4177 41.1597 54.193 41.1655 53.967V50.0534ZM41.1655 19.57V15.558C41.1655 15.1057 41.3361 14.7124 41.6988 14.378C42.0615 14.0437 42.4881 13.8667 43.0001 13.8667C43.5121 13.8667 43.9175 14.024 44.2801 14.3584C44.6428 14.6927 44.8135 15.086 44.8135 15.5384V19.57C44.8135 20.0224 44.6428 20.396 44.2801 20.7107C43.9175 21.0254 43.4908 21.163 43.0001 21.163C42.5095 21.163 42.0615 21.0057 41.7201 20.7107C41.3788 20.4157 41.1655 20.0224 41.1655 19.57V19.57ZM41.4001 28.066C43.2561 28.2824 44.8135 29.0297 46.0721 30.3277C47.3308 31.6257 47.9708 33.1597 47.9708 34.91C47.9708 36.5424 47.4161 37.978 46.3068 39.2367C45.1975 40.4757 43.7895 41.282 42.0828 41.6164C42.5095 41.6557 42.8295 41.695 43.0215 41.695C45.0908 41.695 46.8828 41.0067 48.3548 39.6497C49.8268 38.2927 50.5735 36.6604 50.5735 34.733C50.5735 32.845 49.8268 31.2324 48.3548 29.8754C46.8828 28.538 45.1121 27.8694 43.0215 27.8694C42.4455 27.9087 41.9121 27.9677 41.4001 28.066V28.066ZM52.9415 45.4907C52.9415 45.0384 53.1121 44.6647 53.4321 44.3894C53.7521 44.0747 54.1575 43.937 54.6268 43.937C55.1388 43.937 55.5655 44.0944 55.9068 44.3894L59.0215 47.2017C59.3628 47.536 59.5335 47.949 59.5335 48.4014C59.5335 48.8537 59.3628 49.247 59.0215 49.5617C58.1681 50.1714 57.3148 50.1714 56.4615 49.5617L53.4321 46.769C53.105 46.4123 52.9305 45.9577 52.9415 45.4907ZM52.9415 24.0147C52.9415 23.523 53.1121 23.1297 53.4321 22.8544L56.4615 19.9634C56.7975 19.6598 57.2496 19.4903 57.7201 19.4914C58.2321 19.4914 58.6588 19.6487 59.0001 19.983C59.3628 20.3174 59.5335 20.7107 59.5335 21.163C59.5335 21.6547 59.3628 22.0677 59.0215 22.3824L55.9068 25.1947C55.5228 25.5094 55.0961 25.6667 54.6268 25.6667C54.1361 25.6667 53.7521 25.5094 53.4321 25.1947C53.1121 24.88 52.9415 24.4867 52.9415 24.0147V24.0147ZM57.7628 34.7527C57.7628 34.2807 57.9335 33.8874 58.2748 33.5334C58.6161 33.2187 59.0215 33.0614 59.4908 33.0614H63.8001C64.2908 33.0614 64.7175 33.2384 65.0801 33.5727C65.4428 33.907 65.6348 34.3004 65.6348 34.7527C65.6348 35.205 65.4428 35.5984 65.0801 35.9327C64.7175 36.267 64.2908 36.4244 63.8001 36.4244H59.4908C59.0001 36.4244 58.5735 36.267 58.2535 35.9327C57.9335 35.5984 57.7628 35.2247 57.7628 34.7527Z" fill="black"/>
<defs>
<filter id="filter0_d_14_5" x="0" y="0" width="86" height="78" filterUnits="userSpaceOnUse" color-interpolation-filters="sRGB">
<feFlood flood-opacity="0" result="BackgroundImageFix"/>
<feColorMatrix in="SourceAlpha" type="matrix" values="0 0 0 0 0 0 0 0 0 0 0 0 0 0 0 0 0 0 127 0" result="hardAlpha"/>
<feOffset dy="4"/>
<feGaussianBlur stdDeviation="2"/>
<feComposite in2="hardAlpha" operator="out"/>
<feColorMatrix type="matrix" values="0 0 0 0 0 0 0 0 0 0 0 0 0 0 0 0 0 0 0.25 0"/>
<feBlend mode="normal" in2="BackgroundImageFix" result="effect1_dropShadow_14_5"/>
<feBlend mode="normal" in="SourceGraphic" in2="effect1_dropShadow_14_5" result="shape"/>
</filter>
</defs>
</svg>
