<svg width="66" height="75" viewBox="0 0 66 75" fill="none" xmlns="http://www.w3.org/2000/svg">
<path d="M50 0H16C7.16344 0 0 7.16344 0 16V52C0 60.8366 7.16344 68 16 68H50C58.8366 68 66 60.8366 66 52V16C66 7.16344 58.8366 0 50 0Z" fill="#AEF0B9"/>
<path d="M19.41 52.545C20.55 52.545 21.535 52.76 22.365 53.19C23.205 53.61 23.845 54.215 24.285 55.005C24.735 55.795 24.96 56.725 24.96 57.795C24.96 58.865 24.735 59.795 24.285 60.585C23.845 61.365 23.205 61.965 22.365 62.385C21.535 62.795 20.55 63 19.41 63H16.155V52.545H19.41ZM19.41 61.875C20.76 61.875 21.79 61.52 22.5 60.81C23.21 60.09 23.565 59.085 23.565 57.795C23.565 56.495 23.205 55.48 22.485 54.75C21.775 54.02 20.75 53.655 19.41 53.655H17.52V61.875H19.41ZM26.2505 58.86C26.2505 58.02 26.4205 57.285 26.7605 56.655C27.1005 56.015 27.5655 55.52 28.1555 55.17C28.7555 54.82 29.4205 54.645 30.1505 54.645C30.8705 54.645 31.4955 54.8 32.0255 55.11C32.5555 55.42 32.9505 55.81 33.2105 56.28V54.78H34.5905V63H33.2105V61.47C32.9405 61.95 32.5355 62.35 31.9955 62.67C31.4655 62.98 30.8455 63.135 30.1355 63.135C29.4055 63.135 28.7455 62.955 28.1555 62.595C27.5655 62.235 27.1005 61.73 26.7605 61.08C26.4205 60.43 26.2505 59.69 26.2505 58.86ZM33.2105 58.875C33.2105 58.255 33.0855 57.715 32.8355 57.255C32.5855 56.795 32.2455 56.445 31.8155 56.205C31.3955 55.955 30.9305 55.83 30.4205 55.83C29.9105 55.83 29.4455 55.95 29.0255 56.19C28.6055 56.43 28.2705 56.78 28.0205 57.24C27.7705 57.7 27.6455 58.24 27.6455 58.86C27.6455 59.49 27.7705 60.04 28.0205 60.51C28.2705 60.97 28.6055 61.325 29.0255 61.575C29.4455 61.815 29.9105 61.935 30.4205 61.935C30.9305 61.935 31.3955 61.815 31.8155 61.575C32.2455 61.325 32.5855 60.97 32.8355 60.51C33.0855 60.04 33.2105 59.495 33.2105 58.875ZM38.2622 56.115C38.5022 55.645 38.8422 55.28 39.2822 55.02C39.7322 54.76 40.2772 54.63 40.9172 54.63V56.04H40.5572C39.0272 56.04 38.2622 56.87 38.2622 58.53V63H36.8972V54.78H38.2622V56.115ZM47.0829 63L43.8579 59.37V63H42.4929V51.9H43.8579V58.425L47.0229 54.78H48.9279L45.0579 58.875L48.9429 63H47.0829Z" fill="black"/>
<path d="M34.625 50.8333H34.4167C31.5594 50.8116 28.7352 50.2199 26.1095 49.0931C23.4838 47.9662 21.1092 46.3268 19.125 44.2708C15.4455 40.336 13.3539 35.1777 13.2539 29.7915C13.1539 24.4053 15.0525 19.1729 18.5833 15.1042C20.8581 12.5549 23.7178 10.596 26.9167 9.39582C27.2899 9.25219 27.6966 9.21903 28.0882 9.30031C28.4798 9.38158 28.8397 9.57385 29.125 9.85415C29.3892 10.1236 29.5753 10.4597 29.6633 10.8266C29.7514 11.1935 29.7381 11.5775 29.625 11.9375C28.4832 15.0644 28.257 18.4522 28.9729 21.7032C29.6888 24.9541 31.3171 27.9335 33.6667 30.2917C36.0382 32.634 39.0246 34.2568 42.2802 34.9721C45.5359 35.6874 48.9275 35.4659 52.0625 34.3333C52.4356 34.202 52.8385 34.1796 53.2239 34.2687C53.6093 34.3579 53.9613 34.555 54.2388 34.8369C54.5164 35.1188 54.7079 35.4739 54.791 35.8606C54.8742 36.2474 54.8455 36.6498 54.7083 37.0208C53.6441 39.8619 51.9815 42.441 49.8333 44.5833C47.8351 46.5756 45.4628 48.1534 42.8529 49.226C40.2429 50.2986 37.4467 50.8448 34.625 50.8333V50.8333ZM24.5417 15.25C23.4951 15.9839 22.5374 16.8369 21.6875 17.7917C18.8219 21.0753 17.2779 25.3061 17.3549 29.6635C17.4319 34.021 19.1244 38.1946 22.1042 41.375C23.7053 43.0379 25.6235 44.3629 27.7454 45.2718C29.8673 46.1807 32.15 46.655 34.4583 46.6667H34.625C37.3879 46.6651 40.1106 46.0046 42.5671 44.7401C45.0237 43.4756 47.1433 41.6435 48.75 39.3958C45.4757 39.8201 42.1478 39.4883 39.0217 38.4258C35.8957 37.3634 33.0548 35.5986 30.7171 33.267C28.3795 30.9354 26.6074 28.099 25.5368 24.9757C24.4663 21.8524 24.1259 18.5253 24.5417 15.25V15.25Z" fill="black"/>
</svg>
