<svg width="66" height="75" viewBox="0 0 66 75" fill="none" xmlns="http://www.w3.org/2000/svg">
<rect width="66" height="68" rx="16" fill="#ABE7EB"/>
<path d="M19.41 49.545C20.55 49.545 21.535 49.76 22.365 50.19C23.205 50.61 23.845 51.215 24.285 52.005C24.735 52.795 24.96 53.725 24.96 54.795C24.96 55.865 24.735 56.795 24.285 57.585C23.845 58.365 23.205 58.965 22.365 59.385C21.535 59.795 20.55 60 19.41 60H16.155V49.545H19.41ZM19.41 58.875C20.76 58.875 21.79 58.52 22.5 57.81C23.21 57.09 23.565 56.085 23.565 54.795C23.565 53.495 23.205 52.48 22.485 51.75C21.775 51.02 20.75 50.655 19.41 50.655H17.52V58.875H19.41ZM26.2505 55.86C26.2505 55.02 26.4205 54.285 26.7605 53.655C27.1005 53.015 27.5655 52.52 28.1555 52.17C28.7555 51.82 29.4205 51.645 30.1505 51.645C30.8705 51.645 31.4955 51.8 32.0255 52.11C32.5555 52.42 32.9505 52.81 33.2105 53.28V51.78H34.5905V60H33.2105V58.47C32.9405 58.95 32.5355 59.35 31.9955 59.67C31.4655 59.98 30.8455 60.135 30.1355 60.135C29.4055 60.135 28.7455 59.955 28.1555 59.595C27.5655 59.235 27.1005 58.73 26.7605 58.08C26.4205 57.43 26.2505 56.69 26.2505 55.86ZM33.2105 55.875C33.2105 55.255 33.0855 54.715 32.8355 54.255C32.5855 53.795 32.2455 53.445 31.8155 53.205C31.3955 52.955 30.9305 52.83 30.4205 52.83C29.9105 52.83 29.4455 52.95 29.0255 53.19C28.6055 53.43 28.2705 53.78 28.0205 54.24C27.7705 54.7 27.6455 55.24 27.6455 55.86C27.6455 56.49 27.7705 57.04 28.0205 57.51C28.2705 57.97 28.6055 58.325 29.0255 58.575C29.4455 58.815 29.9105 58.935 30.4205 58.935C30.9305 58.935 31.3955 58.815 31.8155 58.575C32.2455 58.325 32.5855 57.97 32.8355 57.51C33.0855 57.04 33.2105 56.495 33.2105 55.875ZM38.2622 53.115C38.5022 52.645 38.8422 52.28 39.2822 52.02C39.7322 51.76 40.2772 51.63 40.9172 51.63V53.04H40.5572C39.0272 53.04 38.2622 53.87 38.2622 55.53V60H36.8972V51.78H38.2622V53.115ZM47.0829 60L43.8579 56.37V60H42.4929V48.9H43.8579V55.425L47.0229 51.78H48.9279L45.0579 55.875L48.9429 60H47.0829Z" fill="black"/>
<path d="M47.93 33.055C48.27 32.2248 47.2983 31.5175 46.4833 31.8865C44.8543 32.6195 43.0941 32.9965 41.315 32.9935C34.34 32.9935 28.6867 27.315 28.6867 20.3092C28.6841 17.9437 29.3398 15.6266 30.5767 13.6296C31.05 12.8642 30.4817 11.8051 29.615 12.0306C22.9333 13.7782 18 19.8804 18 27.1391C18 35.761 24.9583 42.7498 33.5433 42.7498C40.0433 42.7498 45.61 38.7438 47.93 33.055Z" stroke="black" stroke-width="2"/>
<path d="M39.0183 7.17561C38.135 6.57086 37.0817 7.65052 37.67 8.55594L38.72 10.1703C39.146 10.8249 39.3733 11.5941 39.3733 12.3809C39.3733 13.1677 39.146 13.9369 38.72 14.5915L37.67 16.2059C37.0817 17.1113 38.1367 18.1909 39.02 17.5862L40.5933 16.5099C41.232 16.0733 41.9824 15.8404 42.75 15.8404C43.5176 15.8404 44.2681 16.0733 44.9067 16.5099L46.4817 17.5862C47.365 18.1909 48.4183 17.1113 47.8283 16.2059L46.7783 14.5915C46.3524 13.9369 46.1251 13.1677 46.1251 12.3809C46.1251 11.5941 46.3524 10.8249 46.7783 10.1703L47.8283 8.55594C48.4183 7.65052 47.365 6.57086 46.48 7.17561L44.9067 8.25186C44.2681 8.68845 43.5176 8.92144 42.75 8.92144C41.9824 8.92144 41.232 8.68845 40.5933 8.25186L39.0183 7.17561V7.17561Z" stroke="black" stroke-width="2"/>
</svg>
