<svg width="173" height="68" viewBox="0 0 173 68" fill="none" xmlns="http://www.w3.org/2000/svg">
<rect width="173" height="68" rx="16" fill="white"/>
<path d="M25.645 15.765C25.645 14.745 25.875 13.83 26.335 13.02C26.795 12.2 27.42 11.56 28.21 11.1C29.01 10.64 29.895 10.41 30.865 10.41C32.005 10.41 33 10.685 33.85 11.235C34.7 11.785 35.32 12.565 35.71 13.575H34.075C33.785 12.945 33.365 12.46 32.815 12.12C32.275 11.78 31.625 11.61 30.865 11.61C30.135 11.61 29.48 11.78 28.9 12.12C28.32 12.46 27.865 12.945 27.535 13.575C27.205 14.195 27.04 14.925 27.04 15.765C27.04 16.595 27.205 17.325 27.535 17.955C27.865 18.575 28.32 19.055 28.9 19.395C29.48 19.735 30.135 19.905 30.865 19.905C31.625 19.905 32.275 19.74 32.815 19.41C33.365 19.07 33.785 18.585 34.075 17.955H35.71C35.32 18.955 34.7 19.73 33.85 20.28C33 20.82 32.005 21.09 30.865 21.09C29.895 21.09 29.01 20.865 28.21 20.415C27.42 19.955 26.795 19.32 26.335 18.51C25.875 17.7 25.645 16.785 25.645 15.765ZM41.3269 21.135C40.5569 21.135 39.8569 20.96 39.2269 20.61C38.6069 20.26 38.1169 19.765 37.7569 19.125C37.4069 18.475 37.2319 17.725 37.2319 16.875C37.2319 16.035 37.4119 15.295 37.7719 14.655C38.1419 14.005 38.6419 13.51 39.2719 13.17C39.9019 12.82 40.6069 12.645 41.3869 12.645C42.1669 12.645 42.8719 12.82 43.5019 13.17C44.1319 13.51 44.6269 14 44.9869 14.64C45.3569 15.28 45.5419 16.025 45.5419 16.875C45.5419 17.725 45.3519 18.475 44.9719 19.125C44.6019 19.765 44.0969 20.26 43.4569 20.61C42.8169 20.96 42.1069 21.135 41.3269 21.135ZM41.3269 19.935C41.8169 19.935 42.2769 19.82 42.7069 19.59C43.1369 19.36 43.4819 19.015 43.7419 18.555C44.0119 18.095 44.1469 17.535 44.1469 16.875C44.1469 16.215 44.0169 15.655 43.7569 15.195C43.4969 14.735 43.1569 14.395 42.7369 14.175C42.3169 13.945 41.8619 13.83 41.3719 13.83C40.8719 13.83 40.4119 13.945 39.9919 14.175C39.5819 14.395 39.2519 14.735 39.0019 15.195C38.7519 15.655 38.6269 16.215 38.6269 16.875C38.6269 17.545 38.7469 18.11 38.9869 18.57C39.2369 19.03 39.5669 19.375 39.9769 19.605C40.3869 19.825 40.8369 19.935 41.3269 19.935ZM48.7016 9.9V21H47.3366V9.9H48.7016ZM54.613 21.135C53.843 21.135 53.143 20.96 52.513 20.61C51.893 20.26 51.403 19.765 51.043 19.125C50.693 18.475 50.518 17.725 50.518 16.875C50.518 16.035 50.698 15.295 51.058 14.655C51.428 14.005 51.928 13.51 52.558 13.17C53.188 12.82 53.893 12.645 54.673 12.645C55.453 12.645 56.158 12.82 56.788 13.17C57.418 13.51 57.913 14 58.273 14.64C58.643 15.28 58.828 16.025 58.828 16.875C58.828 17.725 58.638 18.475 58.258 19.125C57.888 19.765 57.383 20.26 56.743 20.61C56.103 20.96 55.393 21.135 54.613 21.135ZM54.613 19.935C55.103 19.935 55.563 19.82 55.993 19.59C56.423 19.36 56.768 19.015 57.028 18.555C57.298 18.095 57.433 17.535 57.433 16.875C57.433 16.215 57.303 15.655 57.043 15.195C56.783 14.735 56.443 14.395 56.023 14.175C55.603 13.945 55.148 13.83 54.658 13.83C54.158 13.83 53.698 13.945 53.278 14.175C52.868 14.395 52.538 14.735 52.288 15.195C52.038 15.655 51.913 16.215 51.913 16.875C51.913 17.545 52.033 18.11 52.273 18.57C52.523 19.03 52.853 19.375 53.263 19.605C53.673 19.825 54.123 19.935 54.613 19.935ZM61.9878 14.115C62.2278 13.645 62.5678 13.28 63.0078 13.02C63.4578 12.76 64.0028 12.63 64.6428 12.63V14.04H64.2828C62.7528 14.04 61.9878 14.87 61.9878 16.53V21H60.6228V12.78H61.9878V14.115ZM66.6535 21.09C66.3935 21.09 66.1735 21 65.9935 20.82C65.8135 20.64 65.7235 20.42 65.7235 20.16C65.7235 19.9 65.8135 19.68 65.9935 19.5C66.1735 19.32 66.3935 19.23 66.6535 19.23C66.9035 19.23 67.1135 19.32 67.2835 19.5C67.4635 19.68 67.5535 19.9 67.5535 20.16C67.5535 20.42 67.4635 20.64 67.2835 20.82C67.1135 21 66.9035 21.09 66.6535 21.09ZM66.6535 14.67C66.3935 14.67 66.1735 14.58 65.9935 14.4C65.8135 14.22 65.7235 14 65.7235 13.74C65.7235 13.48 65.8135 13.26 65.9935 13.08C66.1735 12.9 66.3935 12.81 66.6535 12.81C66.9035 12.81 67.1135 12.9 67.2835 13.08C67.4635 13.26 67.5535 13.48 67.5535 13.74C67.5535 14 67.4635 14.22 67.2835 14.4C67.1135 14.58 66.9035 14.67 66.6535 14.67Z" fill="black"/>
<path d="M20.1113 12.6347L16.3613 11.0722C16.2471 11.0248 16.1246 11.0004 16.001 11.0004C15.8773 11.0004 15.7549 11.0248 15.6406 11.0722L11.8906 12.6347C11.541 12.7792 11.3125 13.121 11.3125 13.4999C11.3125 17.3769 13.5488 20.0566 15.6387 20.9276C15.8691 21.0233 16.1289 21.0233 16.3594 20.9276C18.0332 20.2304 20.6875 17.8222 20.6875 13.4999C20.6875 13.121 20.459 12.7792 20.1113 12.6347ZM16.002 19.7167L16 12.2753L19.4355 13.7069C19.3711 16.664 17.832 18.8066 16.002 19.7167V19.7167Z" fill="black"/>
</svg>
