<svg width="67" height="70" viewBox="0 0 67 70" fill="none" xmlns="http://www.w3.org/2000/svg">
<path d="M51 0H16C7.16344 0 0 7.16344 0 16V54C0 62.8366 7.16344 70 16 70H51C59.8366 70 67 62.8366 67 54V16C67 7.16344 59.8366 0 51 0Z" fill="#2CD6B7"/>
<path d="M33.5 7.33337C43.3792 7.33337 51.4165 14.81 51.4165 24C51.4165 33.19 43.3792 40.6667 33.5 40.6667C23.6207 40.6667 15.5833 33.19 15.5833 24C15.5833 14.81 23.6207 7.33337 33.5 7.33337ZM33.5 37.3333C41.403 37.3333 47.8333 31.3517 47.8333 24C47.8333 16.6483 41.403 10.6667 33.5 10.6667C25.5969 10.6667 19.1666 16.6483 19.1666 24C19.1666 31.3517 25.5969 37.3333 33.5 37.3333Z" fill="black"/>
<path d="M31.7084 30.6667L22.75 24L31.7084 17.3333V30.6667ZM42.4584 30.6667L33.5 24L42.4584 17.3333V30.6667Z" fill="black"/>
<path d="M9.44469 62V52.5455H15.1137V53.5611H10.5896V56.7557H14.689V57.7713H10.5896V62H9.44469ZM19.287 62.1477C18.6469 62.1477 18.0852 61.9954 17.602 61.6907C17.1219 61.386 16.7464 60.9598 16.4756 60.4119C16.2078 59.8641 16.074 59.224 16.074 58.4915C16.074 57.7528 16.2078 57.1081 16.4756 56.5572C16.7464 56.0063 17.1219 55.5785 17.602 55.2738C18.0852 54.9691 18.6469 54.8168 19.287 54.8168C19.9272 54.8168 20.4873 54.9691 20.9674 55.2738C21.4506 55.5785 21.8261 56.0063 22.0938 56.5572C22.3647 57.1081 22.5001 57.7528 22.5001 58.4915C22.5001 59.224 22.3647 59.8641 22.0938 60.4119C21.8261 60.9598 21.4506 61.386 20.9674 61.6907C20.4873 61.9954 19.9272 62.1477 19.287 62.1477ZM19.287 61.169C19.7733 61.169 20.1734 61.0444 20.4873 60.7951C20.8012 60.5458 21.0336 60.218 21.1844 59.8118C21.3352 59.4055 21.4106 58.9654 21.4106 58.4915C21.4106 58.0175 21.3352 57.5759 21.1844 57.1665C21.0336 56.7572 20.8012 56.4264 20.4873 56.174C20.1734 55.9216 19.7733 55.7955 19.287 55.7955C18.8008 55.7955 18.4007 55.9216 18.0867 56.174C17.7728 56.4264 17.5405 56.7572 17.3896 57.1665C17.2388 57.5759 17.1634 58.0175 17.1634 58.4915C17.1634 58.9654 17.2388 59.4055 17.3896 59.8118C17.5405 60.218 17.7728 60.5458 18.0867 60.7951C18.4007 61.0444 18.8008 61.169 19.287 61.169ZM24.1632 62V54.9091H25.2157V55.9801H25.2896C25.4189 55.6293 25.6528 55.3446 25.9913 55.1261C26.3298 54.9076 26.7115 54.7983 27.1362 54.7983C27.2162 54.7983 27.3162 54.7998 27.4363 54.8029C27.5563 54.806 27.6471 54.8106 27.7086 54.8168V55.9247C27.6717 55.9155 27.5871 55.9016 27.4547 55.8832C27.3255 55.8616 27.1885 55.8509 27.0439 55.8509C26.6992 55.8509 26.3914 55.9232 26.1206 56.0678C25.8528 56.2094 25.6404 56.4064 25.4835 56.6587C25.3296 56.908 25.2527 57.1927 25.2527 57.5128V62H24.1632ZM30.7209 62L28.5604 54.9091H29.7053L31.2379 60.3381H31.3118L32.826 54.9091H33.9893L35.4851 60.3196H35.5589L37.0916 54.9091H38.2365L36.076 62H35.005L33.4538 56.5526H33.343L31.7919 62H30.7209ZM41.7635 62.1662C41.3142 62.1662 40.9064 62.0816 40.5401 61.9123C40.1739 61.7399 39.883 61.4922 39.6676 61.169C39.4522 60.8428 39.3445 60.4489 39.3445 59.9872C39.3445 59.581 39.4245 59.2517 39.5845 58.9993C39.7446 58.7438 39.9585 58.5438 40.2262 58.3991C40.494 58.2545 40.7894 58.1468 41.1126 58.076C41.4388 58.0021 41.7666 57.9437 42.0959 57.9006C42.5268 57.8452 42.8761 57.8036 43.1438 57.7759C43.4147 57.7451 43.6116 57.6944 43.7347 57.6236C43.8609 57.5528 43.924 57.4297 43.924 57.2543V57.2173C43.924 56.7618 43.7994 56.4079 43.5501 56.1555C43.3039 55.9032 42.9299 55.777 42.4283 55.777C41.9081 55.777 41.5004 55.8909 41.2049 56.1186C40.9094 56.3464 40.7017 56.5895 40.5817 56.848L39.5476 56.4787C39.7322 56.0478 39.9785 55.7124 40.2862 55.4723C40.5971 55.2292 40.9356 55.0599 41.3018 54.9645C41.6712 54.866 42.0343 54.8168 42.3913 54.8168C42.6191 54.8168 42.8807 54.8445 43.1761 54.8999C43.4747 54.9522 43.7624 55.0614 44.0394 55.2276C44.3195 55.3938 44.5518 55.6446 44.7365 55.9801C44.9212 56.3156 45.0135 56.7649 45.0135 57.3281V62H43.924V61.0398H43.8686C43.7947 61.1937 43.6716 61.3583 43.4993 61.5337C43.3269 61.7092 43.0977 61.8584 42.8114 61.9815C42.5252 62.1046 42.1759 62.1662 41.7635 62.1662ZM41.9297 61.1875C42.3606 61.1875 42.7237 61.1029 43.0192 60.9336C43.3177 60.7643 43.5424 60.5458 43.6932 60.2781C43.8471 60.0103 43.924 59.7287 43.924 59.4332V58.4361C43.8778 58.4915 43.7763 58.5423 43.6193 58.5884C43.4654 58.6315 43.2869 58.67 43.0838 58.7038C42.8838 58.7346 42.6883 58.7623 42.4975 58.7869C42.3098 58.8085 42.1574 58.8269 42.0405 58.8423C41.7573 58.8793 41.4927 58.9393 41.2464 59.0224C41.0033 59.1024 40.8063 59.224 40.6555 59.3871C40.5078 59.5471 40.4339 59.7656 40.4339 60.0426C40.4339 60.4212 40.574 60.7074 40.854 60.9013C41.1372 61.0921 41.4957 61.1875 41.9297 61.1875ZM47.002 62V54.9091H48.0546V55.9801H48.1285C48.2577 55.6293 48.4916 55.3446 48.8302 55.1261C49.1687 54.9076 49.5503 54.7983 49.9751 54.7983C50.0551 54.7983 50.1551 54.7998 50.2751 54.8029C50.3952 54.806 50.4859 54.8106 50.5475 54.8168V55.9247C50.5106 55.9155 50.4259 55.9016 50.2936 55.8832C50.1643 55.8616 50.0274 55.8509 49.8827 55.8509C49.538 55.8509 49.2303 55.9232 48.9594 56.0678C48.6917 56.2094 48.4793 56.4064 48.3224 56.6587C48.1685 56.908 48.0915 57.1927 48.0915 57.5128V62H47.002ZM54.3007 62.1477C53.7098 62.1477 53.1881 61.9985 52.7357 61.6999C52.2833 61.3983 51.9294 60.9736 51.6739 60.4258C51.4185 59.8749 51.2907 59.224 51.2907 58.473C51.2907 57.7282 51.4185 57.0819 51.6739 56.5341C51.9294 55.9863 52.2848 55.5631 52.7403 55.2646C53.1958 54.966 53.7221 54.8168 54.3192 54.8168C54.7808 54.8168 55.1455 54.8937 55.4133 55.0476C55.6841 55.1984 55.8903 55.3707 56.0319 55.5646C56.1765 55.7554 56.2889 55.9124 56.3689 56.0355H56.4612V52.5455H57.5507V62H56.4981V60.9105H56.3689C56.2889 61.0398 56.175 61.2029 56.0273 61.3999C55.8795 61.5937 55.6687 61.7676 55.3948 61.9215C55.1209 62.0723 54.7562 62.1477 54.3007 62.1477ZM54.4484 61.169C54.8854 61.169 55.2548 61.0552 55.5564 60.8274C55.858 60.5966 56.0873 60.2781 56.2442 59.8718C56.4012 59.4625 56.4797 58.9901 56.4797 58.4545C56.4797 57.9252 56.4027 57.462 56.2488 57.065C56.095 56.6649 55.8672 56.354 55.5656 56.1325C55.264 55.9078 54.8916 55.7955 54.4484 55.7955C53.9868 55.7955 53.6021 55.9139 53.2943 56.1509C52.9896 56.3848 52.7603 56.7034 52.6064 57.1065C52.4556 57.5066 52.3802 57.956 52.3802 58.4545C52.3802 58.9593 52.4572 59.4179 52.6111 59.8303C52.768 60.2396 52.9988 60.5658 53.3035 60.8089C53.6113 61.049 53.9929 61.169 54.4484 61.169Z" fill="black"/>
</svg>
