<svg width="67" height="70" viewBox="0 0 67 70" fill="none" xmlns="http://www.w3.org/2000/svg">
<rect width="67" height="70" rx="16" fill="#ABE7EB"/>
<path d="M34.5 40.6667C24.6208 40.6667 16.5834 33.19 16.5834 24C16.5834 14.81 24.6208 7.33332 34.5 7.33332C44.3793 7.33332 52.4167 14.81 52.4167 24C52.4167 33.19 44.3793 40.6667 34.5 40.6667ZM34.5 10.6667C26.597 10.6667 20.1667 16.6483 20.1667 24C20.1667 31.3517 26.597 37.3333 34.5 37.3333C42.4031 37.3333 48.8334 31.3517 48.8334 24C48.8334 16.6483 42.4031 10.6667 34.5 10.6667Z" fill="black"/>
<path d="M36.2916 17.3333L45.25 24L36.2916 30.6667V17.3333ZM25.5416 17.3333L34.5 24L25.5416 30.6667V17.3333Z" fill="black"/>
<path d="M8.23295 63V52.8182H14.3381V53.9119H9.46591V57.3523H13.8807V58.446H9.46591V63H8.23295ZM18.8324 63.1591C18.143 63.1591 17.5381 62.995 17.0178 62.6669C16.5007 62.3388 16.0964 61.8797 15.8047 61.2898C15.5163 60.6998 15.3722 60.0104 15.3722 59.2216C15.3722 58.4261 15.5163 57.7318 15.8047 57.1385C16.0964 56.5452 16.5007 56.0845 17.0178 55.7564C17.5381 55.4283 18.143 55.2642 18.8324 55.2642C19.5218 55.2642 20.125 55.4283 20.642 55.7564C21.1624 56.0845 21.5668 56.5452 21.8551 57.1385C22.1468 57.7318 22.2926 58.4261 22.2926 59.2216C22.2926 60.0104 22.1468 60.6998 21.8551 61.2898C21.5668 61.8797 21.1624 62.3388 20.642 62.6669C20.125 62.995 19.5218 63.1591 18.8324 63.1591ZM18.8324 62.1051C19.3561 62.1051 19.7869 61.9709 20.125 61.7024C20.4631 61.4339 20.7133 61.081 20.8757 60.6435C21.0381 60.206 21.1193 59.732 21.1193 59.2216C21.1193 58.7112 21.0381 58.2356 20.8757 57.7947C20.7133 57.3539 20.4631 56.9976 20.125 56.7259C19.7869 56.4541 19.3561 56.3182 18.8324 56.3182C18.3087 56.3182 17.8778 56.4541 17.5398 56.7259C17.2017 56.9976 16.9515 57.3539 16.7891 57.7947C16.6267 58.2356 16.5455 58.7112 16.5455 59.2216C16.5455 59.732 16.6267 60.206 16.7891 60.6435C16.9515 61.081 17.2017 61.4339 17.5398 61.7024C17.8778 61.9709 18.3087 62.1051 18.8324 62.1051ZM24.0836 63V55.3636H25.2172V56.517H25.2967C25.4359 56.1392 25.6878 55.8326 26.0524 55.5973C26.417 55.362 26.8279 55.2443 27.2853 55.2443C27.3715 55.2443 27.4792 55.246 27.6085 55.2493C27.7377 55.2526 27.8355 55.2576 27.9018 55.2642V56.4574C27.862 56.4474 27.7709 56.4325 27.6284 56.4126C27.4892 56.3894 27.3417 56.3778 27.1859 56.3778C26.8147 56.3778 26.4833 56.4557 26.1916 56.6115C25.9032 56.764 25.6745 56.9761 25.5055 57.2479C25.3398 57.5163 25.2569 57.8229 25.2569 58.1676V63H24.0836ZM31.1458 63L28.8191 55.3636H30.052L31.7026 61.2102H31.7821L33.4128 55.3636H34.6657L36.2765 61.1903H36.356L38.0066 55.3636H39.2395L36.9128 63H35.7594L34.089 57.1335H33.9696L32.2992 63H31.1458ZM43.0378 63.179C42.5539 63.179 42.1148 63.0878 41.7203 62.9055C41.3259 62.7199 41.0127 62.4531 40.7807 62.1051C40.5487 61.7538 40.4327 61.3295 40.4327 60.8324C40.4327 60.3949 40.5189 60.0402 40.6912 59.7685C40.8636 59.4934 41.0939 59.2779 41.3823 59.1222C41.6706 58.9664 41.9888 58.8504 42.3368 58.7741C42.6882 58.6946 43.0411 58.6316 43.3958 58.5852C43.8598 58.5256 44.236 58.4808 44.5243 58.451C44.816 58.4179 45.0281 58.3632 45.1607 58.2869C45.2966 58.2107 45.3645 58.0781 45.3645 57.8892V57.8494C45.3645 57.3589 45.2303 56.9777 44.9618 56.706C44.6967 56.4342 44.294 56.2983 43.7537 56.2983C43.1936 56.2983 42.7544 56.4209 42.4363 56.6662C42.1181 56.9115 41.8944 57.1733 41.7651 57.4517L40.6515 57.054C40.8503 56.59 41.1155 56.2287 41.4469 55.9702C41.7817 55.7083 42.1462 55.526 42.5407 55.4233C42.9384 55.3172 43.3295 55.2642 43.714 55.2642C43.9592 55.2642 44.2409 55.294 44.5591 55.3537C44.8806 55.41 45.1905 55.5277 45.4888 55.7067C45.7904 55.8857 46.0407 56.1558 46.2395 56.517C46.4384 56.8783 46.5378 57.3622 46.5378 57.9688V63H45.3645V61.9659H45.3049C45.2253 62.1316 45.0927 62.3089 44.9071 62.4979C44.7215 62.6868 44.4746 62.8475 44.1664 62.9801C43.8581 63.1127 43.4819 63.179 43.0378 63.179ZM43.2168 62.125C43.6808 62.125 44.0719 62.0339 44.3901 61.8516C44.7116 61.6693 44.9535 61.4339 45.1159 61.1456C45.2817 60.8572 45.3645 60.554 45.3645 60.2358V59.1619C45.3148 59.2216 45.2054 59.2763 45.0364 59.326C44.8707 59.3724 44.6784 59.4138 44.4597 59.4503C44.2443 59.4834 44.0338 59.5133 43.8283 59.5398C43.6261 59.563 43.4621 59.5829 43.3361 59.5994C43.0312 59.6392 42.7462 59.7038 42.481 59.7933C42.2192 59.8795 42.007 60.0104 41.8446 60.1861C41.6855 60.3584 41.606 60.5937 41.606 60.892C41.606 61.2997 41.7568 61.608 42.0584 61.8168C42.3633 62.0223 42.7495 62.125 43.2168 62.125ZM48.6793 63V55.3636H49.8129V56.517H49.8924C50.0316 56.1392 50.2835 55.8326 50.6481 55.5973C51.0127 55.362 51.4237 55.2443 51.881 55.2443C51.9672 55.2443 52.0749 55.246 52.2042 55.2493C52.3335 55.2526 52.4312 55.2576 52.4975 55.2642V56.4574C52.4577 56.4474 52.3666 56.4325 52.2241 56.4126C52.0849 56.3894 51.9374 56.3778 51.7816 56.3778C51.4104 56.3778 51.079 56.4557 50.7873 56.6115C50.4989 56.764 50.2702 56.9761 50.1012 57.2479C49.9355 57.5163 49.8526 57.8229 49.8526 58.1676V63H48.6793ZM56.5394 63.1591C55.9031 63.1591 55.3413 62.9983 54.854 62.6768C54.3668 62.352 53.9857 61.8946 53.7106 61.3047C53.4355 60.7114 53.2979 60.0104 53.2979 59.2017C53.2979 58.3996 53.4355 57.7036 53.7106 57.1136C53.9857 56.5237 54.3685 56.0679 54.859 55.7464C55.3496 55.425 55.9163 55.2642 56.5593 55.2642C57.0565 55.2642 57.4492 55.3471 57.7376 55.5128C58.0292 55.6752 58.2513 55.8608 58.4038 56.0696C58.5595 56.2751 58.6805 56.4441 58.7667 56.5767H58.8661V52.8182H60.0394V63H58.9059V61.8267H58.7667C58.6805 61.9659 58.5579 62.1416 58.3988 62.3537C58.2397 62.5625 58.0127 62.7498 57.7177 62.9155C57.4227 63.0779 57.0299 63.1591 56.5394 63.1591ZM56.6985 62.1051C57.1692 62.1051 57.5669 61.9825 57.8917 61.7372C58.2165 61.4886 58.4634 61.1456 58.6325 60.7081C58.8015 60.2673 58.886 59.7585 58.886 59.1818C58.886 58.6117 58.8031 58.1129 58.6374 57.6854C58.4717 57.2545 58.2264 56.9197 57.9016 56.6811C57.5768 56.4392 57.1758 56.3182 56.6985 56.3182C56.2013 56.3182 55.7871 56.4458 55.4556 56.701C55.1275 56.9529 54.8806 57.2959 54.7148 57.7301C54.5524 58.161 54.4712 58.6449 54.4712 59.1818C54.4712 59.7254 54.5541 60.2192 54.7198 60.6634C54.8888 61.1042 55.1374 61.4555 55.4656 61.7173C55.797 61.9759 56.208 62.1051 56.6985 62.1051Z" fill="white"/>
</svg>
