<svg width="86" height="78" viewBox="0 0 86 78" fill="none" xmlns="http://www.w3.org/2000/svg">
<g filter="url(#filter0_d_14_2)">
<rect x="4" width="78" height="70" rx="16" fill="#C9C2C2"/>
</g>
<path d="M33.3 13.6155C37.8312 15.4515 41.8187 18.3155 44.5375 22.0608C45.9875 24.0436 46.8937 26.1733 47.4375 28.303C48.1625 31.1671 47.5281 35.2796 41.275 33.8843C37.9219 33.1499 34.6594 38.0702 40.9125 39.4655C42.725 39.8327 36.6531 41.0077 41.275 43.064C41.275 43.064 36.2906 44.0186 39.3719 45.928C40.7313 46.8093 39.1906 48.2046 38.375 48.7921C37.1063 49.6733 35.6562 50.4077 34.1156 51.1421C29.7656 53.0515 24.9625 53.9327 20.25 53.8593C28.6781 58.339 40.0062 58.9265 49.5219 54.6671C62.9344 48.6452 67.7375 35.2061 60.2156 24.6311C54.6875 16.7733 43.9031 12.7343 33.3 13.6155Z" fill="#FFE8A6"/>
<path d="M51.878 46.8829C50.5186 46.5892 49.1592 47.1767 48.7967 48.2782C48.4342 49.3064 49.2499 50.4079 50.5186 50.7017C51.7874 50.9954 53.2374 50.4079 53.5999 49.3064C53.9624 48.2782 53.2374 47.1767 51.878 46.8829ZM55.503 23.0157C54.1436 22.722 52.7842 23.3095 52.4217 24.4111C52.0592 25.4392 52.8749 26.5407 54.1436 26.8345C55.503 27.1282 56.8624 26.5407 57.2249 25.4392C57.5874 24.4111 56.8624 23.3095 55.503 23.0157ZM43.903 47.6173C41.728 47.1032 39.3717 48.1314 38.828 49.8939C38.1936 51.6564 39.4624 53.4923 41.728 53.9329C43.9936 54.3736 46.2592 53.4189 46.803 51.6564C47.4374 49.9673 46.1686 48.1314 43.903 47.6173ZM59.3092 34.8392C56.953 34.3251 54.5967 35.4267 53.9624 37.2626C53.328 39.0986 54.6874 41.0079 56.953 41.522C59.3092 42.0361 61.6655 40.9345 62.2999 39.0986C63.0249 37.2626 61.6655 35.3532 59.3092 34.8392ZM35.0217 52.4642C33.9342 52.2439 32.8467 52.7579 32.5749 53.5657C32.303 54.3736 32.9374 55.2548 33.9342 55.4751C35.0217 55.6954 36.1092 55.1814 36.3811 54.3736C36.653 53.6392 36.0186 52.7579 35.0217 52.4642ZM47.8905 17.4345C47.0749 17.2876 46.1686 17.6548 45.9874 18.3157C45.7155 18.9767 46.2592 19.6376 47.0749 19.8579C47.8905 20.0048 48.7967 19.6376 48.978 18.9767C49.2499 18.3157 48.7061 17.5814 47.8905 17.4345Z" fill="#F4DC9F"/>
<path d="M54.2343 42.6235C53.9624 42.9907 53.4187 43.2845 52.9655 43.5048C52.4218 43.7251 51.878 43.872 51.3343 43.9454C50.2468 44.1657 49.0687 44.1657 47.8905 44.1657C46.7124 44.0923 45.6249 44.0188 44.5374 43.7985C43.4499 43.5782 42.3624 43.3579 41.2749 42.9907C43.5405 43.1376 45.7155 43.3579 47.8905 43.4313C48.978 43.5048 50.0655 43.5048 51.153 43.4313C51.6968 43.3579 52.2405 43.3579 52.7843 43.211C53.328 43.1376 53.7812 42.9173 54.2343 42.6235Z" fill="#7F5629"/>
<path d="M46.8938 46.3688C45.7157 46.4422 44.7188 46.2954 43.6313 46.2219C43.0876 46.1485 42.5438 46.1485 42.0907 46.1485C41.547 46.1485 41.0938 46.1485 40.4595 46.2219C40.822 45.8547 41.4563 45.6344 42.0001 45.561C42.5438 45.4876 43.1782 45.4875 43.722 45.4875C44.9001 45.6344 45.9876 45.8547 46.8938 46.3688Z" fill="#B79918"/>
<path d="M44.2654 39.539C43.9936 39.3921 43.7217 39.3186 43.5404 39.2452L42.9061 39.1718C42.4529 39.0249 41.9092 38.878 41.4561 38.5108C42.0904 38.364 42.5436 38.364 43.1779 38.4374C43.4498 38.5108 43.7217 38.5843 43.9936 38.8046C44.1748 39.0249 44.3561 39.3186 44.2654 39.539Z" fill="#7F5629"/>
<path d="M52.9654 28.8906C55.4123 29.4046 57.2248 31.5343 56.5904 33.5171C55.8654 35.4999 52.9654 36.5281 50.5186 36.014C48.0717 35.4999 48.5248 33.8843 49.2498 31.9015C49.8842 29.9187 50.4279 28.3765 52.9654 28.8906Z" fill="white"/>
<path d="M51.7874 30.0656C53.328 30.4328 54.5968 31.7547 54.2343 33.0031C53.8718 34.2516 51.7874 34.8391 50.2468 34.5453C48.7062 34.1781 49.0687 33.2234 49.4312 31.975C49.8843 30.7266 50.2468 29.6984 51.7874 30.0656Z" fill="#7F5629"/>
<path d="M46.6221 37.8501C47.2564 38.5845 48.1627 38.9517 49.0689 39.3188L51.8783 40.4204C52.7846 40.7876 53.7814 41.2282 54.5971 41.8157C55.0502 42.1095 55.4127 42.4767 55.6846 42.8438C55.9564 43.2845 56.0471 43.7251 55.8658 44.1657C55.7752 43.2845 54.9596 42.697 54.1439 42.2563C53.3283 41.8157 52.3314 41.4485 51.4252 41.0079C50.5189 40.6407 49.5221 40.2001 48.6158 39.686C47.8908 39.3923 46.9846 38.7313 46.6221 37.8501Z" fill="#B79918"/>
<defs>
<filter id="filter0_d_14_2" x="0" y="0" width="86" height="78" filterUnits="userSpaceOnUse" color-interpolation-filters="sRGB">
<feFlood flood-opacity="0" result="BackgroundImageFix"/>
<feColorMatrix in="SourceAlpha" type="matrix" values="0 0 0 0 0 0 0 0 0 0 0 0 0 0 0 0 0 0 127 0" result="hardAlpha"/>
<feOffset dy="4"/>
<feGaussianBlur stdDeviation="2"/>
<feComposite in2="hardAlpha" operator="out"/>
<feColorMatrix type="matrix" values="0 0 0 0 0 0 0 0 0 0 0 0 0 0 0 0 0 0 0.25 0"/>
<feBlend mode="normal" in2="BackgroundImageFix" result="effect1_dropShadow_14_2"/>
<feBlend mode="normal" in="SourceGraphic" in2="effect1_dropShadow_14_2" result="shape"/>
</filter>
</defs>
</svg>
