<svg width="173" height="68" viewBox="0 0 173 68" fill="none" xmlns="http://www.w3.org/2000/svg">
<rect width="173" height="68" rx="16" fill="white"/>
<path d="M37.76 10.62V21H36.395V13.26L32.945 21H31.985L28.52 13.245V21H27.155V10.62H28.625L32.465 19.2L36.305 10.62H37.76ZM43.6599 21.135C42.8899 21.135 42.1899 20.96 41.5599 20.61C40.9399 20.26 40.4499 19.765 40.0899 19.125C39.7399 18.475 39.5649 17.725 39.5649 16.875C39.5649 16.035 39.7449 15.295 40.1049 14.655C40.4749 14.005 40.9749 13.51 41.6049 13.17C42.2349 12.82 42.9399 12.645 43.7199 12.645C44.4999 12.645 45.2049 12.82 45.8349 13.17C46.4649 13.51 46.9599 14 47.3199 14.64C47.6899 15.28 47.8749 16.025 47.8749 16.875C47.8749 17.725 47.6849 18.475 47.3049 19.125C46.9349 19.765 46.4299 20.26 45.7899 20.61C45.1499 20.96 44.4399 21.135 43.6599 21.135ZM43.6599 19.935C44.1499 19.935 44.6099 19.82 45.0399 19.59C45.4699 19.36 45.8149 19.015 46.0749 18.555C46.3449 18.095 46.4799 17.535 46.4799 16.875C46.4799 16.215 46.3499 15.655 46.0899 15.195C45.8299 14.735 45.4899 14.395 45.0699 14.175C44.6499 13.945 44.1949 13.83 43.7049 13.83C43.2049 13.83 42.7449 13.945 42.3249 14.175C41.9149 14.395 41.5849 14.735 41.3349 15.195C41.0849 15.655 40.9599 16.215 40.9599 16.875C40.9599 17.545 41.0799 18.11 41.3199 18.57C41.5699 19.03 41.8999 19.375 42.3099 19.605C42.7199 19.825 43.1699 19.935 43.6599 19.935ZM49.1596 16.86C49.1596 16.02 49.3296 15.285 49.6696 14.655C50.0096 14.015 50.4746 13.52 51.0646 13.17C51.6646 12.82 52.3346 12.645 53.0746 12.645C53.7146 12.645 54.3096 12.795 54.8596 13.095C55.4096 13.385 55.8296 13.77 56.1196 14.25V9.9H57.4996V21H56.1196V19.455C55.8496 19.945 55.4496 20.35 54.9196 20.67C54.3896 20.98 53.7696 21.135 53.0596 21.135C52.3296 21.135 51.6646 20.955 51.0646 20.595C50.4746 20.235 50.0096 19.73 49.6696 19.08C49.3296 18.43 49.1596 17.69 49.1596 16.86ZM56.1196 16.875C56.1196 16.255 55.9946 15.715 55.7446 15.255C55.4946 14.795 55.1546 14.445 54.7246 14.205C54.3046 13.955 53.8396 13.83 53.3296 13.83C52.8196 13.83 52.3546 13.95 51.9346 14.19C51.5146 14.43 51.1796 14.78 50.9296 15.24C50.6796 15.7 50.5546 16.24 50.5546 16.86C50.5546 17.49 50.6796 18.04 50.9296 18.51C51.1796 18.97 51.5146 19.325 51.9346 19.575C52.3546 19.815 52.8196 19.935 53.3296 19.935C53.8396 19.935 54.3046 19.815 54.7246 19.575C55.1546 19.325 55.4946 18.97 55.7446 18.51C55.9946 18.04 56.1196 17.495 56.1196 16.875ZM67.3064 16.575C67.3064 16.835 67.2914 17.11 67.2614 17.4H60.6914C60.7414 18.21 61.0164 18.845 61.5164 19.305C62.0264 19.755 62.6414 19.98 63.3614 19.98C63.9514 19.98 64.4414 19.845 64.8314 19.575C65.2314 19.295 65.5114 18.925 65.6714 18.465H67.1414C66.9214 19.255 66.4814 19.9 65.8214 20.4C65.1614 20.89 64.3414 21.135 63.3614 21.135C62.5814 21.135 61.8814 20.96 61.2614 20.61C60.6514 20.26 60.1714 19.765 59.8214 19.125C59.4714 18.475 59.2964 17.725 59.2964 16.875C59.2964 16.025 59.4664 15.28 59.8064 14.64C60.1464 14 60.6214 13.51 61.2314 13.17C61.8514 12.82 62.5614 12.645 63.3614 12.645C64.1414 12.645 64.8314 12.815 65.4314 13.155C66.0314 13.495 66.4914 13.965 66.8114 14.565C67.1414 15.155 67.3064 15.825 67.3064 16.575ZM65.8964 16.29C65.8964 15.77 65.7814 15.325 65.5514 14.955C65.3214 14.575 65.0064 14.29 64.6064 14.1C64.2164 13.9 63.7814 13.8 63.3014 13.8C62.6114 13.8 62.0214 14.02 61.5314 14.46C61.0514 14.9 60.7764 15.51 60.7064 16.29H65.8964ZM70.4731 9.9V21H69.1081V9.9H70.4731ZM73.2345 21.09C72.9745 21.09 72.7545 21 72.5745 20.82C72.3945 20.64 72.3045 20.42 72.3045 20.16C72.3045 19.9 72.3945 19.68 72.5745 19.5C72.7545 19.32 72.9745 19.23 73.2345 19.23C73.4845 19.23 73.6945 19.32 73.8645 19.5C74.0445 19.68 74.1345 19.9 74.1345 20.16C74.1345 20.42 74.0445 20.64 73.8645 20.82C73.6945 21 73.4845 21.09 73.2345 21.09ZM73.2345 14.67C72.9745 14.67 72.7545 14.58 72.5745 14.4C72.3945 14.22 72.3045 14 72.3045 13.74C72.3045 13.48 72.3945 13.26 72.5745 13.08C72.7545 12.9 72.9745 12.81 73.2345 12.81C73.4845 12.81 73.6945 12.9 73.8645 13.08C74.0445 13.26 74.1345 13.48 74.1345 13.74C74.1345 14 74.0445 14.22 73.8645 14.4C73.6945 14.58 73.4845 14.67 73.2345 14.67Z" fill="black"/>
<path d="M20.1113 12.6347L16.3613 11.0722C16.2471 11.0248 16.1246 11.0004 16.001 11.0004C15.8773 11.0004 15.7549 11.0248 15.6406 11.0722L11.8906 12.6347C11.541 12.7792 11.3125 13.121 11.3125 13.4999C11.3125 17.3769 13.5488 20.0566 15.6387 20.9276C15.8691 21.0233 16.1289 21.0233 16.3594 20.9276C18.0332 20.2304 20.6875 17.8222 20.6875 13.4999C20.6875 13.121 20.459 12.7792 20.1113 12.6347ZM16.002 19.7167L16 12.2753L19.4355 13.7069C19.3711 16.664 17.832 18.8066 16.002 19.7167V19.7167Z" fill="black"/>
</svg>
