<svg width="48" height="48" viewBox="0 0 48 48" fill="none" xmlns="http://www.w3.org/2000/svg">
<path d="M0 16C0 7.16344 7.16344 0 16 0H48V48H16C7.16344 48 0 40.8366 0 32V16Z" fill="#0BBDE4"/>
<path d="M26 4C28.6522 4 31.1957 5.05357 33.0711 6.92893C34.9464 8.8043 36 11.3478 36 14C36 16.6522 34.9464 19.1957 33.0711 21.0711C31.1957 22.9464 28.6522 24 26 24C23.3478 24 20.8043 22.9464 18.9289 21.0711C17.0536 19.1957 16 16.6522 16 14C16 11.3478 17.0536 8.8043 18.9289 6.92893C20.8043 5.05357 23.3478 4 26 4ZM21.625 13.375C21.4592 13.375 21.3003 13.4408 21.1831 13.5581C21.0658 13.6753 21 13.8342 21 14C21 14.1658 21.0658 14.3247 21.1831 14.4419C21.3003 14.5592 21.4592 14.625 21.625 14.625H28.8663L26.1825 17.3075C26.1244 17.3656 26.0783 17.4346 26.0468 17.5105C26.0154 17.5864 25.9992 17.6678 25.9992 17.75C25.9992 17.8322 26.0154 17.9136 26.0468 17.9895C26.0783 18.0654 26.1244 18.1344 26.1825 18.1925C26.2406 18.2506 26.3096 18.2967 26.3855 18.3282C26.4614 18.3596 26.5428 18.3758 26.625 18.3758C26.7072 18.3758 26.7886 18.3596 26.8645 18.3282C26.9404 18.2967 27.0094 18.2506 27.0675 18.1925L30.8175 14.4425C30.8757 14.3844 30.9219 14.3155 30.9534 14.2395C30.9849 14.1636 31.0011 14.0822 31.0011 14C31.0011 13.9178 30.9849 13.8364 30.9534 13.7605C30.9219 13.6845 30.8757 13.6156 30.8175 13.5575L27.0675 9.8075C26.9501 9.69014 26.791 9.62421 26.625 9.62421C26.459 9.62421 26.2999 9.69014 26.1825 9.8075C26.0651 9.92486 25.9992 10.084 25.9992 10.25C25.9992 10.416 26.0651 10.5751 26.1825 10.6925L28.8663 13.375H21.625Z" fill="#ABE7EB"/>
<path d="M15.816 34.188C16.7493 34.188 17.5053 34.4727 18.084 35.042C18.6627 35.602 18.952 36.414 18.952 37.478V42H17.692V37.66C17.692 36.8947 17.5007 36.3113 17.118 35.91C16.7353 35.4993 16.2127 35.294 15.55 35.294C14.878 35.294 14.3413 35.504 13.94 35.924C13.548 36.344 13.352 36.9553 13.352 37.758V42H12.078V34.328H13.352V35.42C13.604 35.028 13.9447 34.7247 14.374 34.51C14.8127 34.2953 15.2933 34.188 15.816 34.188ZM28.0331 37.87C28.0331 38.1127 28.0191 38.3693 27.9911 38.64H21.8591C21.9057 39.396 22.1624 39.9887 22.6291 40.418C23.1051 40.838 23.6791 41.048 24.3511 41.048C24.9017 41.048 25.3591 40.922 25.7231 40.67C26.0964 40.4087 26.3577 40.0633 26.5071 39.634H27.8791C27.6737 40.3713 27.2631 40.9733 26.6471 41.44C26.0311 41.8973 25.2657 42.126 24.3511 42.126C23.6231 42.126 22.9697 41.9627 22.3911 41.636C21.8217 41.3093 21.3737 40.8473 21.0471 40.25C20.7204 39.6433 20.5571 38.9433 20.5571 38.15C20.5571 37.3567 20.7157 36.6613 21.0331 36.064C21.3504 35.4667 21.7937 35.0093 22.3631 34.692C22.9417 34.3653 23.6044 34.202 24.3511 34.202C25.0791 34.202 25.7231 34.3607 26.2831 34.678C26.8431 34.9953 27.2724 35.434 27.5711 35.994C27.8791 36.5447 28.0331 37.17 28.0331 37.87ZM26.7171 37.604C26.7171 37.1187 26.6097 36.7033 26.3951 36.358C26.1804 36.0033 25.8864 35.7373 25.5131 35.56C25.1491 35.3733 24.7431 35.28 24.2951 35.28C23.6511 35.28 23.1004 35.4853 22.6431 35.896C22.1951 36.3067 21.9384 36.876 21.8731 37.604H26.7171ZM33.7187 42L31.8987 39.144L30.1487 42H28.8187L31.2967 38.192L28.8187 34.328H30.2607L32.0807 37.17L33.8167 34.328H35.1467L32.6827 38.122L35.1607 42H33.7187ZM37.9679 35.378V39.9C37.9679 40.2733 38.0473 40.5393 38.2059 40.698C38.3646 40.8473 38.6399 40.922 39.0319 40.922H39.9699V42H38.8219C38.1126 42 37.5806 41.8367 37.2259 41.51C36.8713 41.1833 36.6939 40.6467 36.6939 39.9V35.378H35.6999V34.328H36.6939V32.396H37.9679V34.328H39.9699V35.378H37.9679Z" fill="white"/>
</svg>
