<svg width="67" height="70" viewBox="0 0 67 70" fill="none" xmlns="http://www.w3.org/2000/svg">
<rect width="67" height="70" rx="16" fill="#ABE7EB"/>
<path d="M33.8239 57.9091C33.8239 58.983 33.63 59.911 33.2422 60.6932C32.8544 61.4754 32.3224 62.0786 31.6463 62.5028C30.9702 62.9271 30.1979 63.1392 29.3295 63.1392C28.4612 63.1392 27.6889 62.9271 27.0128 62.5028C26.3366 62.0786 25.8047 61.4754 25.4169 60.6932C25.0291 59.911 24.8352 58.983 24.8352 57.9091C24.8352 56.8352 25.0291 55.9072 25.4169 55.125C25.8047 54.3428 26.3366 53.7396 27.0128 53.3153C27.6889 52.8911 28.4612 52.679 29.3295 52.679C30.1979 52.679 30.9702 52.8911 31.6463 53.3153C32.3224 53.7396 32.8544 54.3428 33.2422 55.125C33.63 55.9072 33.8239 56.8352 33.8239 57.9091ZM32.6307 57.9091C32.6307 57.0275 32.4832 56.2834 32.1882 55.6768C31.8965 55.0703 31.5005 54.6113 31 54.2997C30.5028 53.9882 29.946 53.8324 29.3295 53.8324C28.7131 53.8324 28.1546 53.9882 27.6541 54.2997C27.157 54.6113 26.7609 55.0703 26.4659 55.6768C26.1742 56.2834 26.0284 57.0275 26.0284 57.9091C26.0284 58.7907 26.1742 59.5348 26.4659 60.1413C26.7609 60.7479 27.157 61.2069 27.6541 61.5185C28.1546 61.83 28.7131 61.9858 29.3295 61.9858C29.946 61.9858 30.5028 61.83 31 61.5185C31.5005 61.2069 31.8965 60.7479 32.1882 60.1413C32.4832 59.5348 32.6307 58.7907 32.6307 57.9091ZM39.1385 55.3636V56.358H35.022V55.3636H39.1385ZM36.255 63V54.3097C36.255 53.8722 36.3577 53.5076 36.5632 53.2159C36.7687 52.9242 37.0355 52.7055 37.3636 52.5597C37.6918 52.4138 38.0381 52.3409 38.4027 52.3409C38.6911 52.3409 38.9264 52.3641 39.1087 52.4105C39.291 52.4569 39.4268 52.5 39.5163 52.5398L39.1783 53.554C39.1186 53.5341 39.0357 53.5092 38.9297 53.4794C38.8269 53.4496 38.6911 53.4347 38.522 53.4347C38.1342 53.4347 37.8542 53.5324 37.6818 53.728C37.5128 53.9235 37.4283 54.2102 37.4283 54.5881V63H36.255ZM44.1834 55.3636V56.358H40.0669V55.3636H44.1834ZM41.2999 63V54.3097C41.2999 53.8722 41.4026 53.5076 41.6081 53.2159C41.8136 52.9242 42.0804 52.7055 42.4086 52.5597C42.7367 52.4138 43.083 52.3409 43.4476 52.3409C43.736 52.3409 43.9713 52.3641 44.1536 52.4105C44.3359 52.4569 44.4718 52.5 44.5613 52.5398L44.2232 53.554C44.1635 53.5341 44.0807 53.5092 43.9746 53.4794C43.8719 53.4496 43.736 53.4347 43.5669 53.4347C43.1792 53.4347 42.8991 53.5324 42.7267 53.728C42.5577 53.9235 42.4732 54.2102 42.4732 54.5881V63H41.2999Z" fill="white"/>
<g clip-path="url(#clip0_24_6)">
<path d="M40.8972 17.116C43.483 17.0913 45.9719 18.0158 47.8164 19.6861C49.6609 21.3563 50.71 23.6356 50.7328 26.0225C50.7556 28.4093 49.7503 30.7082 47.938 32.4134C46.1258 34.1186 43.655 35.0905 41.0692 35.1152L33.7571 35.1851C35.2618 34.1237 36.4781 32.7534 37.3094 31.1831C38.1407 29.6127 38.5641 27.8856 38.5459 26.1389C38.5307 24.3922 38.0744 22.6735 37.2132 21.1193C36.3521 19.5651 35.1098 18.2183 33.5851 17.1859L40.8972 17.116ZM26.4449 35.255C23.8592 35.2797 21.3703 34.3552 19.5257 32.6849C17.6812 31.0147 16.6322 28.7354 16.6094 26.3486C16.5865 23.9617 17.5918 21.6628 19.4041 19.9576C21.2164 18.2524 23.6872 17.2805 26.2729 17.2558C28.8586 17.2311 31.3475 18.1556 33.1921 19.8258C35.0366 21.4961 36.0857 23.7754 36.1085 26.1622C36.1313 28.5491 35.126 30.848 33.3137 32.5532C31.5014 34.2584 29.0307 35.2303 26.4449 35.255V35.255ZM14.172 26.3719C14.2005 29.3554 15.5118 32.2045 17.8175 34.2923C20.1231 36.3802 23.2342 37.5358 26.4664 37.5049L41.0908 37.3651C44.3229 37.3342 47.4114 36.1194 49.6767 33.9879C51.9421 31.8563 53.1987 28.9827 53.1702 25.9992C53.1417 23.0156 51.8303 20.1665 49.5247 18.0787C47.219 15.9908 44.1079 14.8353 40.8757 14.8661L26.2514 15.0059C23.0192 15.0368 19.9307 16.2516 17.6654 18.3832C15.4001 20.5147 14.1435 23.3883 14.172 26.3719H14.172Z" fill="black"/>
</g>
<defs>
<clipPath id="clip0_24_6">
<rect width="39" height="36" fill="white" transform="translate(14 8.37268) rotate(-0.547556)"/>
</clipPath>
</defs>
</svg>
