<svg width="67" height="70" viewBox="0 0 67 70" fill="none" xmlns="http://www.w3.org/2000/svg">
<path d="M51 0H16C7.16344 0 0 7.16344 0 16V54C0 62.8366 7.16344 70 16 70H51C59.8366 70 67 62.8366 67 54V16C67 7.16344 59.8366 0 51 0Z" fill="#2CD6B7"/>
<path d="M32.8239 57.9091C32.8239 58.983 32.63 59.911 32.2422 60.6932C31.8544 61.4754 31.3224 62.0786 30.6463 62.5028C29.9702 62.9271 29.1979 63.1392 28.3295 63.1392C27.4612 63.1392 26.6889 62.9271 26.0128 62.5028C25.3366 62.0786 24.8047 61.4754 24.4169 60.6932C24.0291 59.911 23.8352 58.983 23.8352 57.9091C23.8352 56.8352 24.0291 55.9072 24.4169 55.125C24.8047 54.3428 25.3366 53.7396 26.0128 53.3153C26.6889 52.8911 27.4612 52.679 28.3295 52.679C29.1979 52.679 29.9702 52.8911 30.6463 53.3153C31.3224 53.7396 31.8544 54.3428 32.2422 55.125C32.63 55.9072 32.8239 56.8352 32.8239 57.9091ZM31.6307 57.9091C31.6307 57.0275 31.4832 56.2834 31.1882 55.6768C30.8965 55.0703 30.5005 54.6113 30 54.2997C29.5028 53.9882 28.946 53.8324 28.3295 53.8324C27.7131 53.8324 27.1546 53.9882 26.6541 54.2997C26.157 54.6113 25.7609 55.0703 25.4659 55.6768C25.1742 56.2834 25.0284 57.0275 25.0284 57.9091C25.0284 58.7907 25.1742 59.5348 25.4659 60.1413C25.7609 60.7479 26.157 61.2069 26.6541 61.5185C27.1546 61.83 27.7131 61.9858 28.3295 61.9858C28.946 61.9858 29.5028 61.83 30 61.5185C30.5005 61.2069 30.8965 60.7479 31.1882 60.1413C31.4832 59.5348 31.6307 58.7907 31.6307 57.9091ZM35.9112 58.4062V63H34.7379V55.3636H35.8714V56.5568H35.9709C36.1499 56.169 36.4216 55.8575 36.7862 55.6222C37.1508 55.3835 37.6214 55.2642 38.1982 55.2642C38.7152 55.2642 39.1676 55.3703 39.5554 55.5824C39.9432 55.7912 40.2448 56.1094 40.4602 56.5369C40.6757 56.9612 40.7834 57.4981 40.7834 58.1477V63H39.6101V58.2273C39.6101 57.6274 39.4543 57.16 39.1428 56.8253C38.8312 56.4872 38.4036 56.3182 37.8601 56.3182C37.4856 56.3182 37.1508 56.3994 36.8558 56.5618C36.5642 56.7242 36.3338 56.9612 36.1648 57.2727C35.9957 57.5843 35.9112 57.9621 35.9112 58.4062Z" fill="black"/>
<path d="M25.1875 13C21.9552 13 18.8552 14.317 16.5696 16.6612C14.284 19.0054 13 22.1848 13 25.5C13 28.8152 14.284 31.9946 16.5696 34.3388C18.8552 36.683 21.9552 38 25.1875 38H39.8125C43.0448 38 46.1448 36.683 48.4304 34.3388C50.716 31.9946 52 28.8152 52 25.5C52 22.1848 50.716 19.0054 48.4304 16.6612C46.1448 14.317 43.0448 13 39.8125 13H25.1875ZM39.8125 35.5C37.2266 35.5 34.7467 34.4464 32.9182 32.5711C31.0897 30.6957 30.0625 28.1522 30.0625 25.5C30.0625 22.8478 31.0897 20.3043 32.9182 18.4289C34.7467 16.5536 37.2266 15.5 39.8125 15.5C42.3984 15.5 44.8783 16.5536 46.7068 18.4289C48.5353 20.3043 49.5625 22.8478 49.5625 25.5C49.5625 28.1522 48.5353 30.6957 46.7068 32.5711C44.8783 34.4464 42.3984 35.5 39.8125 35.5Z" fill="black"/>
</svg>
