<svg width="48" height="48" viewBox="0 0 48 48" fill="none" xmlns="http://www.w3.org/2000/svg">
<path d="M0 0H32C40.8366 0 48 7.16344 48 16V32C48 40.8366 40.8366 48 32 48H0V0Z" fill="#0BBDE4"/>
<path d="M6.352 35.742C6.604 35.3033 6.97733 34.9393 7.472 34.65C7.976 34.3513 8.55933 34.202 9.222 34.202C9.90333 34.202 10.5193 34.3653 11.07 34.692C11.63 35.0187 12.0687 35.4807 12.386 36.078C12.7033 36.666 12.862 37.352 12.862 38.136C12.862 38.9107 12.7033 39.6013 12.386 40.208C12.0687 40.8147 11.63 41.286 11.07 41.622C10.5193 41.958 9.90333 42.126 9.222 42.126C8.56867 42.126 7.99 41.9813 7.486 41.692C6.99133 41.3933 6.61333 41.0247 6.352 40.586V45.64H5.078V34.328H6.352V35.742ZM11.56 38.136C11.56 37.5573 11.4433 37.0533 11.21 36.624C10.9767 36.1947 10.6593 35.868 10.258 35.644C9.866 35.42 9.432 35.308 8.956 35.308C8.48933 35.308 8.05533 35.4247 7.654 35.658C7.262 35.882 6.94467 36.2133 6.702 36.652C6.46867 37.0813 6.352 37.5807 6.352 38.15C6.352 38.7287 6.46867 39.2373 6.702 39.676C6.94467 40.1053 7.262 40.4367 7.654 40.67C8.05533 40.894 8.48933 41.006 8.956 41.006C9.432 41.006 9.866 40.894 10.258 40.67C10.6593 40.4367 10.9767 40.1053 11.21 39.676C11.4433 39.2373 11.56 38.724 11.56 38.136ZM15.8129 35.574C16.0369 35.1353 16.3543 34.7947 16.7649 34.552C17.1849 34.3093 17.6936 34.188 18.2909 34.188V35.504H17.9549C16.5269 35.504 15.8129 36.2787 15.8129 37.828V42H14.5389V34.328H15.8129V35.574ZM26.7616 37.87C26.7616 38.1127 26.7476 38.3693 26.7196 38.64H20.5876C20.6343 39.396 20.8909 39.9887 21.3576 40.418C21.8336 40.838 22.4076 41.048 23.0796 41.048C23.6303 41.048 24.0876 40.922 24.4516 40.67C24.8249 40.4087 25.0863 40.0633 25.2356 39.634H26.6076C26.4023 40.3713 25.9916 40.9733 25.3756 41.44C24.7596 41.8973 23.9943 42.126 23.0796 42.126C22.3516 42.126 21.6983 41.9627 21.1196 41.636C20.5503 41.3093 20.1023 40.8473 19.7756 40.25C19.4489 39.6433 19.2856 38.9433 19.2856 38.15C19.2856 37.3567 19.4443 36.6613 19.7616 36.064C20.0789 35.4667 20.5223 35.0093 21.0916 34.692C21.6703 34.3653 22.3329 34.202 23.0796 34.202C23.8076 34.202 24.4516 34.3607 25.0116 34.678C25.5716 34.9953 26.0009 35.434 26.2996 35.994C26.6076 36.5447 26.7616 37.17 26.7616 37.87ZM25.4456 37.604C25.4456 37.1187 25.3383 36.7033 25.1236 36.358C24.9089 36.0033 24.6149 35.7373 24.2416 35.56C23.8776 35.3733 23.4716 35.28 23.0236 35.28C22.3796 35.28 21.8289 35.4853 21.3716 35.896C20.9236 36.3067 20.6669 36.876 20.6016 37.604H25.4456ZM31.2992 40.824L33.6792 34.328H35.0372L32.0272 42H30.5432L27.5332 34.328H28.9052L31.2992 40.824Z" fill="white"/>
<path d="M20 4C17.3478 4 14.8043 5.05357 12.9289 6.92893C11.0536 8.8043 10 11.3478 10 14C10 16.6522 11.0536 19.1957 12.9289 21.0711C14.8043 22.9464 17.3478 24 20 24C22.6522 24 25.1957 22.9464 27.0711 21.0711C28.9464 19.1957 30 16.6522 30 14C30 11.3478 28.9464 8.8043 27.0711 6.92893C25.1957 5.05357 22.6522 4 20 4V4ZM24.375 13.375C24.5408 13.375 24.6997 13.4408 24.8169 13.5581C24.9342 13.6753 25 13.8342 25 14C25 14.1658 24.9342 14.3247 24.8169 14.4419C24.6997 14.5592 24.5408 14.625 24.375 14.625H17.1337L19.8175 17.3075C19.8756 17.3656 19.9217 17.4346 19.9532 17.5105C19.9846 17.5864 20.0008 17.6678 20.0008 17.75C20.0008 17.8322 19.9846 17.9136 19.9532 17.9895C19.9217 18.0654 19.8756 18.1344 19.8175 18.1925C19.7594 18.2506 19.6904 18.2967 19.6145 18.3282C19.5386 18.3596 19.4572 18.3758 19.375 18.3758C19.2928 18.3758 19.2114 18.3596 19.1355 18.3282C19.0596 18.2967 18.9906 18.2506 18.9325 18.1925L15.1825 14.4425C15.1243 14.3844 15.0781 14.3155 15.0466 14.2395C15.0151 14.1636 14.9989 14.0822 14.9989 14C14.9989 13.9178 15.0151 13.8364 15.0466 13.7605C15.0781 13.6845 15.1243 13.6156 15.1825 13.5575L18.9325 9.8075C19.0499 9.69014 19.209 9.62421 19.375 9.62421C19.541 9.62421 19.7001 9.69014 19.8175 9.8075C19.9349 9.92486 20.0008 10.084 20.0008 10.25C20.0008 10.416 19.9349 10.5751 19.8175 10.6925L17.1337 13.375H24.375Z" fill="#ABE7EB"/>
</svg>
