<svg width="173" height="68" viewBox="0 0 173 68" fill="none" xmlns="http://www.w3.org/2000/svg">
<path d="M0 16C0 7.16344 7.16344 0 16 0H157C165.837 0 173 7.16344 173 16V52C173 60.8366 165.837 68 157 68H16C7.16344 68 0 60.8366 0 52V16Z" fill="white"/>
<path d="M31.66 23L29.17 18.725H27.52V23H26.155V12.545H29.53C30.32 12.545 30.985 12.68 31.525 12.95C32.075 13.22 32.485 13.585 32.755 14.045C33.025 14.505 33.16 15.03 33.16 15.62C33.16 16.34 32.95 16.975 32.53 17.525C32.12 18.075 31.5 18.44 30.67 18.62L33.295 23H31.66ZM27.52 17.63H29.53C30.27 17.63 30.825 17.45 31.195 17.09C31.565 16.72 31.75 16.23 31.75 15.62C31.75 15 31.565 14.52 31.195 14.18C30.835 13.84 30.28 13.67 29.53 13.67H27.52V17.63ZM42.781 18.575C42.781 18.835 42.766 19.11 42.736 19.4H36.166C36.216 20.21 36.491 20.845 36.991 21.305C37.501 21.755 38.116 21.98 38.836 21.98C39.426 21.98 39.916 21.845 40.306 21.575C40.706 21.295 40.986 20.925 41.146 20.465H42.616C42.396 21.255 41.956 21.9 41.296 22.4C40.636 22.89 39.816 23.135 38.836 23.135C38.056 23.135 37.356 22.96 36.736 22.61C36.126 22.26 35.646 21.765 35.296 21.125C34.946 20.475 34.771 19.725 34.771 18.875C34.771 18.025 34.941 17.28 35.281 16.64C35.621 16 36.096 15.51 36.706 15.17C37.326 14.82 38.036 14.645 38.836 14.645C39.616 14.645 40.306 14.815 40.906 15.155C41.506 15.495 41.966 15.965 42.286 16.565C42.616 17.155 42.781 17.825 42.781 18.575ZM41.371 18.29C41.371 17.77 41.256 17.325 41.026 16.955C40.796 16.575 40.481 16.29 40.081 16.1C39.691 15.9 39.256 15.8 38.776 15.8C38.086 15.8 37.496 16.02 37.006 16.46C36.526 16.9 36.251 17.51 36.181 18.29H41.371ZM47.9277 15.905H46.2027V23H44.8377V15.905H43.7727V14.78H44.8377V14.195C44.8377 13.275 45.0727 12.605 45.5427 12.185C46.0227 11.755 46.7877 11.54 47.8377 11.54V12.68C47.2377 12.68 46.8127 12.8 46.5627 13.04C46.3227 13.27 46.2027 13.655 46.2027 14.195V14.78H47.9277V15.905ZM57.0193 18.575C57.0193 18.835 57.0043 19.11 56.9743 19.4H50.4043C50.4543 20.21 50.7293 20.845 51.2293 21.305C51.7393 21.755 52.3543 21.98 53.0743 21.98C53.6643 21.98 54.1543 21.845 54.5443 21.575C54.9443 21.295 55.2243 20.925 55.3843 20.465H56.8543C56.6343 21.255 56.1943 21.9 55.5343 22.4C54.8743 22.89 54.0543 23.135 53.0743 23.135C52.2943 23.135 51.5943 22.96 50.9743 22.61C50.3643 22.26 49.8843 21.765 49.5343 21.125C49.1843 20.475 49.0093 19.725 49.0093 18.875C49.0093 18.025 49.1793 17.28 49.5193 16.64C49.8593 16 50.3343 15.51 50.9443 15.17C51.5643 14.82 52.2743 14.645 53.0743 14.645C53.8543 14.645 54.5443 14.815 55.1443 15.155C55.7443 15.495 56.2043 15.965 56.5243 16.565C56.8543 17.155 57.0193 17.825 57.0193 18.575ZM55.6093 18.29C55.6093 17.77 55.4943 17.325 55.2643 16.955C55.0343 16.575 54.7193 16.29 54.3193 16.1C53.9293 15.9 53.4943 15.8 53.0143 15.8C52.3243 15.8 51.7343 16.02 51.2443 16.46C50.7643 16.9 50.4893 17.51 50.4193 18.29H55.6093ZM60.186 16.115C60.426 15.645 60.766 15.28 61.206 15.02C61.656 14.76 62.201 14.63 62.841 14.63V16.04H62.481C60.951 16.04 60.186 16.87 60.186 18.53V23H58.821V14.78H60.186V16.115ZM71.9167 18.575C71.9167 18.835 71.9017 19.11 71.8717 19.4H65.3017C65.3517 20.21 65.6267 20.845 66.1267 21.305C66.6367 21.755 67.2517 21.98 67.9717 21.98C68.5617 21.98 69.0517 21.845 69.4417 21.575C69.8417 21.295 70.1217 20.925 70.2817 20.465H71.7517C71.5317 21.255 71.0917 21.9 70.4317 22.4C69.7717 22.89 68.9517 23.135 67.9717 23.135C67.1917 23.135 66.4917 22.96 65.8717 22.61C65.2617 22.26 64.7817 21.765 64.4317 21.125C64.0817 20.475 63.9067 19.725 63.9067 18.875C63.9067 18.025 64.0767 17.28 64.4167 16.64C64.7567 16 65.2317 15.51 65.8417 15.17C66.4617 14.82 67.1717 14.645 67.9717 14.645C68.7517 14.645 69.4417 14.815 70.0417 15.155C70.6417 15.495 71.1017 15.965 71.4217 16.565C71.7517 17.155 71.9167 17.825 71.9167 18.575ZM70.5067 18.29C70.5067 17.77 70.3917 17.325 70.1617 16.955C69.9317 16.575 69.6167 16.29 69.2167 16.1C68.8267 15.9 68.3917 15.8 67.9117 15.8C67.2217 15.8 66.6317 16.02 66.1417 16.46C65.6617 16.9 65.3867 17.51 65.3167 18.29H70.5067ZM77.7235 14.63C78.7235 14.63 79.5335 14.935 80.1535 15.545C80.7735 16.145 81.0835 17.015 81.0835 18.155V23H79.7335V18.35C79.7335 17.53 79.5285 16.905 79.1185 16.475C78.7085 16.035 78.1485 15.815 77.4385 15.815C76.7185 15.815 76.1435 16.04 75.7135 16.49C75.2935 16.94 75.0835 17.595 75.0835 18.455V23H73.7185V14.78H75.0835V15.95C75.3535 15.53 75.7185 15.205 76.1785 14.975C76.6485 14.745 77.1635 14.63 77.7235 14.63ZM82.8032 18.875C82.8032 18.025 82.9732 17.285 83.3132 16.655C83.6532 16.015 84.1232 15.52 84.7232 15.17C85.3332 14.82 86.0282 14.645 86.8082 14.645C87.8182 14.645 88.6482 14.89 89.2982 15.38C89.9582 15.87 90.3932 16.55 90.6032 17.42H89.1332C88.9932 16.92 88.7182 16.525 88.3082 16.235C87.9082 15.945 87.4082 15.8 86.8082 15.8C86.0282 15.8 85.3982 16.07 84.9182 16.61C84.4382 17.14 84.1982 17.895 84.1982 18.875C84.1982 19.865 84.4382 20.63 84.9182 21.17C85.3982 21.71 86.0282 21.98 86.8082 21.98C87.4082 21.98 87.9082 21.84 88.3082 21.56C88.7082 21.28 88.9832 20.88 89.1332 20.36H90.6032C90.3832 21.2 89.9432 21.875 89.2832 22.385C88.6232 22.885 87.7982 23.135 86.8082 23.135C86.0282 23.135 85.3332 22.96 84.7232 22.61C84.1232 22.26 83.6532 21.765 83.3132 21.125C82.9732 20.485 82.8032 19.735 82.8032 18.875ZM99.9245 18.575C99.9245 18.835 99.9095 19.11 99.8795 19.4H93.3095C93.3595 20.21 93.6345 20.845 94.1345 21.305C94.6445 21.755 95.2595 21.98 95.9795 21.98C96.5695 21.98 97.0595 21.845 97.4495 21.575C97.8495 21.295 98.1295 20.925 98.2895 20.465H99.7595C99.5395 21.255 99.0995 21.9 98.4395 22.4C97.7795 22.89 96.9595 23.135 95.9795 23.135C95.1995 23.135 94.4995 22.96 93.8795 22.61C93.2695 22.26 92.7895 21.765 92.4395 21.125C92.0895 20.475 91.9145 19.725 91.9145 18.875C91.9145 18.025 92.0845 17.28 92.4245 16.64C92.7645 16 93.2395 15.51 93.8495 15.17C94.4695 14.82 95.1795 14.645 95.9795 14.645C96.7595 14.645 97.4495 14.815 98.0495 15.155C98.6495 15.495 99.1095 15.965 99.4295 16.565C99.7595 17.155 99.9245 17.825 99.9245 18.575ZM98.5145 18.29C98.5145 17.77 98.3995 17.325 98.1695 16.955C97.9395 16.575 97.6245 16.29 97.2245 16.1C96.8345 15.9 96.3995 15.8 95.9195 15.8C95.2295 15.8 94.6395 16.02 94.1495 16.46C93.6695 16.9 93.3945 17.51 93.3245 18.29H98.5145Z" fill="black"/>
<path d="M20.1113 14.6347L16.3613 13.0722C16.2471 13.0248 16.1246 13.0004 16.001 13.0004C15.8773 13.0004 15.7549 13.0248 15.6406 13.0722L11.8906 14.6347C11.541 14.7792 11.3125 15.121 11.3125 15.4999C11.3125 19.3769 13.5488 22.0566 15.6387 22.9276C15.8691 23.0233 16.1289 23.0233 16.3594 22.9276C18.0332 22.2304 20.6875 19.8222 20.6875 15.4999C20.6875 15.121 20.459 14.7792 20.1113 14.6347ZM16.002 21.7167L16 14.2753L19.4355 15.7069C19.3711 18.664 17.832 20.8066 16.002 21.7167V21.7167Z" fill="black"/>
</svg>
