<svg width="67" height="70" viewBox="0 0 67 70" fill="none" xmlns="http://www.w3.org/2000/svg">
<path d="M51 0H16C7.16344 0 0 7.16344 0 16V54C0 62.8366 7.16344 70 16 70H51C59.8366 70 67 62.8366 67 54V16C67 7.16344 59.8366 0 51 0Z" fill="#2CD6B7"/>
<path d="M33.4999 9C23.2991 9 15 16.1776 15 25C15 33.8224 23.2991 41 33.4999 41C43.7009 41 52 33.8224 52 25C52 16.1776 43.7009 9 33.4999 9ZM33.4999 37.7999C25.3396 37.7999 18.7 32.0576 18.7 25C18.7 17.9424 25.3396 12.2 33.4999 12.2C41.6604 12.2 48.3 17.9424 48.3 25C48.3 32.0576 41.6604 37.7999 33.4999 37.7999Z" fill="black"/>
<path d="M35.3636 31L44 25L35.3636 19V31ZM25 31L33.6364 25L25 19V31Z" fill="black"/>
<path d="M8.23291 63V52.8182H11.6733C12.4688 52.8182 13.1217 52.9541 13.6321 53.2259C14.1425 53.4943 14.5204 53.8639 14.7656 54.3345C15.0109 54.8052 15.1335 55.3404 15.1335 55.9403C15.1335 56.5402 15.0109 57.0722 14.7656 57.5362C14.5204 58.0002 14.1442 58.3648 13.6371 58.63C13.13 58.8918 12.482 59.0227 11.6932 59.0227H8.90905V57.9091H11.6534C12.197 57.9091 12.6345 57.8295 12.9659 57.6705C13.3007 57.5114 13.5426 57.286 13.6918 56.9943C13.8442 56.6993 13.9205 56.348 13.9205 55.9403C13.9205 55.5327 13.8442 55.1764 13.6918 54.8714C13.5393 54.5665 13.2957 54.3312 12.9609 54.1655C12.6262 53.9964 12.1837 53.9119 11.6335 53.9119H9.46587V63H8.23291ZM13.0256 58.4261L15.5312 63H14.0994L11.6335 58.4261H13.0256ZM20.1486 63.1591C19.4128 63.1591 18.7781 62.9967 18.2445 62.6719C17.7142 62.3438 17.3049 61.8864 17.0165 61.2997C16.7315 60.7098 16.589 60.0237 16.589 59.2415C16.589 58.4593 16.7315 57.7699 17.0165 57.1733C17.3049 56.5734 17.7059 56.1061 18.2196 55.7713C18.7367 55.4332 19.3399 55.2642 20.0293 55.2642C20.427 55.2642 20.8198 55.3305 21.2076 55.4631C21.5953 55.5956 21.9483 55.8111 22.2665 56.1094C22.5847 56.4044 22.8382 56.7955 23.0272 57.2827C23.2161 57.7699 23.3105 58.3698 23.3105 59.0824V59.5795H17.4242V58.5653H22.1174C22.1174 58.1345 22.0312 57.75 21.8588 57.4119C21.6898 57.0739 21.4479 56.8071 21.133 56.6115C20.8214 56.416 20.4535 56.3182 20.0293 56.3182C19.562 56.3182 19.1576 56.4342 18.8162 56.6662C18.4782 56.8949 18.218 57.1932 18.0357 57.5611C17.8534 57.929 17.7623 58.3234 17.7623 58.7443V59.4205C17.7623 59.9972 17.8617 60.486 18.0605 60.8871C18.2627 61.2848 18.5428 61.5881 18.9007 61.7969C19.2587 62.0024 19.6747 62.1051 20.1486 62.1051C20.4569 62.1051 20.7353 62.062 20.9838 61.9759C21.2357 61.8864 21.4528 61.7538 21.6351 61.5781C21.8174 61.3991 21.9583 61.1771 22.0577 60.9119L23.1912 61.2301C23.0719 61.6146 22.8714 61.9527 22.5897 62.2443C22.3079 62.5327 21.9599 62.758 21.5456 62.9205C21.1313 63.0795 20.6657 63.1591 20.1486 63.1591ZM31.1072 55.3636L28.2834 63H27.0902L24.2663 55.3636H25.5391L27.647 61.4489H27.7266L29.8345 55.3636H31.1072ZM35.5842 63.1591C34.8484 63.1591 34.2137 62.9967 33.68 62.6719C33.1497 62.3438 32.7404 61.8864 32.4521 61.2997C32.167 60.7098 32.0245 60.0237 32.0245 59.2415C32.0245 58.4593 32.167 57.7699 32.4521 57.1733C32.7404 56.5734 33.1415 56.1061 33.6552 55.7713C34.1722 55.4332 34.7754 55.2642 35.4648 55.2642C35.8626 55.2642 36.2553 55.3305 36.6431 55.4631C37.0309 55.5956 37.3839 55.8111 37.7021 56.1094C38.0202 56.4044 38.2738 56.7955 38.4627 57.2827C38.6516 57.7699 38.7461 58.3698 38.7461 59.0824V59.5795H32.8597V58.5653H37.5529C37.5529 58.1345 37.4667 57.75 37.2944 57.4119C37.1254 57.0739 36.8834 56.8071 36.5685 56.6115C36.257 56.416 35.8891 56.3182 35.4648 56.3182C34.9975 56.3182 34.5932 56.4342 34.2518 56.6662C33.9137 56.8949 33.6535 57.1932 33.4712 57.5611C33.2889 57.929 33.1978 58.3234 33.1978 58.7443V59.4205C33.1978 59.9972 33.2972 60.486 33.4961 60.8871C33.6983 61.2848 33.9783 61.5881 34.3363 61.7969C34.6942 62.0024 35.1102 62.1051 35.5842 62.1051C35.8924 62.1051 36.1708 62.062 36.4194 61.9759C36.6713 61.8864 36.8884 61.7538 37.0707 61.5781C37.253 61.3991 37.3938 61.1771 37.4933 60.9119L38.6268 61.2301C38.5075 61.6146 38.3069 61.9527 38.0252 62.2443C37.7435 62.5327 37.3955 62.758 36.9812 62.9205C36.5669 63.0795 36.1012 63.1591 35.5842 63.1591ZM40.5309 63V55.3636H41.6644V56.517H41.744C41.8832 56.1392 42.1351 55.8326 42.4996 55.5973C42.8642 55.362 43.2752 55.2443 43.7326 55.2443C43.8188 55.2443 43.9265 55.246 44.0558 55.2493C44.185 55.2526 44.2828 55.2576 44.3491 55.2642V56.4574C44.3093 56.4474 44.2182 56.4325 44.0756 56.4126C43.9364 56.3894 43.7889 56.3778 43.6332 56.3778C43.262 56.3778 42.9305 56.4557 42.6388 56.6115C42.3505 56.764 42.1218 56.9761 41.9528 57.2479C41.7871 57.5163 41.7042 57.8229 41.7042 58.1676V63H40.5309ZM51.149 57.0739L50.095 57.3722C50.0287 57.1965 49.9309 57.0258 49.8017 56.8601C49.6757 56.6911 49.5034 56.5518 49.2846 56.4425C49.0659 56.3331 48.7858 56.2784 48.4444 56.2784C47.9771 56.2784 47.5877 56.3861 47.2761 56.6016C46.9679 56.8137 46.8137 57.0838 46.8137 57.4119C46.8137 57.7036 46.9198 57.9339 47.1319 58.103C47.344 58.272 47.6755 58.4129 48.1262 58.5256L49.2598 58.804C49.9425 58.9697 50.4513 59.2232 50.786 59.5646C51.1208 59.9027 51.2882 60.3385 51.2882 60.8722C51.2882 61.3097 51.1622 61.7008 50.9103 62.0455C50.6618 62.3902 50.3137 62.6619 49.8663 62.8608C49.4189 63.0597 48.8985 63.1591 48.3052 63.1591C47.5263 63.1591 46.8817 62.9901 46.3713 62.652C45.8609 62.3139 45.5377 61.8201 45.4018 61.1705L46.5154 60.892C46.6215 61.303 46.822 61.6113 47.117 61.8168C47.4153 62.0223 47.8047 62.125 48.2853 62.125C48.8322 62.125 49.2664 62.009 49.5879 61.777C49.9127 61.5417 50.0751 61.2599 50.0751 60.9318C50.0751 60.6667 49.9823 60.4446 49.7967 60.2656C49.6111 60.0833 49.3261 59.9474 48.9416 59.858L47.6689 59.5597C46.9695 59.3939 46.4558 59.1371 46.1277 58.7891C45.8029 58.4377 45.6404 57.9986 45.6404 57.4716C45.6404 57.0407 45.7614 56.6596 46.0034 56.3281C46.2486 55.9967 46.5817 55.7365 47.0027 55.5476C47.4269 55.3587 47.9075 55.2642 48.4444 55.2642C49.2001 55.2642 49.7934 55.4299 50.2243 55.7614C50.6584 56.0928 50.9667 56.5303 51.149 57.0739ZM56.256 63.1591C55.5202 63.1591 54.8855 62.9967 54.3519 62.6719C53.8216 62.3438 53.4123 61.8864 53.1239 61.2997C52.8389 60.7098 52.6964 60.0237 52.6964 59.2415C52.6964 58.4593 52.8389 57.7699 53.1239 57.1733C53.4123 56.5734 53.8133 56.1061 54.3271 55.7713C54.8441 55.4332 55.4473 55.2642 56.1367 55.2642C56.5344 55.2642 56.9272 55.3305 57.315 55.4631C57.7028 55.5956 58.0558 55.8111 58.3739 56.1094C58.6921 56.4044 58.9457 56.7955 59.1346 57.2827C59.3235 57.7699 59.418 58.3698 59.418 59.0824V59.5795H53.5316V58.5653H58.2248C58.2248 58.1345 58.1386 57.75 57.9663 57.4119C57.7972 57.0739 57.5553 56.8071 57.2404 56.6115C56.9289 56.416 56.561 56.3182 56.1367 56.3182C55.6694 56.3182 55.265 56.4342 54.9237 56.6662C54.5856 56.8949 54.3254 57.1932 54.1431 57.5611C53.9608 57.929 53.8697 58.3234 53.8697 58.7443V59.4205C53.8697 59.9972 53.9691 60.486 54.168 60.8871C54.3701 61.2848 54.6502 61.5881 55.0082 61.7969C55.3661 62.0024 55.7821 62.1051 56.256 62.1051C56.5643 62.1051 56.8427 62.062 57.0913 61.9759C57.3432 61.8864 57.5603 61.7538 57.7425 61.5781C57.9248 61.3991 58.0657 61.1771 58.1651 60.9119L59.2987 61.2301C59.1793 61.6146 58.9788 61.9527 58.6971 62.2443C58.4154 62.5327 58.0674 62.758 57.6531 62.9205C57.2388 63.0795 56.7731 63.1591 56.256 63.1591Z" fill="black"/>
</svg>
