<svg width="67" height="70" viewBox="0 0 67 70" fill="none" xmlns="http://www.w3.org/2000/svg">
<path d="M51 0H16C7.16344 0 0 7.16344 0 16V54C0 62.8366 7.16344 70 16 70H51C59.8366 70 67 62.8366 67 54V16C67 7.16344 59.8366 0 51 0Z" fill="#2CD6B7"/>
<path d="M33.5 6.5C23.1111 6.5 14.6875 14.3359 14.6875 24C14.6875 33.6641 23.1111 41.5 33.5 41.5C43.8889 41.5 52.3125 33.6641 52.3125 24C52.3125 14.3359 43.8889 6.5 33.5 6.5ZM33.5 38.5312C24.8748 38.5312 17.8789 32.0234 17.8789 24C17.8789 20.5234 19.1933 17.3281 21.3853 14.8281L43.3598 35.2695C40.6723 37.3086 37.2373 38.5312 33.5 38.5312ZM45.6147 33.1719L23.6402 12.7305C26.3277 10.6914 29.7627 9.46875 33.5 9.46875C42.1252 9.46875 49.1211 15.9766 49.1211 24C49.1211 27.4766 47.8067 30.6719 45.6147 33.1719Z" fill="black"/>
<path d="M24.8011 55.3636C24.7415 54.8598 24.4995 54.4688 24.0753 54.1903C23.651 53.9119 23.1307 53.7727 22.5142 53.7727C22.0634 53.7727 21.669 53.8456 21.331 53.9915C20.9962 54.1373 20.7344 54.3378 20.5455 54.593C20.3598 54.8482 20.267 55.1383 20.267 55.4631C20.267 55.7348 20.3317 55.9685 20.4609 56.1641C20.5935 56.3563 20.7625 56.517 20.968 56.6463C21.1735 56.7723 21.389 56.8767 21.6143 56.9595C21.8397 57.0391 22.0469 57.1037 22.2358 57.1534L23.2699 57.4318C23.535 57.5014 23.83 57.5975 24.1548 57.7202C24.483 57.8428 24.7962 58.0102 25.0945 58.2223C25.3961 58.4311 25.6446 58.6996 25.8402 59.0277C26.0357 59.3558 26.1335 59.7585 26.1335 60.2358C26.1335 60.786 25.9893 61.2831 25.701 61.7273C25.416 62.1714 24.9983 62.5244 24.4482 62.7862C23.9013 63.0481 23.2367 63.179 22.4545 63.179C21.7254 63.179 21.094 63.0613 20.5604 62.826C20.0301 62.5907 19.6125 62.2625 19.3075 61.8416C19.0059 61.4207 18.8352 60.9318 18.7955 60.375H20.0682C20.1013 60.7595 20.2306 61.0777 20.456 61.3295C20.6847 61.5781 20.973 61.7637 21.321 61.8864C21.6723 62.0057 22.0502 62.0653 22.4545 62.0653C22.9252 62.0653 23.3478 61.9891 23.7223 61.8366C24.0968 61.6809 24.3935 61.4654 24.6122 61.1903C24.831 60.9119 24.9403 60.5871 24.9403 60.2159C24.9403 59.8778 24.8459 59.6027 24.657 59.3906C24.468 59.1785 24.2195 59.0062 23.9112 58.8736C23.603 58.741 23.2699 58.625 22.9119 58.5256L21.6591 58.1676C20.8636 57.9389 20.2339 57.6125 19.7699 57.1882C19.3059 56.764 19.0739 56.2088 19.0739 55.5227C19.0739 54.9527 19.228 54.4555 19.5362 54.0312C19.8478 53.6037 20.2654 53.2723 20.7891 53.0369C21.3161 52.7983 21.9044 52.679 22.554 52.679C23.2102 52.679 23.7936 52.7966 24.304 53.032C24.8144 53.264 25.2188 53.5821 25.517 53.9865C25.8187 54.3909 25.9777 54.8499 25.9943 55.3636H24.8011ZM31.3226 55.3636V56.358H27.3652V55.3636H31.3226ZM28.5186 53.5341H29.6919V60.8125C29.6919 61.1439 29.74 61.3925 29.8361 61.5582C29.9355 61.7206 30.0615 61.83 30.214 61.8864C30.3697 61.9394 30.5338 61.9659 30.7061 61.9659C30.8354 61.9659 30.9415 61.9593 31.0243 61.946C31.1072 61.9295 31.1735 61.9162 31.2232 61.9062L31.4618 62.9602C31.3823 62.9901 31.2712 63.0199 31.1287 63.0497C30.9862 63.0829 30.8056 63.0994 30.5868 63.0994C30.2554 63.0994 29.9306 63.0282 29.6124 62.8857C29.2975 62.7431 29.0357 62.526 28.8269 62.2344C28.6214 61.9427 28.5186 61.5748 28.5186 61.1307V53.5341ZM36.1078 63.1591C35.4184 63.1591 34.8135 62.995 34.2931 62.6669C33.7761 62.3388 33.3717 61.8797 33.0801 61.2898C32.7917 60.6998 32.6475 60.0104 32.6475 59.2216C32.6475 58.4261 32.7917 57.7318 33.0801 57.1385C33.3717 56.5452 33.7761 56.0845 34.2931 55.7564C34.8135 55.4283 35.4184 55.2642 36.1078 55.2642C36.7972 55.2642 37.4004 55.4283 37.9174 55.7564C38.4378 56.0845 38.8422 56.5452 39.1305 57.1385C39.4222 57.7318 39.568 58.4261 39.568 59.2216C39.568 60.0104 39.4222 60.6998 39.1305 61.2898C38.8422 61.8797 38.4378 62.3388 37.9174 62.6669C37.4004 62.995 36.7972 63.1591 36.1078 63.1591ZM36.1078 62.1051C36.6315 62.1051 37.0623 61.9709 37.4004 61.7024C37.7385 61.4339 37.9887 61.081 38.1511 60.6435C38.3135 60.206 38.3947 59.732 38.3947 59.2216C38.3947 58.7112 38.3135 58.2356 38.1511 57.7947C37.9887 57.3539 37.7385 56.9976 37.4004 56.7259C37.0623 56.4541 36.6315 56.3182 36.1078 56.3182C35.5841 56.3182 35.1532 56.4541 34.8152 56.7259C34.4771 56.9976 34.2269 57.3539 34.0645 57.7947C33.902 58.2356 33.8208 58.7112 33.8208 59.2216C33.8208 59.732 33.902 60.206 34.0645 60.6435C34.2269 61.081 34.4771 61.4339 34.8152 61.7024C35.1532 61.9709 35.5841 62.1051 36.1078 62.1051ZM41.359 65.8636V55.3636H42.4925V56.5767H42.6317C42.7179 56.4441 42.8372 56.2751 42.9897 56.0696C43.1455 55.8608 43.3675 55.6752 43.6559 55.5128C43.9476 55.3471 44.342 55.2642 44.8391 55.2642C45.4821 55.2642 46.0489 55.425 46.5394 55.7464C47.0299 56.0679 47.4128 56.5237 47.6879 57.1136C47.9629 57.7036 48.1005 58.3996 48.1005 59.2017C48.1005 60.0104 47.9629 60.7114 47.6879 61.3047C47.4128 61.8946 47.0316 62.352 46.5444 62.6768C46.0572 62.9983 45.4954 63.1591 44.859 63.1591C44.3685 63.1591 43.9757 63.0779 43.6808 62.9155C43.3858 62.7498 43.1587 62.5625 42.9996 62.3537C42.8406 62.1416 42.7179 61.9659 42.6317 61.8267H42.5323V65.8636H41.359ZM42.5124 59.1818C42.5124 59.7585 42.5969 60.2673 42.766 60.7081C42.935 61.1456 43.1819 61.4886 43.5067 61.7372C43.8316 61.9825 44.2293 62.1051 44.6999 62.1051C45.1905 62.1051 45.5998 61.9759 45.9279 61.7173C46.2594 61.4555 46.5079 61.1042 46.6737 60.6634C46.8427 60.2192 46.9272 59.7254 46.9272 59.1818C46.9272 58.6449 46.8443 58.161 46.6786 57.7301C46.5162 57.2959 46.2693 56.9529 45.9379 56.701C45.6097 56.4458 45.1971 56.3182 44.6999 56.3182C44.2227 56.3182 43.8216 56.4392 43.4968 56.6811C43.172 56.9197 42.9267 57.2545 42.761 57.6854C42.5953 58.1129 42.5124 58.6117 42.5124 59.1818Z" fill="#0A0909"/>
</svg>
